999
"DXF R12 Output" (www.mydxf.blogspot.com)
 0 
SECTION
 2 
HEADER
 9 
$ACADVER
 1 
AC1009
 9 
$EXTMIN
 10 
 0 
 20 
 0 
 9 
$EXTMAX
 10 
 8.5 
 20 
 11 
 0 
ENDSEC
 0 
SECTION
 2 
ENTITIES
0
LINE
8
Layer 1
10
2.833272
20
81.058357
11
268.208601
21
81.058357
0
LINE
8
Layer 1
10
268.208601
20
81.058357
11
269.300512
21
80.838998
0
LINE
8
Layer 1
10
269.300512
20
80.838998
11
270.190301
21
80.240068
0
LINE
8
Layer 1
10
270.190301
20
80.240068
11
270.789240
21
79.350288
0
LINE
8
Layer 1
10
270.789240
20
79.350288
11
271.008603
21
78.258381
0
LINE
8
Layer 1
10
271.008603
20
78.258381
11
271.008603
21
2.832488
0
LINE
8
Layer 1
10
271.008603
20
2.832488
11
270.789240
21
1.740565
0
LINE
8
Layer 1
10
270.789240
20
1.740565
11
270.190301
21
0.850778
0
LINE
8
Layer 1
10
270.190301
20
0.850778
11
269.300512
21
0.251845
0
LINE
8
Layer 1
10
269.300512
20
0.251845
11
268.208601
21
0.032485
0
LINE
8
Layer 1
10
268.208601
20
0.032485
11
2.833272
21
0.032485
0
LINE
8
Layer 1
10
2.833272
20
0.032485
11
1.741360
21
0.251845
0
LINE
8
Layer 1
10
1.741360
20
0.251845
11
0.851574
21
0.850778
0
LINE
8
Layer 1
10
0.851574
20
0.850778
11
0.252637
21
1.740565
0
LINE
8
Layer 1
10
0.252637
20
1.740565
11
0.033275
21
2.832488
0
LINE
8
Layer 1
10
0.033275
20
2.832488
11
0.033275
21
78.258381
0
LINE
8
Layer 1
10
0.033275
20
78.258381
11
0.252637
21
79.350288
0
LINE
8
Layer 1
10
0.252637
20
79.350288
11
0.851574
21
80.240068
0
LINE
8
Layer 1
10
0.851574
20
80.240068
11
1.741360
21
80.838998
0
LINE
8
Layer 1
10
1.741360
20
80.838998
11
2.833272
21
81.058357
0
LINE
8
Layer 1
10
2.833272
20
81.058357
11
2.833272
21
81.058357
0
LINE
8
Layer 1
10
41.392700
20
59.490900
11
41.304065
21
59.068890
0
LINE
8
Layer 1
10
41.304065
20
59.068890
11
41.064617
21
58.718318
0
LINE
8
Layer 1
10
41.064617
20
58.718318
11
40.714045
21
58.478870
0
LINE
8
Layer 1
10
40.714045
20
58.478870
11
40.292035
21
58.390235
0
LINE
8
Layer 1
10
40.292035
20
58.390235
11
39.845551
21
58.478870
0
LINE
8
Layer 1
10
39.845551
20
58.478870
11
39.482411
21
58.718318
0
LINE
8
Layer 1
10
39.482411
20
58.718318
11
39.238333
21
59.068890
0
LINE
8
Layer 1
10
39.238333
20
59.068890
11
39.149036
21
59.490900
0
LINE
8
Layer 1
10
39.149036
20
59.490900
11
39.238333
21
59.937384
0
LINE
8
Layer 1
10
39.238333
20
59.937384
11
39.482411
21
60.300524
0
LINE
8
Layer 1
10
39.482411
20
60.300524
11
39.845551
21
60.544602
0
LINE
8
Layer 1
10
39.845551
20
60.544602
11
40.292035
21
60.633899
0
LINE
8
Layer 1
10
40.292035
20
60.633899
11
40.714045
21
60.544602
0
LINE
8
Layer 1
10
40.714045
20
60.544602
11
41.064617
21
60.300524
0
LINE
8
Layer 1
10
41.064617
20
60.300524
11
41.304065
21
59.937384
0
LINE
8
Layer 1
10
41.304065
20
59.937384
11
41.392700
21
59.490900
0
LINE
8
Layer 1
10
41.392700
20
59.490900
11
41.392700
21
59.490900
0
LINE
8
Layer 1
10
41.350400
20
21.475700
11
41.261765
21
21.053690
0
LINE
8
Layer 1
10
41.261765
20
21.053690
11
41.022317
21
20.703118
0
LINE
8
Layer 1
10
41.022317
20
20.703118
11
40.671745
21
20.463670
0
LINE
8
Layer 1
10
40.671745
20
20.463670
11
40.249735
21
20.375035
0
LINE
8
Layer 1
10
40.249735
20
20.375035
11
39.803251
21
20.463670
0
LINE
8
Layer 1
10
39.803251
20
20.463670
11
39.440111
21
20.703118
0
LINE
8
Layer 1
10
39.440111
20
20.703118
11
39.196033
21
21.053690
0
LINE
8
Layer 1
10
39.196033
20
21.053690
11
39.106736
21
21.475700
0
LINE
8
Layer 1
10
39.106736
20
21.475700
11
39.196033
21
21.922184
0
LINE
8
Layer 1
10
39.196033
20
21.922184
11
39.440111
21
22.285324
0
LINE
8
Layer 1
10
39.440111
20
22.285324
11
39.803251
21
22.529402
0
LINE
8
Layer 1
10
39.803251
20
22.529402
11
40.249735
21
22.618699
0
LINE
8
Layer 1
10
40.249735
20
22.618699
11
40.671745
21
22.529402
0
LINE
8
Layer 1
10
40.671745
20
22.529402
11
41.022317
21
22.285324
0
LINE
8
Layer 1
10
41.022317
20
22.285324
11
41.261765
21
21.922184
0
LINE
8
Layer 1
10
41.261765
20
21.922184
11
41.350400
21
21.475700
0
LINE
8
Layer 1
10
41.350400
20
21.475700
11
41.350400
21
21.475700
0
LINE
8
Layer 1
10
121.149000
20
75.069600
11
121.060365
21
74.647590
0
LINE
8
Layer 1
10
121.060365
20
74.647590
11
120.820917
21
74.297018
0
LINE
8
Layer 1
10
120.820917
20
74.297018
11
120.470345
21
74.057570
0
LINE
8
Layer 1
10
120.470345
20
74.057570
11
120.048335
21
73.968935
0
LINE
8
Layer 1
10
120.048335
20
73.968935
11
119.601851
21
74.057570
0
LINE
8
Layer 1
10
119.601851
20
74.057570
11
119.238711
21
74.297018
0
LINE
8
Layer 1
10
119.238711
20
74.297018
11
118.994633
21
74.647590
0
LINE
8
Layer 1
10
118.994633
20
74.647590
11
118.905336
21
75.069600
0
LINE
8
Layer 1
10
118.905336
20
75.069600
11
118.994633
21
75.516084
0
LINE
8
Layer 1
10
118.994633
20
75.516084
11
119.238711
21
75.879224
0
LINE
8
Layer 1
10
119.238711
20
75.879224
11
119.601851
21
76.123302
0
LINE
8
Layer 1
10
119.601851
20
76.123302
11
120.048335
21
76.212599
0
LINE
8
Layer 1
10
120.048335
20
76.212599
11
120.470345
21
76.123302
0
LINE
8
Layer 1
10
120.470345
20
76.123302
11
120.820917
21
75.879224
0
LINE
8
Layer 1
10
120.820917
20
75.879224
11
121.060365
21
75.516084
0
LINE
8
Layer 1
10
121.060365
20
75.516084
11
121.149000
21
75.069600
0
LINE
8
Layer 1
10
121.149000
20
75.069600
11
121.149000
21
75.069600
0
LINE
8
Layer 1
10
121.149000
20
25.031700
11
121.060365
21
24.609690
0
LINE
8
Layer 1
10
121.060365
20
24.609690
11
120.820917
21
24.259118
0
LINE
8
Layer 1
10
120.820917
20
24.259118
11
120.470345
21
24.019670
0
LINE
8
Layer 1
10
120.470345
20
24.019670
11
120.048335
21
23.931035
0
LINE
8
Layer 1
10
120.048335
20
23.931035
11
119.601851
21
24.019670
0
LINE
8
Layer 1
10
119.601851
20
24.019670
11
119.238711
21
24.259118
0
LINE
8
Layer 1
10
119.238711
20
24.259118
11
118.994633
21
24.609690
0
LINE
8
Layer 1
10
118.994633
20
24.609690
11
118.905336
21
25.031700
0
LINE
8
Layer 1
10
118.905336
20
25.031700
11
118.994633
21
25.478184
0
LINE
8
Layer 1
10
118.994633
20
25.478184
11
119.238711
21
25.841324
0
LINE
8
Layer 1
10
119.238711
20
25.841324
11
119.601851
21
26.085402
0
LINE
8
Layer 1
10
119.601851
20
26.085402
11
120.048335
21
26.174699
0
LINE
8
Layer 1
10
120.048335
20
26.174699
11
120.470345
21
26.085402
0
LINE
8
Layer 1
10
120.470345
20
26.085402
11
120.820917
21
25.841324
0
LINE
8
Layer 1
10
120.820917
20
25.841324
11
121.060365
21
25.478184
0
LINE
8
Layer 1
10
121.060365
20
25.478184
11
121.149000
21
25.031700
0
LINE
8
Layer 1
10
121.149000
20
25.031700
11
121.149000
21
25.031700
0
LINE
8
Layer 1
10
152.094000
20
25.074000
11
152.005365
21
24.651990
0
LINE
8
Layer 1
10
152.005365
20
24.651990
11
151.765917
21
24.301418
0
LINE
8
Layer 1
10
151.765917
20
24.301418
11
151.415345
21
24.061970
0
LINE
8
Layer 1
10
151.415345
20
24.061970
11
150.993335
21
23.973335
0
LINE
8
Layer 1
10
150.993335
20
23.973335
11
150.546851
21
24.061970
0
LINE
8
Layer 1
10
150.546851
20
24.061970
11
150.183711
21
24.301418
0
LINE
8
Layer 1
10
150.183711
20
24.301418
11
149.939633
21
24.651990
0
LINE
8
Layer 1
10
149.939633
20
24.651990
11
149.850336
21
25.074000
0
LINE
8
Layer 1
10
149.850336
20
25.074000
11
149.939633
21
25.520484
0
LINE
8
Layer 1
10
149.939633
20
25.520484
11
150.183711
21
25.883624
0
LINE
8
Layer 1
10
150.183711
20
25.883624
11
150.546851
21
26.127702
0
LINE
8
Layer 1
10
150.546851
20
26.127702
11
150.993335
21
26.216999
0
LINE
8
Layer 1
10
150.993335
20
26.216999
11
151.415345
21
26.127702
0
LINE
8
Layer 1
10
151.415345
20
26.127702
11
151.765917
21
25.883624
0
LINE
8
Layer 1
10
151.765917
20
25.883624
11
152.005365
21
25.520484
0
LINE
8
Layer 1
10
152.005365
20
25.520484
11
152.094000
21
25.074000
0
LINE
8
Layer 1
10
152.094000
20
25.074000
11
152.094000
21
25.074000
0
LINE
8
Layer 1
10
152.094000
20
75.069600
11
152.005365
21
74.647590
0
LINE
8
Layer 1
10
152.005365
20
74.647590
11
151.765917
21
74.297018
0
LINE
8
Layer 1
10
151.765917
20
74.297018
11
151.415345
21
74.057570
0
LINE
8
Layer 1
10
151.415345
20
74.057570
11
150.993335
21
73.968935
0
LINE
8
Layer 1
10
150.993335
20
73.968935
11
150.546851
21
74.057570
0
LINE
8
Layer 1
10
150.546851
20
74.057570
11
150.183711
21
74.297018
0
LINE
8
Layer 1
10
150.183711
20
74.297018
11
149.939633
21
74.647590
0
LINE
8
Layer 1
10
149.939633
20
74.647590
11
149.850336
21
75.069600
0
LINE
8
Layer 1
10
149.850336
20
75.069600
11
149.939633
21
75.516084
0
LINE
8
Layer 1
10
149.939633
20
75.516084
11
150.183711
21
75.879224
0
LINE
8
Layer 1
10
150.183711
20
75.879224
11
150.546851
21
76.123302
0
LINE
8
Layer 1
10
150.546851
20
76.123302
11
150.993335
21
76.212599
0
LINE
8
Layer 1
10
150.993335
20
76.212599
11
151.415345
21
76.123302
0
LINE
8
Layer 1
10
151.415345
20
76.123302
11
151.765917
21
75.879224
0
LINE
8
Layer 1
10
151.765917
20
75.879224
11
152.005365
21
75.516084
0
LINE
8
Layer 1
10
152.005365
20
75.516084
11
152.094000
21
75.069600
0
LINE
8
Layer 1
10
152.094000
20
75.069600
11
152.094000
21
75.069600
0
LINE
8
Layer 1
10
231.850000
20
59.617900
11
231.761365
21
59.195890
0
LINE
8
Layer 1
10
231.761365
20
59.195890
11
231.521917
21
58.845318
0
LINE
8
Layer 1
10
231.521917
20
58.845318
11
231.171345
21
58.605870
0
LINE
8
Layer 1
10
231.171345
20
58.605870
11
230.749335
21
58.517235
0
LINE
8
Layer 1
10
230.749335
20
58.517235
11
230.302851
21
58.605870
0
LINE
8
Layer 1
10
230.302851
20
58.605870
11
229.939711
21
58.845318
0
LINE
8
Layer 1
10
229.939711
20
58.845318
11
229.695633
21
59.195890
0
LINE
8
Layer 1
10
229.695633
20
59.195890
11
229.606336
21
59.617900
0
LINE
8
Layer 1
10
229.606336
20
59.617900
11
229.695633
21
60.064384
0
LINE
8
Layer 1
10
229.695633
20
60.064384
11
229.939711
21
60.427524
0
LINE
8
Layer 1
10
229.939711
20
60.427524
11
230.302851
21
60.671602
0
LINE
8
Layer 1
10
230.302851
20
60.671602
11
230.749335
21
60.760899
0
LINE
8
Layer 1
10
230.749335
20
60.760899
11
231.171345
21
60.671602
0
LINE
8
Layer 1
10
231.171345
20
60.671602
11
231.521917
21
60.427524
0
LINE
8
Layer 1
10
231.521917
20
60.427524
11
231.761365
21
60.064384
0
LINE
8
Layer 1
10
231.761365
20
60.064384
11
231.850000
21
59.617900
0
LINE
8
Layer 1
10
231.850000
20
59.617900
11
231.850000
21
59.617900
0
LINE
8
Layer 1
10
231.639000
20
21.475700
11
231.550365
21
21.053690
0
LINE
8
Layer 1
10
231.550365
20
21.053690
11
231.310917
21
20.703118
0
LINE
8
Layer 1
10
231.310917
20
20.703118
11
230.960345
21
20.463670
0
LINE
8
Layer 1
10
230.960345
20
20.463670
11
230.538335
21
20.375035
0
LINE
8
Layer 1
10
230.538335
20
20.375035
11
230.091851
21
20.463670
0
LINE
8
Layer 1
10
230.091851
20
20.463670
11
229.728711
21
20.703118
0
LINE
8
Layer 1
10
229.728711
20
20.703118
11
229.484633
21
21.053690
0
LINE
8
Layer 1
10
229.484633
20
21.053690
11
229.395336
21
21.475700
0
LINE
8
Layer 1
10
229.395336
20
21.475700
11
229.484633
21
21.922184
0
LINE
8
Layer 1
10
229.484633
20
21.922184
11
229.728711
21
22.285324
0
LINE
8
Layer 1
10
229.728711
20
22.285324
11
230.091851
21
22.529402
0
LINE
8
Layer 1
10
230.091851
20
22.529402
11
230.538335
21
22.618699
0
LINE
8
Layer 1
10
230.538335
20
22.618699
11
230.960345
21
22.529402
0
LINE
8
Layer 1
10
230.960345
20
22.529402
11
231.310917
21
22.285324
0
LINE
8
Layer 1
10
231.310917
20
22.285324
11
231.550365
21
21.922184
0
LINE
8
Layer 1
10
231.550365
20
21.922184
11
231.639000
21
21.475700
0
LINE
8
Layer 1
10
231.639000
20
21.475700
11
231.639000
21
21.475700
 0 
ENDSEC
 0 
EOF