<?xml version="1.0" encoding="UTF-8" standalone="no"?>
<!-- Created with Inkscape (http://www.inkscape.org/) -->

<svg
   width="271.27567mm"
   height="81.325989mm"
   viewBox="0 0 271.27567 81.325989"
   version="1.1"
   id="svg1"
   style="background-color:white"
   inkscape:version="1.3 (0e150ed6c4, 2023-07-21)"
   sodipodi:docname="bottom_middle_plate.svg"
   xmlns:inkscape="http://www.inkscape.org/namespaces/inkscape"
   xmlns:sodipodi="http://sodipodi.sourceforge.net/DTD/sodipodi-0.dtd"
   xmlns="http://www.w3.org/2000/svg"
   xmlns:svg="http://www.w3.org/2000/svg">
  <sodipodi:namedview
     id="namedview1"
     pagecolor="#505050"
     bordercolor="#eeeeee"
     borderopacity="1"
     inkscape:showpageshadow="0"
     inkscape:pageopacity="0"
     inkscape:pagecheckerboard="0"
     inkscape:deskcolor="#d1d1d1"
     inkscape:document-units="mm"
     inkscape:zoom="0.67704826"
     inkscape:cx="374.41939"
     inkscape:cy="459.34687"
     inkscape:window-width="1920"
     inkscape:window-height="991"
     inkscape:window-x="-9"
     inkscape:window-y="-9"
     inkscape:window-maximized="1"
     inkscape:current-layer="layer1" />
  <defs
     id="defs1" />
  <g
     inkscape:label="Katman 1"
     inkscape:groupmode="layer"
     id="layer1"
     transform="translate(-5.852843,-313.81513)">
    <g
       id="g26646"
       transform="translate(-235.42245,-376.69564)">
      <rect
         style="fill:none;stroke:#000000;stroke-width:0.3;stroke-linecap:square;stroke-linejoin:bevel;stroke-dasharray:none;stroke-opacity:1;stop-color:#000000"
         id="rect10032-4"
         width="270.97568"
         height="81.025986"
         x="241.42529"
         y="690.66077"
         rx="2.8"
         ry="2.8" />
      <path
         id="rect68893-7-94-4"
         style="fill:none;stroke:#000000;stroke-width:0.3;stroke-linecap:square;stroke-linejoin:bevel;stroke-dasharray:none;stop-color:#000000"
         d="m 246.34601,752.5467 c -0.0331,0 -0.063,0.01 -0.0904,0.0238 h -0.5767 c -0.1108,0 -0.19999,0.0892 -0.19999,0.19999 v 3.45664 c 0,0.1108 0.0892,0.19999 0.19999,0.19999 h 0.46663 v 7.81657 h -0.46663 c -0.1108,0 -0.19999,0.0892 -0.19999,0.19999 v 2.46445 c 0,0.1108 0.0892,0.19999 0.19999,0.19999 h 7.33133 c 0.1108,0 0.19999,-0.0892 0.19999,-0.19999 v -0.39171 h 6.65799 c 0.1108,0 0.19999,-0.0892 0.19999,-0.19998 v -7.64605 h 1.77973 c 0.1108,0 0.19999,-0.0892 0.19999,-0.19999 v -2.95796 c 0,-0.1108 -0.0892,-0.19999 -0.19999,-0.19999 h -1.77973 v -2.56573 c 0,-0.1108 -0.0892,-0.19999 -0.19999,-0.19999 z" />
      <path
         d="m 493.17943,712.11837 c 0,1.10067 -0.889,1.98967 -1.98967,1.98967 -1.143,0 -2.032,-0.889 -2.032,-1.98967 0,-1.143 0.889,-2.032 2.032,-2.032 1.10067,0 1.98967,0.889 1.98967,2.032 z"
         style="fill:none;fill-opacity:1;fill-rule:nonzero;stroke:#000000;stroke-width:0.3;stroke-dasharray:none;stroke-opacity:1"
         id="path41704-9" />
      <path
         d="m 493.13709,750.17603 c 0,1.10067 -0.889,1.98967 -1.98967,1.98967 -1.143,0 -2.032,-0.889 -2.032,-1.98967 0,-1.143 0.889,-2.032 2.032,-2.032 1.10067,0 1.98967,0.889 1.98967,2.032 z"
         style="fill:none;fill-opacity:1;fill-rule:nonzero;stroke:#000000;stroke-width:0.3;stroke-dasharray:none;stroke-opacity:1"
         id="path42084-9" />
      <path
         d="m 416.9371,712.11837 c 0,1.10067 -0.889,1.98967 -1.98967,1.98967 -1.143,0 -2.032,-0.889 -2.032,-1.98967 0,-1.143 0.889,-2.032 2.032,-2.032 1.10067,0 1.98967,0.889 1.98967,2.032 z"
         style="fill:none;fill-opacity:1;fill-rule:nonzero;stroke:#000000;stroke-width:0.3;stroke-dasharray:none;stroke-opacity:1"
         id="path42204-7" />
      <path
         d="m 416.9371,750.21838 c 0,1.10067 -0.889,1.98967 -1.98967,1.98967 -1.143,0 -2.032,-0.889 -2.032,-1.98967 0,-1.143 0.889,-2.032 2.032,-2.032 1.10067,0 1.98967,0.889 1.98967,2.032 z"
         style="fill:none;fill-opacity:1;fill-rule:nonzero;stroke:#000000;stroke-width:0.3;stroke-dasharray:none;stroke-opacity:1"
         id="path42344-8" />
      <path
         d="m 340.82177,750.21838 c 0,1.10067 -0.889,1.98967 -1.98967,1.98967 -1.143,0 -2.032,-0.889 -2.032,-1.98967 0,-1.143 0.889,-2.032 2.032,-2.032 1.10067,0 1.98967,0.889 1.98967,2.032 z"
         style="fill:none;fill-opacity:1;fill-rule:nonzero;stroke:#000000;stroke-width:0.3;stroke-dasharray:none;stroke-opacity:1"
         id="path42532-9" />
      <path
         d="m 264.62176,712.11837 c 0,1.10067 -0.889,1.98967 -1.98967,1.98967 -1.143,0 -2.032,-0.889 -2.032,-1.98967 0,-1.143 0.889,-2.032 2.032,-2.032 1.10067,0 1.98967,0.889 1.98967,2.032 z"
         style="fill:none;fill-opacity:1;fill-rule:nonzero;stroke:#000000;stroke-width:0.3;stroke-dasharray:none;stroke-opacity:1"
         id="path42660-2" />
      <path
         d="m 340.82177,712.11837 c 0,1.10067 -0.889,1.98967 -1.98967,1.98967 -1.143,0 -2.032,-0.889 -2.032,-1.98967 0,-1.143 0.889,-2.032 2.032,-2.032 1.10067,0 1.98967,0.889 1.98967,2.032 z"
         style="fill:none;fill-opacity:1;fill-rule:nonzero;stroke:#000000;stroke-width:0.3;stroke-dasharray:none;stroke-opacity:1"
         id="path42888-1" />
      <path
         d="m 363.42776,696.6667 c 0,1.10067 -0.889,1.98967 -1.98967,1.98967 -1.143,0 -2.032,-0.889 -2.032,-1.98967 0,-1.143 0.889,-2.032 2.032,-2.032 1.10067,0 1.98967,0.889 1.98967,2.032 z"
         style="fill:none;fill-opacity:1;fill-rule:nonzero;stroke:#000000;stroke-width:0.3;stroke-dasharray:none;stroke-opacity:1"
         id="path42888-9-9" />
      <path
         d="m 264.62176,750.2607 c 0,1.10067 -0.889,1.98967 -1.98967,1.98967 -1.143,0 -2.032,-0.889 -2.032,-1.98967 0,-1.143 0.889,-2.032 2.032,-2.032 1.10067,0 1.98967,0.889 1.98967,2.032 z"
         style="fill:none;fill-opacity:1;fill-rule:nonzero;stroke:#000000;stroke-width:0.3;stroke-dasharray:none;stroke-opacity:1"
         id="path42972-5" />
      <path
         id="rect68893-7-28"
         style="fill:none;stroke:#000000;stroke-width:0.3;stroke-linecap:square;stroke-linejoin:bevel;stroke-dasharray:none;stop-color:#000000"
         d="m 246.34601,695.60837 c -0.0331,0 -0.063,0.01 -0.0904,0.0238 h -0.5767 c -0.1108,0 -0.19999,0.0892 -0.19999,0.19999 v 3.45664 c 0,0.1108 0.0892,0.19999 0.19999,0.19999 h 0.46663 v 7.81657 h -0.46663 c -0.1108,0 -0.19999,0.0892 -0.19999,0.19999 v 2.46445 c 0,0.1108 0.0892,0.19999 0.19999,0.19999 h 7.33133 c 0.1108,0 0.19999,-0.0892 0.19999,-0.19999 v -0.39171 h 6.65799 c 0.1108,0 0.19999,-0.0892 0.19999,-0.19999 v -7.64604 h 1.77973 c 0.1108,0 0.19999,-0.0892 0.19999,-0.19999 v -2.95796 c 0,-0.1108 -0.0892,-0.19999 -0.19999,-0.19999 h -1.77973 v -2.56573 c 0,-0.1108 -0.0892,-0.19999 -0.19999,-0.19999 z" />
      <path
         id="rect68893-7-2-6"
         style="fill:none;stroke:#000000;stroke-width:0.3;stroke-linecap:square;stroke-linejoin:bevel;stroke-dasharray:none;stop-color:#000000"
         d="m 265.41718,695.92523 c -0.0331,0 -0.063,0.01 -0.0904,0.0238 h -0.57671 c -0.11079,0 -0.19998,0.0892 -0.19998,0.19998 v 3.45664 c 0,0.1108 0.0892,0.19999 0.19998,0.19999 h 0.46664 v 7.81657 h -0.46664 c -0.11079,0 -0.19998,0.0892 -0.19998,0.19999 v 2.46445 c 0,0.1108 0.0892,0.19999 0.19998,0.19999 h 7.33134 c 0.1108,0 0.19998,-0.0892 0.19998,-0.19999 v -0.3917 h 6.658 c 0.1108,0 0.19999,-0.0892 0.19999,-0.19999 v -7.64605 h 1.77973 c 0.1108,0 0.19999,-0.0892 0.19999,-0.19999 v -2.95796 c 0,-0.1108 -0.0892,-0.19998 -0.19999,-0.19998 h -1.77973 v -2.56574 c 0,-0.1108 -0.0892,-0.19998 -0.19999,-0.19998 z" />
      <path
         id="rect68893-7-0-2"
         style="fill:none;stroke:#000000;stroke-width:0.3;stroke-linecap:square;stroke-linejoin:bevel;stroke-dasharray:none;stop-color:#000000"
         d="m 284.46718,695.60837 c -0.0331,0 -0.063,0.01 -0.0904,0.0238 h -0.57671 c -0.11079,0 -0.19998,0.0892 -0.19998,0.19999 v 3.45664 c 0,0.1108 0.0892,0.19999 0.19998,0.19999 h 0.46664 v 7.81657 h -0.46664 c -0.11079,0 -0.19998,0.0892 -0.19998,0.19999 v 2.46445 c 0,0.1108 0.0892,0.19999 0.19998,0.19999 h 7.33134 c 0.1108,0 0.19998,-0.0892 0.19998,-0.19999 v -0.39171 h 6.658 c 0.1108,0 0.19999,-0.0892 0.19999,-0.19999 v -7.64604 h 1.77973 c 0.1108,0 0.19999,-0.0892 0.19999,-0.19999 v -2.95796 c 0,-0.1108 -0.0892,-0.19999 -0.19999,-0.19999 h -1.77973 v -2.56573 c 0,-0.1108 -0.0892,-0.19999 -0.19999,-0.19999 z" />
      <path
         id="rect68893-7-4-2"
         style="fill:none;stroke:#000000;stroke-width:0.3;stroke-linecap:square;stroke-linejoin:bevel;stroke-dasharray:none;stop-color:#000000"
         d="m 303.51718,695.60837 c -0.0331,0 -0.063,0.01 -0.0904,0.0238 h -0.57671 c -0.11079,0 -0.19998,0.0892 -0.19998,0.19999 v 3.45664 c 0,0.1108 0.0892,0.19999 0.19998,0.19999 h 0.46664 v 7.81657 h -0.46664 c -0.11079,0 -0.19998,0.0892 -0.19998,0.19999 v 2.46445 c 0,0.1108 0.0892,0.19999 0.19998,0.19999 h 7.33134 c 0.1108,0 0.19998,-0.0892 0.19998,-0.19999 v -0.39171 h 6.658 c 0.1108,0 0.19999,-0.0892 0.19999,-0.19999 v -7.64604 h 1.77973 c 0.1108,0 0.19999,-0.0892 0.19999,-0.19999 v -2.95796 c 0,-0.1108 -0.0892,-0.19999 -0.19999,-0.19999 h -1.77973 v -2.56573 c 0,-0.1108 -0.0892,-0.19999 -0.19999,-0.19999 z" />
      <path
         id="rect68893-7-47-5"
         style="fill:none;stroke:#000000;stroke-width:0.3;stroke-linecap:square;stroke-linejoin:bevel;stroke-dasharray:none;stop-color:#000000"
         d="m 322.56718,695.60837 c -0.0331,0 -0.063,0.01 -0.0904,0.0238 h -0.57671 c -0.11079,0 -0.19998,0.0892 -0.19998,0.19999 v 3.45664 c 0,0.1108 0.0892,0.19999 0.19998,0.19999 h 0.46664 v 7.81657 h -0.46664 c -0.11079,0 -0.19998,0.0892 -0.19998,0.19999 v 2.46445 c 0,0.1108 0.0892,0.19999 0.19998,0.19999 h 7.33134 c 0.1108,0 0.19998,-0.0892 0.19998,-0.19999 v -0.39171 h 6.658 c 0.1108,0 0.19998,-0.0892 0.19998,-0.19999 v -7.64604 h 1.77974 c 0.1108,0 0.19999,-0.0892 0.19999,-0.19999 v -2.95796 c 0,-0.1108 -0.0892,-0.19999 -0.19999,-0.19999 h -1.77974 v -2.56573 c 0,-0.1108 -0.0892,-0.19999 -0.19998,-0.19999 z" />
      <path
         id="rect68893-7-8-6"
         style="fill:none;stroke:#000000;stroke-width:0.3;stroke-linecap:square;stroke-linejoin:bevel;stroke-dasharray:none;stop-color:#000000"
         d="m 341.61718,695.60837 c -0.0331,0 -0.063,0.01 -0.0904,0.0238 h -0.57671 c -0.11079,0 -0.19998,0.0892 -0.19998,0.19999 v 3.45664 c 0,0.1108 0.0892,0.19999 0.19998,0.19999 h 0.46664 v 7.81657 h -0.46664 c -0.11079,0 -0.19998,0.0892 -0.19998,0.19999 v 2.46445 c 0,0.1108 0.0892,0.19999 0.19998,0.19999 h 7.33134 c 0.11079,0 0.19998,-0.0892 0.19998,-0.19999 v -0.39171 h 6.658 c 0.1108,0 0.19998,-0.0892 0.19998,-0.19999 v -7.64604 h 1.77974 c 0.1108,0 0.19999,-0.0892 0.19999,-0.19999 v -2.95796 c 0,-0.1108 -0.0892,-0.19999 -0.19999,-0.19999 h -1.77974 v -2.56573 c 0,-0.1108 -0.0892,-0.19999 -0.19998,-0.19999 z" />
      <path
         id="rect68893-7-9-6"
         style="fill:none;stroke:#000000;stroke-width:0.3;stroke-linecap:square;stroke-linejoin:bevel;stroke-dasharray:none;stop-color:#000000"
         d="m 398.72484,695.60837 c -0.0331,0 -0.063,0.01 -0.0904,0.0238 h -0.57671 c -0.1108,0 -0.19998,0.0892 -0.19998,0.19999 v 3.45664 c 0,0.1108 0.0892,0.19999 0.19998,0.19999 h 0.46664 v 7.81657 h -0.46664 c -0.1108,0 -0.19998,0.0892 -0.19998,0.19999 v 2.46445 c 0,0.1108 0.0892,0.19999 0.19998,0.19999 h 7.33134 c 0.11079,0 0.19998,-0.0892 0.19998,-0.19999 v -0.39171 h 6.658 c 0.1108,0 0.19998,-0.0892 0.19998,-0.19999 v -7.64604 h 1.77974 c 0.1108,0 0.19999,-0.0892 0.19999,-0.19999 v -2.95796 c 0,-0.1108 -0.0892,-0.19999 -0.19999,-0.19999 h -1.77974 v -2.56573 c 0,-0.1108 -0.0892,-0.19999 -0.19998,-0.19999 z" />
      <path
         id="rect68893-7-3-6"
         style="fill:none;stroke:#000000;stroke-width:0.3;stroke-linecap:square;stroke-linejoin:bevel;stroke-dasharray:none;stop-color:#000000"
         d="m 417.77484,695.60837 c -0.0331,0 -0.063,0.01 -0.0904,0.0238 h -0.57671 c -0.11079,0 -0.19998,0.0892 -0.19998,0.19999 v 3.45664 c 0,0.1108 0.0892,0.19999 0.19998,0.19999 h 0.46664 v 7.81657 h -0.46664 c -0.11079,0 -0.19998,0.0892 -0.19998,0.19999 v 2.46445 c 0,0.1108 0.0892,0.19999 0.19998,0.19999 h 7.33134 c 0.1108,0 0.19998,-0.0892 0.19998,-0.19999 v -0.39171 h 6.658 c 0.1108,0 0.19999,-0.0892 0.19999,-0.19999 v -7.64604 h 1.77973 c 0.11081,0 0.2,-0.0892 0.2,-0.19999 v -2.95796 c 0,-0.1108 -0.0892,-0.19999 -0.2,-0.19999 H 431.497 v -2.56573 c 0,-0.1108 -0.0892,-0.19999 -0.19999,-0.19999 z" />
      <path
         id="rect68893-7-6-9"
         style="fill:none;stroke:#000000;stroke-width:0.3;stroke-linecap:square;stroke-linejoin:bevel;stroke-dasharray:none;stop-color:#000000"
         d="m 436.80368,695.60837 c -0.0331,0 -0.063,0.01 -0.0904,0.0238 h -0.57671 c -0.1108,0 -0.2,0.0892 -0.2,0.19999 v 3.45664 c 0,0.1108 0.0892,0.19999 0.2,0.19999 h 0.46662 v 7.81657 h -0.46662 c -0.1108,0 -0.2,0.0892 -0.2,0.19999 v 2.46445 c 0,0.1108 0.0892,0.19999 0.2,0.19999 h 7.33134 c 0.11078,0 0.19997,-0.0892 0.19997,-0.19999 v -0.39171 h 6.658 c 0.11081,0 0.2,-0.0892 0.2,-0.19999 v -7.64604 h 1.77972 c 0.11081,0 0.2,-0.0892 0.2,-0.19999 v -2.95796 c 0,-0.1108 -0.0892,-0.19999 -0.2,-0.19999 h -1.77972 v -2.56573 c 0,-0.1108 -0.0892,-0.19999 -0.2,-0.19999 z" />
      <path
         id="rect68893-7-61-4"
         style="fill:none;stroke:#000000;stroke-width:0.3;stroke-linecap:square;stroke-linejoin:bevel;stroke-dasharray:none;stop-color:#000000"
         d="m 455.87484,695.60837 c -0.0331,0 -0.063,0.01 -0.0904,0.0238 h -0.57671 c -0.11081,0 -0.2,0.0892 -0.2,0.19999 v 3.45664 c 0,0.1108 0.0892,0.19999 0.2,0.19999 h 0.46664 v 7.81657 h -0.46664 c -0.11081,0 -0.2,0.0892 -0.2,0.19999 v 2.46445 c 0,0.1108 0.0892,0.19999 0.2,0.19999 h 7.33134 c 0.11078,0 0.19997,-0.0892 0.19997,-0.19999 v -0.39171 h 6.658 c 0.11081,0 0.2,-0.0892 0.2,-0.19999 v -7.64604 h 1.77972 c 0.11081,0 0.2,-0.0892 0.2,-0.19999 v -2.95796 c 0,-0.1108 -0.0892,-0.19999 -0.2,-0.19999 h -1.77972 v -2.56573 c 0,-0.1108 -0.0892,-0.19999 -0.2,-0.19999 z" />
      <path
         id="rect68893-7-5-3"
         style="fill:none;stroke:#000000;stroke-width:0.3;stroke-linecap:square;stroke-linejoin:bevel;stroke-dasharray:none;stop-color:#000000"
         d="m 474.92484,695.60837 c -0.0331,0 -0.063,0.01 -0.0904,0.0238 h -0.57671 c -0.11081,0 -0.2,0.0892 -0.2,0.19999 v 3.45664 c 0,0.1108 0.0892,0.19999 0.2,0.19999 h 0.46664 v 7.81657 h -0.46664 c -0.11081,0 -0.2,0.0892 -0.2,0.19999 v 2.46445 c 0,0.1108 0.0892,0.19999 0.2,0.19999 h 7.33134 c 0.11078,0 0.19997,-0.0892 0.19997,-0.19999 v -0.39171 h 6.658 c 0.11081,0 0.2,-0.0892 0.2,-0.19999 v -7.64604 h 1.77972 c 0.1108,0 0.2,-0.0892 0.2,-0.19999 v -2.95796 c 0,-0.1108 -0.0892,-0.19999 -0.2,-0.19999 h -1.77972 v -2.56573 c 0,-0.1108 -0.0892,-0.19999 -0.2,-0.19999 z" />
      <path
         id="rect68893-7-1-2"
         style="fill:none;stroke:#000000;stroke-width:0.3;stroke-linecap:square;stroke-linejoin:bevel;stroke-dasharray:none;stop-color:#000000"
         d="m 493.97484,695.60837 c -0.0331,0 -0.063,0.01 -0.0904,0.0238 h -0.57671 c -0.11081,0 -0.2,0.0892 -0.2,0.19999 v 3.45664 c 0,0.1108 0.0892,0.19999 0.2,0.19999 h 0.46664 v 7.81657 h -0.46664 c -0.11081,0 -0.2,0.0892 -0.2,0.19999 v 2.46445 c 0,0.1108 0.0892,0.19999 0.2,0.19999 h 7.33134 c 0.11078,0 0.19997,-0.0892 0.19997,-0.19999 v -0.39171 h 6.658 c 0.11081,0 0.2,-0.0892 0.2,-0.19999 v -7.64604 h 1.77972 c 0.1108,0 0.2,-0.0892 0.2,-0.19999 v -2.95796 c 0,-0.1108 -0.0892,-0.19999 -0.2,-0.19999 h -1.77972 v -2.56573 c 0,-0.1108 -0.0892,-0.19999 -0.2,-0.19999 z" />
      <path
         id="rect68893-7-42-8"
         style="fill:none;stroke:#000000;stroke-width:0.3;stroke-linecap:square;stroke-linejoin:bevel;stroke-dasharray:none;stop-color:#000000"
         d="m 246.34601,714.65837 c -0.0331,0 -0.063,0.01 -0.0904,0.0238 h -0.5767 c -0.1108,0 -0.19999,0.0892 -0.19999,0.19999 v 3.45664 c 0,0.1108 0.0892,0.19998 0.19999,0.19998 h 0.46663 v 7.81658 h -0.46663 c -0.1108,0 -0.19999,0.0892 -0.19999,0.19999 v 2.46445 c 0,0.1108 0.0892,0.19999 0.19999,0.19999 h 7.33133 c 0.1108,0 0.19999,-0.0892 0.19999,-0.19999 v -0.39171 h 6.65799 c 0.1108,0 0.19999,-0.0892 0.19999,-0.19999 v -7.64604 h 1.77973 c 0.1108,0 0.19999,-0.0892 0.19999,-0.19999 v -2.95796 c 0,-0.1108 -0.0892,-0.19999 -0.19999,-0.19999 h -1.77973 v -2.56573 c 0,-0.1108 -0.0892,-0.19999 -0.19999,-0.19999 z" />
      <path
         id="rect68893-7-26"
         style="fill:none;stroke:#000000;stroke-width:0.3;stroke-linecap:square;stroke-linejoin:bevel;stroke-dasharray:none;stop-color:#000000"
         d="m 246.34601,733.70837 c -0.0331,0 -0.063,0.01 -0.0904,0.0238 h -0.5767 c -0.1108,0 -0.19999,0.0892 -0.19999,0.19998 v 3.45664 c 0,0.1108 0.0892,0.19999 0.19999,0.19999 h 0.46663 v 7.81657 h -0.46663 c -0.1108,0 -0.19999,0.0892 -0.19999,0.19999 v 2.46445 c 0,0.1108 0.0892,0.19999 0.19999,0.19999 h 7.33133 c 0.1108,0 0.19999,-0.0892 0.19999,-0.19999 v -0.3917 h 6.65799 c 0.1108,0 0.19999,-0.0892 0.19999,-0.19999 v -7.64605 h 1.77973 c 0.1108,0 0.19999,-0.0892 0.19999,-0.19999 v -2.95796 c 0,-0.1108 -0.0892,-0.19998 -0.19999,-0.19998 h -1.77973 v -2.56574 c 0,-0.1108 -0.0892,-0.19999 -0.19999,-0.19999 z" />
      <path
         id="rect68893-7-63"
         style="fill:none;stroke:#000000;stroke-width:0.3;stroke-linecap:square;stroke-linejoin:bevel;stroke-dasharray:none;stop-color:#000000"
         d="m 265.39601,714.65837 c -0.0331,0 -0.063,0.01 -0.0904,0.0238 h -0.57671 c -0.1108,0 -0.19999,0.0892 -0.19999,0.19999 v 3.45664 c 0,0.1108 0.0892,0.19998 0.19999,0.19998 h 0.46663 v 7.81658 h -0.46663 c -0.1108,0 -0.19999,0.0892 -0.19999,0.19999 v 2.46445 c 0,0.1108 0.0892,0.19999 0.19999,0.19999 h 7.33133 c 0.1108,0 0.19999,-0.0892 0.19999,-0.19999 v -0.39171 h 6.65799 c 0.1108,0 0.19999,-0.0892 0.19999,-0.19999 v -7.64604 h 1.77973 c 0.1108,0 0.19999,-0.0892 0.19999,-0.19999 v -2.95796 c 0,-0.1108 -0.0892,-0.19999 -0.19999,-0.19999 h -1.77973 v -2.56573 c 0,-0.1108 -0.0892,-0.19999 -0.19999,-0.19999 z" />
      <path
         id="rect68893-7-41"
         style="fill:none;stroke:#000000;stroke-width:0.3;stroke-linecap:square;stroke-linejoin:bevel;stroke-dasharray:none;stop-color:#000000"
         d="m 265.39601,733.70837 c -0.0331,0 -0.063,0.01 -0.0904,0.0238 h -0.57671 c -0.1108,0 -0.19999,0.0892 -0.19999,0.19998 v 3.45664 c 0,0.1108 0.0892,0.19999 0.19999,0.19999 h 0.46663 v 7.81657 h -0.46663 c -0.1108,0 -0.19999,0.0892 -0.19999,0.19999 v 2.46445 c 0,0.1108 0.0892,0.19999 0.19999,0.19999 h 7.33133 c 0.1108,0 0.19999,-0.0892 0.19999,-0.19999 v -0.3917 h 6.65799 c 0.1108,0 0.19999,-0.0892 0.19999,-0.19999 v -7.64605 h 1.77973 c 0.1108,0 0.19999,-0.0892 0.19999,-0.19999 v -2.95796 c 0,-0.1108 -0.0892,-0.19998 -0.19999,-0.19998 h -1.77973 v -2.56574 c 0,-0.1108 -0.0892,-0.19999 -0.19999,-0.19999 z" />
      <path
         id="rect68893-7-38-6"
         style="fill:none;stroke:#000000;stroke-width:0.3;stroke-linecap:square;stroke-linejoin:bevel;stroke-dasharray:none;stop-color:#000000"
         d="m 265.39601,752.75837 c -0.0331,0 -0.063,0.01 -0.0904,0.0237 h -0.57671 c -0.1108,0 -0.19999,0.0892 -0.19999,0.19999 v 3.45664 c 0,0.1108 0.0892,0.19999 0.19999,0.19999 h 0.46663 v 7.81657 h -0.46663 c -0.1108,0 -0.19999,0.0892 -0.19999,0.19999 v 2.46445 c 0,0.1108 0.0892,0.19999 0.19999,0.19999 h 7.33133 c 0.1108,0 0.19999,-0.0892 0.19999,-0.19999 v -0.39171 h 6.65799 c 0.1108,0 0.19999,-0.0892 0.19999,-0.19998 v -7.64605 h 1.77973 c 0.1108,0 0.19999,-0.0892 0.19999,-0.19999 v -2.95796 c 0,-0.1108 -0.0892,-0.19998 -0.19999,-0.19998 h -1.77973 v -2.56574 c 0,-0.1108 -0.0892,-0.19999 -0.19999,-0.19999 z" />
      <path
         id="rect68893-7-74-0"
         style="fill:none;stroke:#000000;stroke-width:0.3;stroke-linecap:square;stroke-linejoin:bevel;stroke-dasharray:none;stop-color:#000000"
         d="m 284.44601,752.75837 c -0.0331,0 -0.063,0.01 -0.0904,0.0237 h -0.5767 c -0.1108,0 -0.19999,0.0892 -0.19999,0.19999 v 3.45664 c 0,0.1108 0.0892,0.19999 0.19999,0.19999 h 0.46663 v 7.81657 h -0.46663 c -0.1108,0 -0.19999,0.0892 -0.19999,0.19999 v 2.46445 c 0,0.1108 0.0892,0.19999 0.19999,0.19999 h 7.33133 c 0.1108,0 0.19999,-0.0892 0.19999,-0.19999 v -0.39171 h 6.65799 c 0.1108,0 0.19999,-0.0892 0.19999,-0.19998 v -7.64605 h 1.77973 c 0.1108,0 0.19999,-0.0892 0.19999,-0.19999 v -2.95796 c 0,-0.1108 -0.0892,-0.19998 -0.19999,-0.19998 h -1.77973 v -2.56574 c 0,-0.1108 -0.0892,-0.19999 -0.19999,-0.19999 z" />
      <path
         id="rect68893-7-60-5"
         style="fill:none;stroke:#000000;stroke-width:0.3;stroke-linecap:square;stroke-linejoin:bevel;stroke-dasharray:none;stop-color:#000000"
         d="m 303.49601,752.75837 c -0.0331,0 -0.063,0.01 -0.0904,0.0237 h -0.57671 c -0.11079,0 -0.19998,0.0892 -0.19998,0.19999 v 3.45664 c 0,0.1108 0.0892,0.19999 0.19998,0.19999 h 0.46664 v 7.81657 h -0.46664 c -0.11079,0 -0.19998,0.0892 -0.19998,0.19999 v 2.46445 c 0,0.1108 0.0892,0.19999 0.19998,0.19999 h 7.33134 c 0.11079,0 0.19998,-0.0892 0.19998,-0.19999 v -0.39171 h 6.658 c 0.1108,0 0.19998,-0.0892 0.19998,-0.19998 v -7.64605 h 1.77974 c 0.1108,0 0.19999,-0.0892 0.19999,-0.19999 v -2.95796 c 0,-0.1108 -0.0892,-0.19998 -0.19999,-0.19998 h -1.77974 v -2.56574 c 0,-0.1108 -0.0892,-0.19999 -0.19998,-0.19999 z" />
      <path
         id="rect68893-7-40-0"
         style="fill:none;stroke:#000000;stroke-width:0.3;stroke-linecap:square;stroke-linejoin:bevel;stroke-dasharray:none;stop-color:#000000"
         d="m 322.54601,752.75837 c -0.0331,0 -0.063,0.01 -0.0904,0.0237 h -0.57671 c -0.11079,0 -0.19998,0.0892 -0.19998,0.19999 v 3.45664 c 0,0.1108 0.0892,0.19999 0.19998,0.19999 h 0.46664 v 7.81657 h -0.46664 c -0.11079,0 -0.19998,0.0892 -0.19998,0.19999 v 2.46445 c 0,0.1108 0.0892,0.19999 0.19998,0.19999 h 7.33134 c 0.11079,0 0.19998,-0.0892 0.19998,-0.19999 v -0.39171 h 6.658 c 0.1108,0 0.19998,-0.0892 0.19998,-0.19998 v -7.64605 h 1.77974 c 0.1108,0 0.19999,-0.0892 0.19999,-0.19999 v -2.95796 c 0,-0.1108 -0.0892,-0.19998 -0.19999,-0.19998 h -1.77974 v -2.56574 c 0,-0.1108 -0.0892,-0.19999 -0.19998,-0.19999 z" />
      <path
         id="rect68893-7-00-7"
         style="fill:none;stroke:#000000;stroke-width:0.3;stroke-linecap:square;stroke-linejoin:bevel;stroke-dasharray:none;stop-color:#000000"
         d="m 341.59601,752.75837 c -0.0331,0 -0.063,0.01 -0.0904,0.0237 h -0.57671 c -0.1108,0 -0.19998,0.0892 -0.19998,0.19999 v 3.45664 c 0,0.1108 0.0892,0.19999 0.19998,0.19999 h 0.46664 v 7.81657 h -0.46664 c -0.1108,0 -0.19998,0.0892 -0.19998,0.19999 v 2.46445 c 0,0.1108 0.0892,0.19999 0.19998,0.19999 h 7.33134 c 0.11079,0 0.19998,-0.0892 0.19998,-0.19999 v -0.39171 h 6.658 c 0.1108,0 0.19998,-0.0892 0.19998,-0.19998 v -7.64605 h 1.77974 c 0.1108,0 0.19999,-0.0892 0.19999,-0.19999 v -2.95796 c 0,-0.1108 -0.0892,-0.19998 -0.19999,-0.19998 h -1.77974 v -2.56574 c 0,-0.1108 -0.0892,-0.19999 -0.19998,-0.19999 z" />
      <path
         id="rect68893-7-10-3"
         style="fill:none;stroke:#000000;stroke-width:0.3;stroke-linecap:square;stroke-linejoin:bevel;stroke-dasharray:none;stop-color:#000000"
         d="m 360.64601,752.75837 c -0.0331,0 -0.063,0.01 -0.0904,0.0237 h -0.57671 c -0.1108,0 -0.19998,0.0892 -0.19998,0.19999 v 3.45664 c 0,0.1108 0.0892,0.19999 0.19998,0.19999 h 0.46664 v 7.81657 h -0.46664 c -0.1108,0 -0.19998,0.0892 -0.19998,0.19999 v 2.46445 c 0,0.1108 0.0892,0.19999 0.19998,0.19999 h 7.33134 c 0.11079,0 0.19998,-0.0892 0.19998,-0.19999 v -0.39171 h 6.658 c 0.1108,0 0.19998,-0.0892 0.19998,-0.19998 v -7.64605 h 1.77974 c 0.1108,0 0.19999,-0.0892 0.19999,-0.19999 v -2.95796 c 0,-0.1108 -0.0892,-0.19998 -0.19999,-0.19998 h -1.77974 v -2.56574 c 0,-0.1108 -0.0892,-0.19999 -0.19998,-0.19999 z" />
      <path
         id="rect68893-7-55-6"
         style="fill:none;stroke:#000000;stroke-width:0.3;stroke-linecap:square;stroke-linejoin:bevel;stroke-dasharray:none;stop-color:#000000"
         d="m 379.69601,752.75837 c -0.0331,0 -0.063,0.01 -0.0904,0.0237 h -0.57671 c -0.1108,0 -0.19998,0.0892 -0.19998,0.19999 v 3.45664 c 0,0.1108 0.0892,0.19999 0.19998,0.19999 h 0.46664 v 7.81657 h -0.46664 c -0.1108,0 -0.19998,0.0892 -0.19998,0.19999 v 2.46445 c 0,0.1108 0.0892,0.19999 0.19998,0.19999 h 7.33134 c 0.11079,0 0.19998,-0.0892 0.19998,-0.19999 v -0.39171 h 6.658 c 0.1108,0 0.19998,-0.0892 0.19998,-0.19998 v -7.64605 h 1.77974 c 0.1108,0 0.19999,-0.0892 0.19999,-0.19999 v -2.95796 c 0,-0.1108 -0.0892,-0.19998 -0.19999,-0.19998 h -1.77974 v -2.56574 c 0,-0.1108 -0.0892,-0.19999 -0.19998,-0.19999 z" />
      <path
         id="rect68893-7-88-3"
         style="fill:none;stroke:#000000;stroke-width:0.3;stroke-linecap:square;stroke-linejoin:bevel;stroke-dasharray:none;stop-color:#000000"
         d="m 398.74601,752.75837 c -0.0331,0 -0.063,0.01 -0.0904,0.0237 h -0.57671 c -0.1108,0 -0.19998,0.0892 -0.19998,0.19999 v 3.45664 c 0,0.1108 0.0892,0.19999 0.19998,0.19999 h 0.46664 v 7.81657 h -0.46664 c -0.1108,0 -0.19998,0.0892 -0.19998,0.19999 v 2.46445 c 0,0.1108 0.0892,0.19999 0.19998,0.19999 h 7.33134 c 0.11079,0 0.19998,-0.0892 0.19998,-0.19999 v -0.39171 h 6.658 c 0.1108,0 0.19998,-0.0892 0.19998,-0.19998 v -7.64605 h 1.77974 c 0.1108,0 0.19999,-0.0892 0.19999,-0.19999 v -2.95796 c 0,-0.1108 -0.0892,-0.19998 -0.19999,-0.19998 h -1.77974 v -2.56574 c 0,-0.1108 -0.0892,-0.19999 -0.19998,-0.19999 z" />
      <path
         id="rect68893-7-53-4"
         style="fill:none;stroke:#000000;stroke-width:0.3;stroke-linecap:square;stroke-linejoin:bevel;stroke-dasharray:none;stop-color:#000000"
         d="m 417.79601,752.75837 c -0.0331,0 -0.063,0.01 -0.0904,0.0237 h -0.5767 c -0.1108,0 -0.19999,0.0892 -0.19999,0.19999 v 3.45664 c 0,0.1108 0.0892,0.19999 0.19999,0.19999 h 0.46663 v 7.81657 h -0.46663 c -0.1108,0 -0.19999,0.0892 -0.19999,0.19999 v 2.46445 c 0,0.1108 0.0892,0.19999 0.19999,0.19999 h 7.33133 c 0.1108,0 0.19999,-0.0892 0.19999,-0.19999 v -0.39171 h 6.65799 c 0.1108,0 0.2,-0.0892 0.2,-0.19998 v -7.64605 h 1.77972 c 0.1108,0 0.2,-0.0892 0.2,-0.19999 v -2.95796 c 0,-0.1108 -0.0892,-0.19998 -0.2,-0.19998 h -1.77972 v -2.56574 c 0,-0.1108 -0.0892,-0.19999 -0.2,-0.19999 z" />
      <path
         id="rect68893-7-721-3"
         style="fill:none;stroke:#000000;stroke-width:0.3;stroke-linecap:square;stroke-linejoin:bevel;stroke-dasharray:none;stop-color:#000000"
         d="m 436.84601,752.75837 c -0.0331,0 -0.063,0.01 -0.0904,0.0237 h -0.57671 c -0.11081,0 -0.2,0.0892 -0.2,0.19999 v 3.45664 c 0,0.1108 0.0892,0.19999 0.2,0.19999 h 0.46662 v 7.81657 h -0.46662 c -0.11081,0 -0.2,0.0892 -0.2,0.19999 v 2.46445 c 0,0.1108 0.0892,0.19999 0.2,0.19999 h 7.33134 c 0.11078,0 0.19997,-0.0892 0.19997,-0.19999 v -0.39171 h 6.658 c 0.1108,0 0.19999,-0.0892 0.19999,-0.19998 v -7.64605 h 1.77972 c 0.11081,0 0.2,-0.0892 0.2,-0.19999 v -2.95796 c 0,-0.1108 -0.0892,-0.19998 -0.2,-0.19998 h -1.77972 v -2.56574 c 0,-0.1108 -0.0892,-0.19999 -0.19999,-0.19999 z" />
      <path
         id="rect68893-7-50-1"
         style="fill:none;stroke:#000000;stroke-width:0.3;stroke-linecap:square;stroke-linejoin:bevel;stroke-dasharray:none;stop-color:#000000"
         d="m 455.89601,752.75837 c -0.0331,0 -0.063,0.01 -0.0904,0.0237 h -0.57672 c -0.1108,0 -0.2,0.0892 -0.2,0.19999 v 3.45664 c 0,0.1108 0.0892,0.19999 0.2,0.19999 h 0.46665 v 7.81657 h -0.46665 c -0.1108,0 -0.2,0.0892 -0.2,0.19999 v 2.46445 c 0,0.1108 0.0892,0.19999 0.2,0.19999 h 7.33134 c 0.11078,0 0.19997,-0.0892 0.19997,-0.19999 v -0.39171 h 6.65801 c 0.1108,0 0.19999,-0.0892 0.19999,-0.19998 v -7.64605 h 1.77972 c 0.11081,0 0.2,-0.0892 0.2,-0.19999 v -2.95796 c 0,-0.1108 -0.0892,-0.19998 -0.2,-0.19998 h -1.77972 v -2.56574 c 0,-0.1108 -0.0892,-0.19999 -0.19999,-0.19999 z" />
      <path
         id="rect68893-7-96-5"
         style="fill:none;stroke:#000000;stroke-width:0.3;stroke-linecap:square;stroke-linejoin:bevel;stroke-dasharray:none;stop-color:#000000"
         d="m 474.94601,752.75837 c -0.0331,0 -0.063,0.01 -0.0904,0.0237 h -0.57672 c -0.1108,0 -0.2,0.0892 -0.2,0.19999 v 3.45664 c 0,0.1108 0.0892,0.19999 0.2,0.19999 h 0.46665 v 7.81657 h -0.46665 c -0.1108,0 -0.2,0.0892 -0.2,0.19999 v 2.46445 c 0,0.1108 0.0892,0.19999 0.2,0.19999 h 7.33134 c 0.11078,0 0.19997,-0.0892 0.19997,-0.19999 v -0.39171 h 6.65801 c 0.1108,0 0.19999,-0.0892 0.19999,-0.19998 v -7.64605 h 1.77972 c 0.11081,0 0.2,-0.0892 0.2,-0.19999 v -2.95796 c 0,-0.1108 -0.0892,-0.19998 -0.2,-0.19998 h -1.77972 v -2.56574 c 0,-0.1108 -0.0892,-0.19999 -0.19999,-0.19999 z" />
      <path
         id="rect68893-7-39-5"
         style="fill:none;stroke:#000000;stroke-width:0.3;stroke-linecap:square;stroke-linejoin:bevel;stroke-dasharray:none;stop-color:#000000"
         d="m 493.99601,752.75837 c -0.0331,0 -0.063,0.01 -0.0904,0.0237 h -0.57671 c -0.11081,0 -0.2,0.0892 -0.2,0.19999 v 3.45664 c 0,0.1108 0.0892,0.19999 0.2,0.19999 h 0.46665 v 7.81657 h -0.46665 c -0.11081,0 -0.2,0.0892 -0.2,0.19999 v 2.46445 c 0,0.1108 0.0892,0.19999 0.2,0.19999 h 7.33134 c 0.11078,0 0.19997,-0.0892 0.19997,-0.19999 v -0.39171 h 6.65801 c 0.1108,0 0.19999,-0.0892 0.19999,-0.19998 v -7.64605 h 1.77972 c 0.11081,0 0.2,-0.0892 0.2,-0.19999 v -2.95796 c 0,-0.1108 -0.0892,-0.19998 -0.2,-0.19998 h -1.77972 v -2.56574 c 0,-0.1108 -0.0892,-0.19999 -0.19999,-0.19999 z" />
      <path
         id="rect68893-7-343"
         style="fill:none;stroke:#000000;stroke-width:0.3;stroke-linecap:square;stroke-linejoin:bevel;stroke-dasharray:none;stop-color:#000000"
         d="m 474.94601,714.61604 c -0.0331,0 -0.063,0.01 -0.0904,0.0238 h -0.57672 c -0.1108,0 -0.2,0.0892 -0.2,0.19999 v 3.45664 c 0,0.1108 0.0892,0.19998 0.2,0.19998 h 0.46665 v 7.81658 h -0.46665 c -0.1108,0 -0.2,0.0892 -0.2,0.19999 v 2.46445 c 0,0.1108 0.0892,0.19999 0.2,0.19999 h 7.33134 c 0.11078,0 0.19997,-0.0892 0.19997,-0.19999 v -0.39171 h 6.65801 c 0.1108,0 0.19999,-0.0892 0.19999,-0.19999 v -7.64604 h 1.77972 c 0.11081,0 0.2,-0.0892 0.2,-0.19999 v -2.95796 c 0,-0.1108 -0.0892,-0.19999 -0.2,-0.19999 h -1.77972 v -2.56573 c 0,-0.1108 -0.0892,-0.19999 -0.19999,-0.19999 z" />
      <path
         id="rect68893-7-894"
         style="fill:none;stroke:#000000;stroke-width:0.3;stroke-linecap:square;stroke-linejoin:bevel;stroke-dasharray:none;stop-color:#000000"
         d="m 474.94601,733.6872 c -0.0331,0 -0.063,0.01 -0.0904,0.0238 h -0.57672 c -0.1108,0 -0.2,0.0892 -0.2,0.19999 v 3.45664 c 0,0.1108 0.0892,0.19999 0.2,0.19999 h 0.46665 v 7.81657 h -0.46665 c -0.1108,0 -0.2,0.0892 -0.2,0.19999 v 2.46445 c 0,0.1108 0.0892,0.19999 0.2,0.19999 h 7.33134 c 0.11078,0 0.19997,-0.0892 0.19997,-0.19999 v -0.39171 h 6.65801 c 0.1108,0 0.19999,-0.0892 0.19999,-0.19998 v -7.64605 h 1.77972 c 0.11081,0 0.2,-0.0892 0.2,-0.19999 v -2.95796 c 0,-0.1108 -0.0892,-0.19999 -0.2,-0.19999 h -1.77972 v -2.56573 c 0,-0.1108 -0.0892,-0.19999 -0.19999,-0.19999 z" />
      <path
         id="rect68893-7-945"
         style="fill:none;stroke:#000000;stroke-width:0.3;stroke-linecap:square;stroke-linejoin:bevel;stroke-dasharray:none;stop-color:#000000"
         d="m 493.99601,714.61604 c -0.0331,0 -0.063,0.01 -0.0904,0.0238 h -0.57671 c -0.11081,0 -0.2,0.0892 -0.2,0.19999 v 3.45664 c 0,0.1108 0.0892,0.19998 0.2,0.19998 h 0.46665 v 7.81658 h -0.46665 c -0.11081,0 -0.2,0.0892 -0.2,0.19999 v 2.46445 c 0,0.1108 0.0892,0.19999 0.2,0.19999 h 7.33134 c 0.11078,0 0.19997,-0.0892 0.19997,-0.19999 v -0.39171 h 6.65801 c 0.1108,0 0.19999,-0.0892 0.19999,-0.19999 v -7.64604 h 1.77972 c 0.11081,0 0.2,-0.0892 0.2,-0.19999 v -2.95796 c 0,-0.1108 -0.0892,-0.19999 -0.2,-0.19999 h -1.77972 v -2.56573 c 0,-0.1108 -0.0892,-0.19999 -0.19999,-0.19999 z" />
      <path
         id="rect68893-7-65"
         style="fill:none;stroke:#000000;stroke-width:0.3;stroke-linecap:square;stroke-linejoin:bevel;stroke-dasharray:none;stop-color:#000000"
         d="m 493.99601,733.6872 c -0.0331,0 -0.063,0.01 -0.0904,0.0238 h -0.57671 c -0.11081,0 -0.2,0.0892 -0.2,0.19999 v 3.45664 c 0,0.1108 0.0892,0.19999 0.2,0.19999 h 0.46665 v 7.81657 h -0.46665 c -0.11081,0 -0.2,0.0892 -0.2,0.19999 v 2.46445 c 0,0.1108 0.0892,0.19999 0.2,0.19999 h 7.33134 c 0.11078,0 0.19997,-0.0892 0.19997,-0.19999 v -0.39171 h 6.65801 c 0.1108,0 0.19999,-0.0892 0.19999,-0.19998 v -7.64605 h 1.77972 c 0.11081,0 0.2,-0.0892 0.2,-0.19999 v -2.95796 c 0,-0.1108 -0.0892,-0.19999 -0.2,-0.19999 h -1.77972 v -2.56573 c 0,-0.1108 -0.0892,-0.19999 -0.19999,-0.19999 z" />
      <path
         d="m 394.37343,696.62437 c 0,1.10067 -0.889,1.98967 -1.98967,1.98967 -1.143,0 -2.032,-0.889 -2.032,-1.98967 0,-1.143 0.889,-2.032 2.032,-2.032 1.10067,0 1.98967,0.889 1.98967,2.032 z"
         style="fill:none;fill-opacity:1;fill-rule:nonzero;stroke:#000000;stroke-width:0.3;stroke-dasharray:none;stroke-opacity:1"
         id="path42888-7-8" />
      <path
         id="rect96781"
         style="fill:none;fill-opacity:1;stroke:#000000;stroke-width:0.3;stroke-linecap:square;stroke-linejoin:bevel;stroke-dasharray:none;stroke-opacity:1;stop-color:#000000"
         d="m 385.68654,692.44869 c -0.89852,0 -1.62161,0.72308 -1.62161,1.62161 v 20.58117 h -14.39137 v -20.5698 c 0,-0.89853 -0.72359,-1.62161 -1.62212,-1.62161 -0.89855,0 -1.62161,0.72308 -1.62161,1.62161 v 5.40638 h -2.98173 c -0.43974,0 -0.79375,0.35401 -0.79375,0.79375 v 14.36967 h -78.99104 v 33.62585 h 87.31043 v 0.82528 c 0,0.43973 0.35401,0.79375 0.79375,0.79375 h 10.37094 c 0.43974,0 0.79375,-0.35402 0.79375,-0.79375 v -0.82528 h 88.62922 v -33.62585 h -80.29019 v -14.34228 c 0,-0.43974 -0.35402,-0.79375 -0.79375,-0.79375 h -3.1688 v -5.44514 c 0,-0.89853 -0.7236,-1.62161 -1.62212,-1.62161 z" />
    </g>
  </g>
</svg>
