<?xml version="1.0" encoding="UTF-8" standalone="no"?>
<!-- Created with Inkscape (http://www.inkscape.org/) -->

<svg
   width="271.27567mm"
   height="81.325989mm"
   viewBox="0 0 271.27567 81.325989"
   version="1.1"
   id="svg1"
   style="background-color:white"
   inkscape:version="1.3 (0e150ed6c4, 2023-07-21)"
   sodipodi:docname="bottom_plate.svg"
   xmlns:inkscape="http://www.inkscape.org/namespaces/inkscape"
   xmlns:sodipodi="http://sodipodi.sourceforge.net/DTD/sodipodi-0.dtd"
   xmlns="http://www.w3.org/2000/svg"
   xmlns:svg="http://www.w3.org/2000/svg">
  <sodipodi:namedview
     id="namedview1"
     pagecolor="#505050"
     bordercolor="#eeeeee"
     borderopacity="1"
     inkscape:showpageshadow="0"
     inkscape:pageopacity="0"
     inkscape:pagecheckerboard="0"
     inkscape:deskcolor="#d1d1d1"
     inkscape:document-units="mm"
     inkscape:zoom="0.67704826"
     inkscape:cx="368.54252"
     inkscape:cy="551.5288"
     inkscape:window-width="1920"
     inkscape:window-height="991"
     inkscape:window-x="-9"
     inkscape:window-y="-9"
     inkscape:window-maximized="1"
     inkscape:current-layer="layer1"
     inkscape:rotation="1" />
  <defs
     id="defs1" />
  <g
     inkscape:label="Katman 1"
     inkscape:groupmode="layer"
     id="layer1"
     transform="translate(-143.66867,-504.27299)">
    <g
       id="g119628"
       transform="translate(-333.69616,-1267.463)"
       style="stroke-width:0.3;stroke-dasharray:none">
      <rect
         style="fill:none;stroke:#000000;stroke-width:0.3;stroke-linecap:square;stroke-linejoin:bevel;stroke-dasharray:none;stroke-opacity:1;stop-color:#000000"
         id="rect10032-7-5-1"
         width="270.97568"
         height="81.025986"
         x="477.51483"
         y="1771.886"
         rx="2.8"
         ry="2.8" />
      <g
         id="g41782-2-1-6"
         transform="matrix(0.26458333,0,0,0.26458333,728.37997,1793.3437)"
         style="fill:none;fill-opacity:1;stroke:#000000;stroke-width:1.13386;stroke-dasharray:none;stroke-opacity:1">
        <path
           d="m 0,0 c 0,2.24 -1.92,4.16 -4.16,4.16 -2.4,0 -4.32,-1.92 -4.32,-4.16 0,-2.4 1.92,-4.32 4.32,-4.32 C -1.92,-4.32 0,-2.4 0,0 Z"
           style="fill:none;fill-opacity:1;fill-rule:nonzero;stroke:#000000;stroke-width:1.13386;stroke-dasharray:none;stroke-opacity:1"
           id="path41784-9-3-0" />
      </g>
      <g
         id="g41782-2-1-6-5"
         transform="matrix(0.26458333,0,0,0.26458333,728.33763,1831.4014)"
         style="fill:none;fill-opacity:1;stroke:#000000;stroke-width:1.13386;stroke-dasharray:none;stroke-opacity:1">
        <path
           d="m 0,0 c 0,2.24 -1.92,4.16 -4.16,4.16 -2.4,0 -4.32,-1.92 -4.32,-4.16 0,-2.4 1.92,-4.32 4.32,-4.32 C -1.92,-4.32 0,-2.4 0,0 Z"
           style="fill:none;fill-opacity:1;fill-rule:nonzero;stroke:#000000;stroke-width:1.13386;stroke-dasharray:none;stroke-opacity:1"
           id="path41784-9-3-0-5" />
      </g>
      <g
         id="g41782-2-1-6-8"
         transform="matrix(0.26458333,0,0,0.26458333,652.13764,1793.3437)"
         style="fill:none;fill-opacity:1;stroke:#000000;stroke-width:1.13386;stroke-dasharray:none;stroke-opacity:1">
        <path
           d="m 0,0 c 0,2.24 -1.92,4.16 -4.16,4.16 -2.4,0 -4.32,-1.92 -4.32,-4.16 0,-2.4 1.92,-4.32 4.32,-4.32 C -1.92,-4.32 0,-2.4 0,0 Z"
           style="fill:none;fill-opacity:1;fill-rule:nonzero;stroke:#000000;stroke-width:1.13386;stroke-dasharray:none;stroke-opacity:1"
           id="path41784-9-3-0-3" />
      </g>
      <g
         id="g41782-2-1-6-51"
         transform="matrix(0.26458333,0,0,0.26458333,652.13764,1831.4437)"
         style="fill:none;fill-opacity:1;stroke:#000000;stroke-width:1.13386;stroke-dasharray:none;stroke-opacity:1">
        <path
           d="m 0,0 c 0,2.24 -1.92,4.16 -4.16,4.16 -2.4,0 -4.32,-1.92 -4.32,-4.16 0,-2.4 1.92,-4.32 4.32,-4.32 C -1.92,-4.32 0,-2.4 0,0 Z"
           style="fill:none;fill-opacity:1;fill-rule:nonzero;stroke:#000000;stroke-width:1.13386;stroke-dasharray:none;stroke-opacity:1"
           id="path41784-9-3-0-0" />
      </g>
      <g
         id="g41782-2-1-6-1"
         transform="matrix(0.26458333,0,0,0.26458333,576.02231,1793.3437)"
         style="fill:none;fill-opacity:1;stroke:#000000;stroke-width:1.13386;stroke-dasharray:none;stroke-opacity:1">
        <path
           d="m 0,0 c 0,2.24 -1.92,4.16 -4.16,4.16 -2.4,0 -4.32,-1.92 -4.32,-4.16 0,-2.4 1.92,-4.32 4.32,-4.32 C -1.92,-4.32 0,-2.4 0,0 Z"
           style="fill:none;fill-opacity:1;fill-rule:nonzero;stroke:#000000;stroke-width:1.13386;stroke-dasharray:none;stroke-opacity:1"
           id="path41784-9-3-0-54" />
      </g>
      <g
         id="g41782-2-1-6-9"
         transform="matrix(0.26458333,0,0,0.26458333,576.02231,1831.4437)"
         style="fill:none;fill-opacity:1;stroke:#000000;stroke-width:1.13386;stroke-dasharray:none;stroke-opacity:1">
        <path
           d="m 0,0 c 0,2.24 -1.92,4.16 -4.16,4.16 -2.4,0 -4.32,-1.92 -4.32,-4.16 0,-2.4 1.92,-4.32 4.32,-4.32 C -1.92,-4.32 0,-2.4 0,0 Z"
           style="fill:none;fill-opacity:1;fill-rule:nonzero;stroke:#000000;stroke-width:1.13386;stroke-dasharray:none;stroke-opacity:1"
           id="path41784-9-3-0-59" />
      </g>
      <g
         id="g41782-2-1-6-3"
         transform="matrix(0.26458333,0,0,0.26458333,499.8223,1793.3437)"
         style="fill:none;fill-opacity:1;stroke:#000000;stroke-width:1.13386;stroke-dasharray:none;stroke-opacity:1">
        <path
           d="m 0,0 c 0,2.24 -1.92,4.16 -4.16,4.16 -2.4,0 -4.32,-1.92 -4.32,-4.16 0,-2.4 1.92,-4.32 4.32,-4.32 C -1.92,-4.32 0,-2.4 0,0 Z"
           style="fill:none;fill-opacity:1;fill-rule:nonzero;stroke:#000000;stroke-width:1.13386;stroke-dasharray:none;stroke-opacity:1"
           id="path41784-9-3-0-6" />
      </g>
      <g
         id="g41782-2-1-6-95"
         transform="matrix(0.26458333,0,0,0.26458333,499.8223,1831.4861)"
         style="fill:none;fill-opacity:1;stroke:#000000;stroke-width:1.13386;stroke-dasharray:none;stroke-opacity:1">
        <path
           d="m 0,0 c 0,2.24 -1.92,4.16 -4.16,4.16 -2.4,0 -4.32,-1.92 -4.32,-4.16 0,-2.4 1.92,-4.32 4.32,-4.32 C -1.92,-4.32 0,-2.4 0,0 Z"
           style="fill:none;fill-opacity:1;fill-rule:nonzero;stroke:#000000;stroke-width:1.13386;stroke-dasharray:none;stroke-opacity:1"
           id="path41784-9-3-0-1" />
      </g>
    </g>
  </g>
</svg>
