999
"DXF R12 Output" (www.mydxf.blogspot.com)
 0 
SECTION
 2 
HEADER
 9 
$ACADVER
 1 
AC1009
 9 
$EXTMIN
 10 
 0 
 20 
 0 
 9 
$EXTMAX
 10 
 8.5 
 20 
 11 
 0 
ENDSEC
 0 
SECTION
 2 
ENTITIES
0
LINE
8
Layer 1
10
2.949830
20
81.184000
11
268.325510
21
81.184000
0
LINE
8
Layer 1
10
268.325510
20
81.184000
11
269.417422
21
80.964637
0
LINE
8
Layer 1
10
269.417422
20
80.964637
11
270.307210
21
80.365700
0
LINE
8
Layer 1
10
270.307210
20
80.365700
11
270.906147
21
79.475912
0
LINE
8
Layer 1
10
270.906147
20
79.475912
11
271.125510
21
78.384000
0
LINE
8
Layer 1
10
271.125510
20
78.384000
11
271.125510
21
2.958000
0
LINE
8
Layer 1
10
271.125510
20
2.958000
11
270.906147
21
1.866088
0
LINE
8
Layer 1
10
270.906147
20
1.866088
11
270.307210
21
0.976300
0
LINE
8
Layer 1
10
270.307210
20
0.976300
11
269.417422
21
0.377363
0
LINE
8
Layer 1
10
269.417422
20
0.377363
11
268.325510
21
0.158000
0
LINE
8
Layer 1
10
268.325510
20
0.158000
11
2.949830
21
0.158000
0
LINE
8
Layer 1
10
2.949830
20
0.158000
11
1.857917
21
0.377363
0
LINE
8
Layer 1
10
1.857917
20
0.377363
11
0.968130
21
0.976300
0
LINE
8
Layer 1
10
0.968130
20
0.976300
11
0.369192
21
1.866088
0
LINE
8
Layer 1
10
0.369192
20
1.866088
11
0.149830
21
2.958000
0
LINE
8
Layer 1
10
0.149830
20
2.958000
11
0.149830
21
78.384000
0
LINE
8
Layer 1
10
0.149830
20
78.384000
11
0.369192
21
79.475913
0
LINE
8
Layer 1
10
0.369192
20
79.475913
11
0.968130
21
80.365700
0
LINE
8
Layer 1
10
0.968130
20
80.365700
11
1.857917
21
80.964637
0
LINE
8
Layer 1
10
1.857917
20
80.964637
11
2.949830
21
81.184000
0
LINE
8
Layer 1
10
2.949830
20
81.184000
11
2.949830
21
81.184000
0
LINE
8
Layer 1
10
251.015000
20
59.715300
11
250.926365
21
59.293290
0
LINE
8
Layer 1
10
250.926365
20
59.293290
11
250.686917
21
58.942718
0
LINE
8
Layer 1
10
250.686917
20
58.942718
11
250.336345
21
58.703270
0
LINE
8
Layer 1
10
250.336345
20
58.703270
11
249.914335
21
58.614635
0
LINE
8
Layer 1
10
249.914335
20
58.614635
11
249.467851
21
58.703270
0
LINE
8
Layer 1
10
249.467851
20
58.703270
11
249.104711
21
58.942718
0
LINE
8
Layer 1
10
249.104711
20
58.942718
11
248.860633
21
59.293290
0
LINE
8
Layer 1
10
248.860633
20
59.293290
11
248.771336
21
59.715300
0
LINE
8
Layer 1
10
248.771336
20
59.715300
11
248.860633
21
60.161784
0
LINE
8
Layer 1
10
248.860633
20
60.161784
11
249.104711
21
60.524924
0
LINE
8
Layer 1
10
249.104711
20
60.524924
11
249.467851
21
60.769002
0
LINE
8
Layer 1
10
249.467851
20
60.769002
11
249.914335
21
60.858299
0
LINE
8
Layer 1
10
249.914335
20
60.858299
11
250.336345
21
60.769002
0
LINE
8
Layer 1
10
250.336345
20
60.769002
11
250.686917
21
60.524924
0
LINE
8
Layer 1
10
250.686917
20
60.524924
11
250.926365
21
60.161784
0
LINE
8
Layer 1
10
250.926365
20
60.161784
11
251.015000
21
59.715300
0
LINE
8
Layer 1
10
251.015000
20
59.715300
11
251.015000
21
59.715300
0
LINE
8
Layer 1
10
250.973000
20
21.657600
11
250.884365
21
21.235590
0
LINE
8
Layer 1
10
250.884365
20
21.235590
11
250.644917
21
20.885018
0
LINE
8
Layer 1
10
250.644917
20
20.885018
11
250.294345
21
20.645570
0
LINE
8
Layer 1
10
250.294345
20
20.645570
11
249.872335
21
20.556935
0
LINE
8
Layer 1
10
249.872335
20
20.556935
11
249.425851
21
20.645570
0
LINE
8
Layer 1
10
249.425851
20
20.645570
11
249.062711
21
20.885018
0
LINE
8
Layer 1
10
249.062711
20
20.885018
11
248.818633
21
21.235590
0
LINE
8
Layer 1
10
248.818633
20
21.235590
11
248.729336
21
21.657600
0
LINE
8
Layer 1
10
248.729336
20
21.657600
11
248.818633
21
22.104084
0
LINE
8
Layer 1
10
248.818633
20
22.104084
11
249.062711
21
22.467224
0
LINE
8
Layer 1
10
249.062711
20
22.467224
11
249.425851
21
22.711302
0
LINE
8
Layer 1
10
249.425851
20
22.711302
11
249.872335
21
22.800599
0
LINE
8
Layer 1
10
249.872335
20
22.800599
11
250.294345
21
22.711302
0
LINE
8
Layer 1
10
250.294345
20
22.711302
11
250.644917
21
22.467224
0
LINE
8
Layer 1
10
250.644917
20
22.467224
11
250.884365
21
22.104084
0
LINE
8
Layer 1
10
250.884365
20
22.104084
11
250.973000
21
21.657600
0
LINE
8
Layer 1
10
250.973000
20
21.657600
11
250.973000
21
21.657600
0
LINE
8
Layer 1
10
174.773000
20
59.715300
11
174.684365
21
59.293290
0
LINE
8
Layer 1
10
174.684365
20
59.293290
11
174.444917
21
58.942718
0
LINE
8
Layer 1
10
174.444917
20
58.942718
11
174.094345
21
58.703270
0
LINE
8
Layer 1
10
174.094345
20
58.703270
11
173.672335
21
58.614635
0
LINE
8
Layer 1
10
173.672335
20
58.614635
11
173.225851
21
58.703270
0
LINE
8
Layer 1
10
173.225851
20
58.703270
11
172.862711
21
58.942718
0
LINE
8
Layer 1
10
172.862711
20
58.942718
11
172.618633
21
59.293290
0
LINE
8
Layer 1
10
172.618633
20
59.293290
11
172.529336
21
59.715300
0
LINE
8
Layer 1
10
172.529336
20
59.715300
11
172.618633
21
60.161784
0
LINE
8
Layer 1
10
172.618633
20
60.161784
11
172.862711
21
60.524924
0
LINE
8
Layer 1
10
172.862711
20
60.524924
11
173.225851
21
60.769002
0
LINE
8
Layer 1
10
173.225851
20
60.769002
11
173.672335
21
60.858299
0
LINE
8
Layer 1
10
173.672335
20
60.858299
11
174.094345
21
60.769002
0
LINE
8
Layer 1
10
174.094345
20
60.769002
11
174.444917
21
60.524924
0
LINE
8
Layer 1
10
174.444917
20
60.524924
11
174.684365
21
60.161784
0
LINE
8
Layer 1
10
174.684365
20
60.161784
11
174.773000
21
59.715300
0
LINE
8
Layer 1
10
174.773000
20
59.715300
11
174.773000
21
59.715300
0
LINE
8
Layer 1
10
174.773000
20
21.615300
11
174.684365
21
21.193290
0
LINE
8
Layer 1
10
174.684365
20
21.193290
11
174.444917
21
20.842718
0
LINE
8
Layer 1
10
174.444917
20
20.842718
11
174.094345
21
20.603270
0
LINE
8
Layer 1
10
174.094345
20
20.603270
11
173.672335
21
20.514635
0
LINE
8
Layer 1
10
173.672335
20
20.514635
11
173.225851
21
20.603270
0
LINE
8
Layer 1
10
173.225851
20
20.603270
11
172.862711
21
20.842718
0
LINE
8
Layer 1
10
172.862711
20
20.842718
11
172.618633
21
21.193290
0
LINE
8
Layer 1
10
172.618633
20
21.193290
11
172.529336
21
21.615300
0
LINE
8
Layer 1
10
172.529336
20
21.615300
11
172.618633
21
22.061784
0
LINE
8
Layer 1
10
172.618633
20
22.061784
11
172.862711
21
22.424924
0
LINE
8
Layer 1
10
172.862711
20
22.424924
11
173.225851
21
22.669002
0
LINE
8
Layer 1
10
173.225851
20
22.669002
11
173.672335
21
22.758299
0
LINE
8
Layer 1
10
173.672335
20
22.758299
11
174.094345
21
22.669002
0
LINE
8
Layer 1
10
174.094345
20
22.669002
11
174.444917
21
22.424924
0
LINE
8
Layer 1
10
174.444917
20
22.424924
11
174.684365
21
22.061784
0
LINE
8
Layer 1
10
174.684365
20
22.061784
11
174.773000
21
21.615300
0
LINE
8
Layer 1
10
174.773000
20
21.615300
11
174.773000
21
21.615300
0
LINE
8
Layer 1
10
98.657300
20
59.715300
11
98.568665
21
59.293290
0
LINE
8
Layer 1
10
98.568665
20
59.293290
11
98.329217
21
58.942718
0
LINE
8
Layer 1
10
98.329217
20
58.942718
11
97.978645
21
58.703270
0
LINE
8
Layer 1
10
97.978645
20
58.703270
11
97.556635
21
58.614635
0
LINE
8
Layer 1
10
97.556635
20
58.614635
11
97.110151
21
58.703270
0
LINE
8
Layer 1
10
97.110151
20
58.703270
11
96.747011
21
58.942718
0
LINE
8
Layer 1
10
96.747011
20
58.942718
11
96.502933
21
59.293290
0
LINE
8
Layer 1
10
96.502933
20
59.293290
11
96.413636
21
59.715300
0
LINE
8
Layer 1
10
96.413636
20
59.715300
11
96.502933
21
60.161784
0
LINE
8
Layer 1
10
96.502933
20
60.161784
11
96.747011
21
60.524924
0
LINE
8
Layer 1
10
96.747011
20
60.524924
11
97.110151
21
60.769002
0
LINE
8
Layer 1
10
97.110151
20
60.769002
11
97.556635
21
60.858299
0
LINE
8
Layer 1
10
97.556635
20
60.858299
11
97.978645
21
60.769002
0
LINE
8
Layer 1
10
97.978645
20
60.769002
11
98.329217
21
60.524924
0
LINE
8
Layer 1
10
98.329217
20
60.524924
11
98.568665
21
60.161784
0
LINE
8
Layer 1
10
98.568665
20
60.161784
11
98.657300
21
59.715300
0
LINE
8
Layer 1
10
98.657300
20
59.715300
11
98.657300
21
59.715300
0
LINE
8
Layer 1
10
98.657300
20
21.615300
11
98.568665
21
21.193290
0
LINE
8
Layer 1
10
98.568665
20
21.193290
11
98.329217
21
20.842718
0
LINE
8
Layer 1
10
98.329217
20
20.842718
11
97.978645
21
20.603270
0
LINE
8
Layer 1
10
97.978645
20
20.603270
11
97.556635
21
20.514635
0
LINE
8
Layer 1
10
97.556635
20
20.514635
11
97.110151
21
20.603270
0
LINE
8
Layer 1
10
97.110151
20
20.603270
11
96.747011
21
20.842718
0
LINE
8
Layer 1
10
96.747011
20
20.842718
11
96.502933
21
21.193290
0
LINE
8
Layer 1
10
96.502933
20
21.193290
11
96.413636
21
21.615300
0
LINE
8
Layer 1
10
96.413636
20
21.615300
11
96.502933
21
22.061784
0
LINE
8
Layer 1
10
96.502933
20
22.061784
11
96.747011
21
22.424924
0
LINE
8
Layer 1
10
96.747011
20
22.424924
11
97.110151
21
22.669002
0
LINE
8
Layer 1
10
97.110151
20
22.669002
11
97.556635
21
22.758299
0
LINE
8
Layer 1
10
97.556635
20
22.758299
11
97.978645
21
22.669002
0
LINE
8
Layer 1
10
97.978645
20
22.669002
11
98.329217
21
22.424924
0
LINE
8
Layer 1
10
98.329217
20
22.424924
11
98.568665
21
22.061784
0
LINE
8
Layer 1
10
98.568665
20
22.061784
11
98.657300
21
21.615300
0
LINE
8
Layer 1
10
98.657300
20
21.615300
11
98.657300
21
21.615300
0
LINE
8
Layer 1
10
22.457300
20
59.715300
11
22.368665
21
59.293290
0
LINE
8
Layer 1
10
22.368665
20
59.293290
11
22.129217
21
58.942718
0
LINE
8
Layer 1
10
22.129217
20
58.942718
11
21.778645
21
58.703270
0
LINE
8
Layer 1
10
21.778645
20
58.703270
11
21.356635
21
58.614635
0
LINE
8
Layer 1
10
21.356635
20
58.614635
11
20.910151
21
58.703270
0
LINE
8
Layer 1
10
20.910151
20
58.703270
11
20.547011
21
58.942718
0
LINE
8
Layer 1
10
20.547011
20
58.942718
11
20.302933
21
59.293290
0
LINE
8
Layer 1
10
20.302933
20
59.293290
11
20.213636
21
59.715300
0
LINE
8
Layer 1
10
20.213636
20
59.715300
11
20.302933
21
60.161784
0
LINE
8
Layer 1
10
20.302933
20
60.161784
11
20.547011
21
60.524924
0
LINE
8
Layer 1
10
20.547011
20
60.524924
11
20.910151
21
60.769002
0
LINE
8
Layer 1
10
20.910151
20
60.769002
11
21.356635
21
60.858299
0
LINE
8
Layer 1
10
21.356635
20
60.858299
11
21.778645
21
60.769002
0
LINE
8
Layer 1
10
21.778645
20
60.769002
11
22.129217
21
60.524924
0
LINE
8
Layer 1
10
22.129217
20
60.524924
11
22.368665
21
60.161784
0
LINE
8
Layer 1
10
22.368665
20
60.161784
11
22.457300
21
59.715300
0
LINE
8
Layer 1
10
22.457300
20
59.715300
11
22.457300
21
59.715300
0
LINE
8
Layer 1
10
22.457300
20
21.572900
11
22.368665
21
21.150890
0
LINE
8
Layer 1
10
22.368665
20
21.150890
11
22.129217
21
20.800318
0
LINE
8
Layer 1
10
22.129217
20
20.800318
11
21.778645
21
20.560870
0
LINE
8
Layer 1
10
21.778645
20
20.560870
11
21.356635
21
20.472235
0
LINE
8
Layer 1
10
21.356635
20
20.472235
11
20.910151
21
20.560870
0
LINE
8
Layer 1
10
20.910151
20
20.560870
11
20.547011
21
20.800318
0
LINE
8
Layer 1
10
20.547011
20
20.800318
11
20.302933
21
21.150890
0
LINE
8
Layer 1
10
20.302933
20
21.150890
11
20.213636
21
21.572900
0
LINE
8
Layer 1
10
20.213636
20
21.572900
11
20.302933
21
22.019384
0
LINE
8
Layer 1
10
20.302933
20
22.019384
11
20.547011
21
22.382524
0
LINE
8
Layer 1
10
20.547011
20
22.382524
11
20.910151
21
22.626602
0
LINE
8
Layer 1
10
20.910151
20
22.626602
11
21.356635
21
22.715899
0
LINE
8
Layer 1
10
21.356635
20
22.715899
11
21.778645
21
22.626602
0
LINE
8
Layer 1
10
21.778645
20
22.626602
11
22.129217
21
22.382524
0
LINE
8
Layer 1
10
22.129217
20
22.382524
11
22.368665
21
22.019384
0
LINE
8
Layer 1
10
22.368665
20
22.019384
11
22.457300
21
21.572900
0
LINE
8
Layer 1
10
22.457300
20
21.572900
11
22.457300
21
21.572900
 0 
ENDSEC
 0 
EOF