999
"DXF R12 Output" (www.mydxf.blogspot.com)
 0 
SECTION
 2 
HEADER
 9 
$ACADVER
 1 
AC1009
 9 
$EXTMIN
 10 
 0 
 20 
 0 
 9 
$EXTMAX
 10 
 8.5 
 20 
 11 
 0 
ENDSEC
 0 
SECTION
 2 
ENTITIES
0
LINE
8
Layer 1
10
2.950290
20
81.176230
11
268.325970
21
81.176230
0
LINE
8
Layer 1
10
268.325970
20
81.176230
11
269.417882
21
80.956868
0
LINE
8
Layer 1
10
269.417882
20
80.956868
11
270.307670
21
80.357930
0
LINE
8
Layer 1
10
270.307670
20
80.357930
11
270.906607
21
79.468143
0
LINE
8
Layer 1
10
270.906607
20
79.468143
11
271.125970
21
78.376230
0
LINE
8
Layer 1
10
271.125970
20
78.376230
11
271.125970
21
2.950250
0
LINE
8
Layer 1
10
271.125970
20
2.950250
11
270.906607
21
1.858338
0
LINE
8
Layer 1
10
270.906607
20
1.858338
11
270.307670
21
0.968550
0
LINE
8
Layer 1
10
270.307670
20
0.968550
11
269.417882
21
0.369613
0
LINE
8
Layer 1
10
269.417882
20
0.369613
11
268.325970
21
0.150250
0
LINE
8
Layer 1
10
268.325970
20
0.150250
11
2.950290
21
0.150250
0
LINE
8
Layer 1
10
2.950290
20
0.150250
11
1.858377
21
0.369613
0
LINE
8
Layer 1
10
1.858377
20
0.369613
11
0.968590
21
0.968550
0
LINE
8
Layer 1
10
0.968590
20
0.968550
11
0.369652
21
1.858338
0
LINE
8
Layer 1
10
0.369652
20
1.858338
11
0.150290
21
2.950250
0
LINE
8
Layer 1
10
0.150290
20
2.950250
11
0.150290
21
78.376230
0
LINE
8
Layer 1
10
0.150290
20
78.376230
11
0.369652
21
79.468143
0
LINE
8
Layer 1
10
0.369652
20
79.468143
11
0.968590
21
80.357930
0
LINE
8
Layer 1
10
0.968590
20
80.357930
11
1.858377
21
80.956868
0
LINE
8
Layer 1
10
1.858377
20
80.956868
11
2.950290
21
81.176230
0
LINE
8
Layer 1
10
2.950290
20
81.176230
11
2.950290
21
81.176230
0
LINE
8
Layer 1
10
5.071010
20
19.290300
11
4.980610
21
19.266500
0
LINE
8
Layer 1
10
4.980610
20
19.266500
11
4.403910
21
19.266500
0
LINE
8
Layer 1
10
4.403910
20
19.266500
11
4.203920
21
19.066510
0
LINE
8
Layer 1
10
4.203920
20
19.066510
11
4.203920
21
15.609870
0
LINE
8
Layer 1
10
4.203920
20
15.609870
11
4.403910
21
15.409880
0
LINE
8
Layer 1
10
4.403910
20
15.409880
11
4.870540
21
15.409880
0
LINE
8
Layer 1
10
4.870540
20
15.409880
11
4.870540
21
7.593310
0
LINE
8
Layer 1
10
4.870540
20
7.593310
11
4.403910
21
7.593310
0
LINE
8
Layer 1
10
4.403910
20
7.593310
11
4.203920
21
7.393320
0
LINE
8
Layer 1
10
4.203920
20
7.393320
11
4.203920
21
4.928870
0
LINE
8
Layer 1
10
4.203920
20
4.928870
11
4.403910
21
4.728880
0
LINE
8
Layer 1
10
4.403910
20
4.728880
11
11.735240
21
4.728880
0
LINE
8
Layer 1
10
11.735240
20
4.728880
11
11.935230
21
4.928870
0
LINE
8
Layer 1
10
11.935230
20
4.928870
11
11.935230
21
5.320580
0
LINE
8
Layer 1
10
11.935230
20
5.320580
11
18.593220
21
5.320580
0
LINE
8
Layer 1
10
18.593220
20
5.320580
11
18.793210
21
5.520560
0
LINE
8
Layer 1
10
18.793210
20
5.520560
11
18.793210
21
13.166610
0
LINE
8
Layer 1
10
18.793210
20
13.166610
11
20.572940
21
13.166610
0
LINE
8
Layer 1
10
20.572940
20
13.166610
11
20.772930
21
13.366600
0
LINE
8
Layer 1
10
20.772930
20
13.366600
11
20.772930
21
16.324560
0
LINE
8
Layer 1
10
20.772930
20
16.324560
11
20.572940
21
16.524550
0
LINE
8
Layer 1
10
20.572940
20
16.524550
11
18.793210
21
16.524550
0
LINE
8
Layer 1
10
18.793210
20
16.524550
11
18.793210
21
19.090280
0
LINE
8
Layer 1
10
18.793210
20
19.090280
11
18.593220
21
19.290270
0
LINE
8
Layer 1
10
18.593220
20
19.290270
11
5.071010
21
19.290300
0
LINE
8
Layer 1
10
251.904430
20
59.718630
11
251.748326
21
58.943399
0
LINE
8
Layer 1
10
251.748326
20
58.943399
11
251.322346
21
58.311044
0
LINE
8
Layer 1
10
251.322346
20
58.311044
11
250.689991
21
57.885064
0
LINE
8
Layer 1
10
250.689991
20
57.885064
11
249.914760
21
57.728960
0
LINE
8
Layer 1
10
249.914760
20
57.728960
11
249.115057
21
57.885064
0
LINE
8
Layer 1
10
249.115057
20
57.885064
11
248.470135
21
58.311044
0
LINE
8
Layer 1
10
248.470135
20
58.311044
11
248.039526
21
58.943399
0
LINE
8
Layer 1
10
248.039526
20
58.943399
11
247.882760
21
59.718630
0
LINE
8
Layer 1
10
247.882760
20
59.718630
11
248.039526
21
60.518333
0
LINE
8
Layer 1
10
248.039526
20
60.518333
11
248.470135
21
61.163255
0
LINE
8
Layer 1
10
248.470135
20
61.163255
11
249.115057
21
61.593864
0
LINE
8
Layer 1
10
249.115057
20
61.593864
11
249.914760
21
61.750630
0
LINE
8
Layer 1
10
249.914760
20
61.750630
11
250.689991
21
61.593864
0
LINE
8
Layer 1
10
250.689991
20
61.593864
11
251.322346
21
61.163255
0
LINE
8
Layer 1
10
251.322346
20
61.163255
11
251.748326
21
60.518333
0
LINE
8
Layer 1
10
251.748326
20
60.518333
11
251.904430
21
59.718630
0
LINE
8
Layer 1
10
251.904430
20
59.718630
11
251.904430
21
59.718630
0
LINE
8
Layer 1
10
251.862090
20
21.660970
11
251.705986
21
20.885739
0
LINE
8
Layer 1
10
251.705986
20
20.885739
11
251.280006
21
20.253384
0
LINE
8
Layer 1
10
251.280006
20
20.253384
11
250.647651
21
19.827404
0
LINE
8
Layer 1
10
250.647651
20
19.827404
11
249.872420
21
19.671300
0
LINE
8
Layer 1
10
249.872420
20
19.671300
11
249.072717
21
19.827404
0
LINE
8
Layer 1
10
249.072717
20
19.827404
11
248.427795
21
20.253384
0
LINE
8
Layer 1
10
248.427795
20
20.253384
11
247.997186
21
20.885739
0
LINE
8
Layer 1
10
247.997186
20
20.885739
11
247.840420
21
21.660970
0
LINE
8
Layer 1
10
247.840420
20
21.660970
11
247.997186
21
22.460673
0
LINE
8
Layer 1
10
247.997186
20
22.460673
11
248.427795
21
23.105595
0
LINE
8
Layer 1
10
248.427795
20
23.105595
11
249.072717
21
23.536204
0
LINE
8
Layer 1
10
249.072717
20
23.536204
11
249.872420
21
23.692970
0
LINE
8
Layer 1
10
249.872420
20
23.692970
11
250.647651
21
23.536204
0
LINE
8
Layer 1
10
250.647651
20
23.536204
11
251.280006
21
23.105595
0
LINE
8
Layer 1
10
251.280006
20
23.105595
11
251.705986
21
22.460673
0
LINE
8
Layer 1
10
251.705986
20
22.460673
11
251.862090
21
21.660970
0
LINE
8
Layer 1
10
251.862090
20
21.660970
11
251.862090
21
21.660970
0
LINE
8
Layer 1
10
175.662100
20
59.718630
11
175.505996
21
58.943399
0
LINE
8
Layer 1
10
175.505996
20
58.943399
11
175.080016
21
58.311044
0
LINE
8
Layer 1
10
175.080016
20
58.311044
11
174.447661
21
57.885064
0
LINE
8
Layer 1
10
174.447661
20
57.885064
11
173.672430
21
57.728960
0
LINE
8
Layer 1
10
173.672430
20
57.728960
11
172.872727
21
57.885064
0
LINE
8
Layer 1
10
172.872727
20
57.885064
11
172.227805
21
58.311044
0
LINE
8
Layer 1
10
172.227805
20
58.311044
11
171.797196
21
58.943399
0
LINE
8
Layer 1
10
171.797196
20
58.943399
11
171.640430
21
59.718630
0
LINE
8
Layer 1
10
171.640430
20
59.718630
11
171.797196
21
60.518333
0
LINE
8
Layer 1
10
171.797196
20
60.518333
11
172.227805
21
61.163255
0
LINE
8
Layer 1
10
172.227805
20
61.163255
11
172.872727
21
61.593864
0
LINE
8
Layer 1
10
172.872727
20
61.593864
11
173.672430
21
61.750630
0
LINE
8
Layer 1
10
173.672430
20
61.750630
11
174.447661
21
61.593864
0
LINE
8
Layer 1
10
174.447661
20
61.593864
11
175.080016
21
61.163255
0
LINE
8
Layer 1
10
175.080016
20
61.163255
11
175.505996
21
60.518333
0
LINE
8
Layer 1
10
175.505996
20
60.518333
11
175.662100
21
59.718630
0
LINE
8
Layer 1
10
175.662100
20
59.718630
11
175.662100
21
59.718630
0
LINE
8
Layer 1
10
175.662100
20
21.618620
11
175.505996
21
20.843389
0
LINE
8
Layer 1
10
175.505996
20
20.843389
11
175.080016
21
20.211034
0
LINE
8
Layer 1
10
175.080016
20
20.211034
11
174.447661
21
19.785054
0
LINE
8
Layer 1
10
174.447661
20
19.785054
11
173.672430
21
19.628950
0
LINE
8
Layer 1
10
173.672430
20
19.628950
11
172.872727
21
19.785054
0
LINE
8
Layer 1
10
172.872727
20
19.785054
11
172.227805
21
20.211034
0
LINE
8
Layer 1
10
172.227805
20
20.211034
11
171.797196
21
20.843389
0
LINE
8
Layer 1
10
171.797196
20
20.843389
11
171.640430
21
21.618620
0
LINE
8
Layer 1
10
171.640430
20
21.618620
11
171.797196
21
22.418323
0
LINE
8
Layer 1
10
171.797196
20
22.418323
11
172.227805
21
23.063245
0
LINE
8
Layer 1
10
172.227805
20
23.063245
11
172.872727
21
23.493854
0
LINE
8
Layer 1
10
172.872727
20
23.493854
11
173.672430
21
23.650620
0
LINE
8
Layer 1
10
173.672430
20
23.650620
11
174.447661
21
23.493854
0
LINE
8
Layer 1
10
174.447661
20
23.493854
11
175.080016
21
23.063245
0
LINE
8
Layer 1
10
175.080016
20
23.063245
11
175.505996
21
22.418323
0
LINE
8
Layer 1
10
175.505996
20
22.418323
11
175.662100
21
21.618620
0
LINE
8
Layer 1
10
175.662100
20
21.618620
11
175.662100
21
21.618620
0
LINE
8
Layer 1
10
99.546770
20
21.618620
11
99.390666
21
20.843389
0
LINE
8
Layer 1
10
99.390666
20
20.843389
11
98.964686
21
20.211034
0
LINE
8
Layer 1
10
98.964686
20
20.211034
11
98.332331
21
19.785054
0
LINE
8
Layer 1
10
98.332331
20
19.785054
11
97.557100
21
19.628950
0
LINE
8
Layer 1
10
97.557100
20
19.628950
11
96.757397
21
19.785054
0
LINE
8
Layer 1
10
96.757397
20
19.785054
11
96.112475
21
20.211034
0
LINE
8
Layer 1
10
96.112475
20
20.211034
11
95.681866
21
20.843389
0
LINE
8
Layer 1
10
95.681866
20
20.843389
11
95.525100
21
21.618620
0
LINE
8
Layer 1
10
95.525100
20
21.618620
11
95.681866
21
22.418323
0
LINE
8
Layer 1
10
95.681866
20
22.418323
11
96.112475
21
23.063245
0
LINE
8
Layer 1
10
96.112475
20
23.063245
11
96.757397
21
23.493854
0
LINE
8
Layer 1
10
96.757397
20
23.493854
11
97.557100
21
23.650620
0
LINE
8
Layer 1
10
97.557100
20
23.650620
11
98.332331
21
23.493854
0
LINE
8
Layer 1
10
98.332331
20
23.493854
11
98.964686
21
23.063245
0
LINE
8
Layer 1
10
98.964686
20
23.063245
11
99.390666
21
22.418323
0
LINE
8
Layer 1
10
99.390666
20
22.418323
11
99.546770
21
21.618620
0
LINE
8
Layer 1
10
99.546770
20
21.618620
11
99.546770
21
21.618620
0
LINE
8
Layer 1
10
23.346760
20
59.718630
11
23.190656
21
58.943399
0
LINE
8
Layer 1
10
23.190656
20
58.943399
11
22.764676
21
58.311044
0
LINE
8
Layer 1
10
22.764676
20
58.311044
11
22.132321
21
57.885064
0
LINE
8
Layer 1
10
22.132321
20
57.885064
11
21.357090
21
57.728960
0
LINE
8
Layer 1
10
21.357090
20
57.728960
11
20.557387
21
57.885064
0
LINE
8
Layer 1
10
20.557387
20
57.885064
11
19.912465
21
58.311044
0
LINE
8
Layer 1
10
19.912465
20
58.311044
11
19.481856
21
58.943399
0
LINE
8
Layer 1
10
19.481856
20
58.943399
11
19.325090
21
59.718630
0
LINE
8
Layer 1
10
19.325090
20
59.718630
11
19.481856
21
60.518333
0
LINE
8
Layer 1
10
19.481856
20
60.518333
11
19.912465
21
61.163255
0
LINE
8
Layer 1
10
19.912465
20
61.163255
11
20.557387
21
61.593864
0
LINE
8
Layer 1
10
20.557387
20
61.593864
11
21.357090
21
61.750630
0
LINE
8
Layer 1
10
21.357090
20
61.750630
11
22.132321
21
61.593864
0
LINE
8
Layer 1
10
22.132321
20
61.593864
11
22.764676
21
61.163255
0
LINE
8
Layer 1
10
22.764676
20
61.163255
11
23.190656
21
60.518333
0
LINE
8
Layer 1
10
23.190656
20
60.518333
11
23.346760
21
59.718630
0
LINE
8
Layer 1
10
23.346760
20
59.718630
11
23.346760
21
59.718630
0
LINE
8
Layer 1
10
99.546770
20
59.718630
11
99.390666
21
58.943399
0
LINE
8
Layer 1
10
99.390666
20
58.943399
11
98.964686
21
58.311044
0
LINE
8
Layer 1
10
98.964686
20
58.311044
11
98.332331
21
57.885064
0
LINE
8
Layer 1
10
98.332331
20
57.885064
11
97.557100
21
57.728960
0
LINE
8
Layer 1
10
97.557100
20
57.728960
11
96.757397
21
57.885064
0
LINE
8
Layer 1
10
96.757397
20
57.885064
11
96.112475
21
58.311044
0
LINE
8
Layer 1
10
96.112475
20
58.311044
11
95.681866
21
58.943399
0
LINE
8
Layer 1
10
95.681866
20
58.943399
11
95.525100
21
59.718630
0
LINE
8
Layer 1
10
95.525100
20
59.718630
11
95.681866
21
60.518333
0
LINE
8
Layer 1
10
95.681866
20
60.518333
11
96.112475
21
61.163255
0
LINE
8
Layer 1
10
96.112475
20
61.163255
11
96.757397
21
61.593864
0
LINE
8
Layer 1
10
96.757397
20
61.593864
11
97.557100
21
61.750630
0
LINE
8
Layer 1
10
97.557100
20
61.750630
11
98.332331
21
61.593864
0
LINE
8
Layer 1
10
98.332331
20
61.593864
11
98.964686
21
61.163255
0
LINE
8
Layer 1
10
98.964686
20
61.163255
11
99.390666
21
60.518333
0
LINE
8
Layer 1
10
99.390666
20
60.518333
11
99.546770
21
59.718630
0
LINE
8
Layer 1
10
99.546770
20
59.718630
11
99.546770
21
59.718630
0
LINE
8
Layer 1
10
122.152760
20
75.170300
11
121.996656
21
74.395069
0
LINE
8
Layer 1
10
121.996656
20
74.395069
11
121.570676
21
73.762714
0
LINE
8
Layer 1
10
121.570676
20
73.762714
11
120.938321
21
73.336734
0
LINE
8
Layer 1
10
120.938321
20
73.336734
11
120.163090
21
73.180630
0
LINE
8
Layer 1
10
120.163090
20
73.180630
11
119.363387
21
73.336734
0
LINE
8
Layer 1
10
119.363387
20
73.336734
11
118.718465
21
73.762714
0
LINE
8
Layer 1
10
118.718465
20
73.762714
11
118.287856
21
74.395069
0
LINE
8
Layer 1
10
118.287856
20
74.395069
11
118.131090
21
75.170300
0
LINE
8
Layer 1
10
118.131090
20
75.170300
11
118.287856
21
75.970003
0
LINE
8
Layer 1
10
118.287856
20
75.970003
11
118.718465
21
76.614925
0
LINE
8
Layer 1
10
118.718465
20
76.614925
11
119.363387
21
77.045534
0
LINE
8
Layer 1
10
119.363387
20
77.045534
11
120.163090
21
77.202300
0
LINE
8
Layer 1
10
120.163090
20
77.202300
11
120.938321
21
77.045534
0
LINE
8
Layer 1
10
120.938321
20
77.045534
11
121.570676
21
76.614925
0
LINE
8
Layer 1
10
121.570676
20
76.614925
11
121.996656
21
75.970003
0
LINE
8
Layer 1
10
121.996656
20
75.970003
11
122.152760
21
75.170300
0
LINE
8
Layer 1
10
122.152760
20
75.170300
11
122.152760
21
75.170300
0
LINE
8
Layer 1
10
23.346760
20
21.576300
11
23.190656
21
20.801069
0
LINE
8
Layer 1
10
23.190656
20
20.801069
11
22.764676
21
20.168714
0
LINE
8
Layer 1
10
22.764676
20
20.168714
11
22.132321
21
19.742734
0
LINE
8
Layer 1
10
22.132321
20
19.742734
11
21.357090
21
19.586630
0
LINE
8
Layer 1
10
21.357090
20
19.586630
11
20.557387
21
19.742734
0
LINE
8
Layer 1
10
20.557387
20
19.742734
11
19.912465
21
20.168714
0
LINE
8
Layer 1
10
19.912465
20
20.168714
11
19.481856
21
20.801069
0
LINE
8
Layer 1
10
19.481856
20
20.801069
11
19.325090
21
21.576300
0
LINE
8
Layer 1
10
19.325090
20
21.576300
11
19.481856
21
22.376003
0
LINE
8
Layer 1
10
19.481856
20
22.376003
11
19.912465
21
23.020925
0
LINE
8
Layer 1
10
19.912465
20
23.020925
11
20.557387
21
23.451534
0
LINE
8
Layer 1
10
20.557387
20
23.451534
11
21.357090
21
23.608300
0
LINE
8
Layer 1
10
21.357090
20
23.608300
11
22.132321
21
23.451534
0
LINE
8
Layer 1
10
22.132321
20
23.451534
11
22.764676
21
23.020925
0
LINE
8
Layer 1
10
22.764676
20
23.020925
11
23.190656
21
22.376003
0
LINE
8
Layer 1
10
23.190656
20
22.376003
11
23.346760
21
21.576300
0
LINE
8
Layer 1
10
23.346760
20
21.576300
11
23.346760
21
21.576300
0
LINE
8
Layer 1
10
5.071010
20
76.228630
11
4.980610
21
76.204830
0
LINE
8
Layer 1
10
4.980610
20
76.204830
11
4.403910
21
76.204830
0
LINE
8
Layer 1
10
4.403910
20
76.204830
11
4.203920
21
76.004840
0
LINE
8
Layer 1
10
4.203920
20
76.004840
11
4.203920
21
72.548200
0
LINE
8
Layer 1
10
4.203920
20
72.548200
11
4.403910
21
72.348210
0
LINE
8
Layer 1
10
4.403910
20
72.348210
11
4.870540
21
72.348210
0
LINE
8
Layer 1
10
4.870540
20
72.348210
11
4.870540
21
64.531640
0
LINE
8
Layer 1
10
4.870540
20
64.531640
11
4.403910
21
64.531640
0
LINE
8
Layer 1
10
4.403910
20
64.531640
11
4.203920
21
64.331650
0
LINE
8
Layer 1
10
4.203920
20
64.331650
11
4.203920
21
61.867200
0
LINE
8
Layer 1
10
4.203920
20
61.867200
11
4.403910
21
61.667210
0
LINE
8
Layer 1
10
4.403910
20
61.667210
11
11.735240
21
61.667210
0
LINE
8
Layer 1
10
11.735240
20
61.667210
11
11.935230
21
61.867200
0
LINE
8
Layer 1
10
11.935230
20
61.867200
11
11.935230
21
62.258910
0
LINE
8
Layer 1
10
11.935230
20
62.258910
11
18.593220
21
62.258910
0
LINE
8
Layer 1
10
18.593220
20
62.258910
11
18.793210
21
62.458900
0
LINE
8
Layer 1
10
18.793210
20
62.458900
11
18.793210
21
70.104940
0
LINE
8
Layer 1
10
18.793210
20
70.104940
11
20.572940
21
70.104940
0
LINE
8
Layer 1
10
20.572940
20
70.104940
11
20.772930
21
70.304930
0
LINE
8
Layer 1
10
20.772930
20
70.304930
11
20.772930
21
73.262890
0
LINE
8
Layer 1
10
20.772930
20
73.262890
11
20.572940
21
73.462880
0
LINE
8
Layer 1
10
20.572940
20
73.462880
11
18.793210
21
73.462880
0
LINE
8
Layer 1
10
18.793210
20
73.462880
11
18.793210
21
76.028610
0
LINE
8
Layer 1
10
18.793210
20
76.028610
11
18.593220
21
76.228600
0
LINE
8
Layer 1
10
18.593220
20
76.228600
11
5.071010
21
76.228630
0
LINE
8
Layer 1
10
24.142180
20
75.911770
11
24.051780
21
75.887970
0
LINE
8
Layer 1
10
24.051780
20
75.887970
11
23.475070
21
75.887970
0
LINE
8
Layer 1
10
23.475070
20
75.887970
11
23.275090
21
75.687990
0
LINE
8
Layer 1
10
23.275090
20
75.687990
11
23.275090
21
72.231350
0
LINE
8
Layer 1
10
23.275090
20
72.231350
11
23.475070
21
72.031360
0
LINE
8
Layer 1
10
23.475070
20
72.031360
11
23.941710
21
72.031360
0
LINE
8
Layer 1
10
23.941710
20
72.031360
11
23.941710
21
64.214790
0
LINE
8
Layer 1
10
23.941710
20
64.214790
11
23.475070
21
64.214790
0
LINE
8
Layer 1
10
23.475070
20
64.214790
11
23.275090
21
64.014800
0
LINE
8
Layer 1
10
23.275090
20
64.014800
11
23.275090
21
61.550350
0
LINE
8
Layer 1
10
23.275090
20
61.550350
11
23.475070
21
61.350360
0
LINE
8
Layer 1
10
23.475070
20
61.350360
11
30.806410
21
61.350360
0
LINE
8
Layer 1
10
30.806410
20
61.350360
11
31.006390
21
61.550350
0
LINE
8
Layer 1
10
31.006390
20
61.550350
11
31.006390
21
61.942050
0
LINE
8
Layer 1
10
31.006390
20
61.942050
11
37.664390
21
61.942050
0
LINE
8
Layer 1
10
37.664390
20
61.942050
11
37.864380
21
62.142040
0
LINE
8
Layer 1
10
37.864380
20
62.142040
11
37.864380
21
69.788090
0
LINE
8
Layer 1
10
37.864380
20
69.788090
11
39.644110
21
69.788090
0
LINE
8
Layer 1
10
39.644110
20
69.788090
11
39.844100
21
69.988080
0
LINE
8
Layer 1
10
39.844100
20
69.988080
11
39.844100
21
72.946040
0
LINE
8
Layer 1
10
39.844100
20
72.946040
11
39.644110
21
73.146020
0
LINE
8
Layer 1
10
39.644110
20
73.146020
11
37.864380
21
73.146020
0
LINE
8
Layer 1
10
37.864380
20
73.146020
11
37.864380
21
75.711760
0
LINE
8
Layer 1
10
37.864380
20
75.711760
11
37.664390
21
75.911740
0
LINE
8
Layer 1
10
37.664390
20
75.911740
11
24.142180
21
75.911770
0
LINE
8
Layer 1
10
43.192180
20
76.228630
11
43.101780
21
76.204830
0
LINE
8
Layer 1
10
43.101780
20
76.204830
11
42.525070
21
76.204830
0
LINE
8
Layer 1
10
42.525070
20
76.204830
11
42.325090
21
76.004840
0
LINE
8
Layer 1
10
42.325090
20
76.004840
11
42.325090
21
72.548200
0
LINE
8
Layer 1
10
42.325090
20
72.548200
11
42.525070
21
72.348210
0
LINE
8
Layer 1
10
42.525070
20
72.348210
11
42.991710
21
72.348210
0
LINE
8
Layer 1
10
42.991710
20
72.348210
11
42.991710
21
64.531640
0
LINE
8
Layer 1
10
42.991710
20
64.531640
11
42.525070
21
64.531640
0
LINE
8
Layer 1
10
42.525070
20
64.531640
11
42.325090
21
64.331650
0
LINE
8
Layer 1
10
42.325090
20
64.331650
11
42.325090
21
61.867200
0
LINE
8
Layer 1
10
42.325090
20
61.867200
11
42.525070
21
61.667210
0
LINE
8
Layer 1
10
42.525070
20
61.667210
11
49.856410
21
61.667210
0
LINE
8
Layer 1
10
49.856410
20
61.667210
11
50.056390
21
61.867200
0
LINE
8
Layer 1
10
50.056390
20
61.867200
11
50.056390
21
62.258910
0
LINE
8
Layer 1
10
50.056390
20
62.258910
11
56.714390
21
62.258910
0
LINE
8
Layer 1
10
56.714390
20
62.258910
11
56.914380
21
62.458900
0
LINE
8
Layer 1
10
56.914380
20
62.458900
11
56.914380
21
70.104940
0
LINE
8
Layer 1
10
56.914380
20
70.104940
11
58.694110
21
70.104940
0
LINE
8
Layer 1
10
58.694110
20
70.104940
11
58.894100
21
70.304930
0
LINE
8
Layer 1
10
58.894100
20
70.304930
11
58.894100
21
73.262890
0
LINE
8
Layer 1
10
58.894100
20
73.262890
11
58.694110
21
73.462880
0
LINE
8
Layer 1
10
58.694110
20
73.462880
11
56.914380
21
73.462880
0
LINE
8
Layer 1
10
56.914380
20
73.462880
11
56.914380
21
76.028610
0
LINE
8
Layer 1
10
56.914380
20
76.028610
11
56.714390
21
76.228600
0
LINE
8
Layer 1
10
56.714390
20
76.228600
11
43.192180
21
76.228630
0
LINE
8
Layer 1
10
62.242180
20
76.228630
11
62.151780
21
76.204830
0
LINE
8
Layer 1
10
62.151780
20
76.204830
11
61.575070
21
76.204830
0
LINE
8
Layer 1
10
61.575070
20
76.204830
11
61.375090
21
76.004840
0
LINE
8
Layer 1
10
61.375090
20
76.004840
11
61.375090
21
72.548200
0
LINE
8
Layer 1
10
61.375090
20
72.548200
11
61.575070
21
72.348210
0
LINE
8
Layer 1
10
61.575070
20
72.348210
11
62.041710
21
72.348210
0
LINE
8
Layer 1
10
62.041710
20
72.348210
11
62.041710
21
64.531640
0
LINE
8
Layer 1
10
62.041710
20
64.531640
11
61.575070
21
64.531640
0
LINE
8
Layer 1
10
61.575070
20
64.531640
11
61.375090
21
64.331650
0
LINE
8
Layer 1
10
61.375090
20
64.331650
11
61.375090
21
61.867200
0
LINE
8
Layer 1
10
61.375090
20
61.867200
11
61.575070
21
61.667210
0
LINE
8
Layer 1
10
61.575070
20
61.667210
11
68.906410
21
61.667210
0
LINE
8
Layer 1
10
68.906410
20
61.667210
11
69.106390
21
61.867200
0
LINE
8
Layer 1
10
69.106390
20
61.867200
11
69.106390
21
62.258910
0
LINE
8
Layer 1
10
69.106390
20
62.258910
11
75.764390
21
62.258910
0
LINE
8
Layer 1
10
75.764390
20
62.258910
11
75.964380
21
62.458900
0
LINE
8
Layer 1
10
75.964380
20
62.458900
11
75.964380
21
70.104940
0
LINE
8
Layer 1
10
75.964380
20
70.104940
11
77.744110
21
70.104940
0
LINE
8
Layer 1
10
77.744110
20
70.104940
11
77.944100
21
70.304930
0
LINE
8
Layer 1
10
77.944100
20
70.304930
11
77.944100
21
73.262890
0
LINE
8
Layer 1
10
77.944100
20
73.262890
11
77.744110
21
73.462880
0
LINE
8
Layer 1
10
77.744110
20
73.462880
11
75.964380
21
73.462880
0
LINE
8
Layer 1
10
75.964380
20
73.462880
11
75.964380
21
76.028610
0
LINE
8
Layer 1
10
75.964380
20
76.028610
11
75.764390
21
76.228600
0
LINE
8
Layer 1
10
75.764390
20
76.228600
11
62.242180
21
76.228630
0
LINE
8
Layer 1
10
81.292180
20
76.228630
11
81.201780
21
76.204830
0
LINE
8
Layer 1
10
81.201780
20
76.204830
11
80.625070
21
76.204830
0
LINE
8
Layer 1
10
80.625070
20
76.204830
11
80.425090
21
76.004840
0
LINE
8
Layer 1
10
80.425090
20
76.004840
11
80.425090
21
72.548200
0
LINE
8
Layer 1
10
80.425090
20
72.548200
11
80.625070
21
72.348210
0
LINE
8
Layer 1
10
80.625070
20
72.348210
11
81.091710
21
72.348210
0
LINE
8
Layer 1
10
81.091710
20
72.348210
11
81.091710
21
64.531640
0
LINE
8
Layer 1
10
81.091710
20
64.531640
11
80.625070
21
64.531640
0
LINE
8
Layer 1
10
80.625070
20
64.531640
11
80.425090
21
64.331650
0
LINE
8
Layer 1
10
80.425090
20
64.331650
11
80.425090
21
61.867200
0
LINE
8
Layer 1
10
80.425090
20
61.867200
11
80.625070
21
61.667210
0
LINE
8
Layer 1
10
80.625070
20
61.667210
11
87.956410
21
61.667210
0
LINE
8
Layer 1
10
87.956410
20
61.667210
11
88.156390
21
61.867200
0
LINE
8
Layer 1
10
88.156390
20
61.867200
11
88.156390
21
62.258910
0
LINE
8
Layer 1
10
88.156390
20
62.258910
11
94.814390
21
62.258910
0
LINE
8
Layer 1
10
94.814390
20
62.258910
11
95.014370
21
62.458900
0
LINE
8
Layer 1
10
95.014370
20
62.458900
11
95.014370
21
70.104940
0
LINE
8
Layer 1
10
95.014370
20
70.104940
11
96.794110
21
70.104940
0
LINE
8
Layer 1
10
96.794110
20
70.104940
11
96.994100
21
70.304930
0
LINE
8
Layer 1
10
96.994100
20
70.304930
11
96.994100
21
73.262890
0
LINE
8
Layer 1
10
96.994100
20
73.262890
11
96.794110
21
73.462880
0
LINE
8
Layer 1
10
96.794110
20
73.462880
11
95.014370
21
73.462880
0
LINE
8
Layer 1
10
95.014370
20
73.462880
11
95.014370
21
76.028610
0
LINE
8
Layer 1
10
95.014370
20
76.028610
11
94.814390
21
76.228600
0
LINE
8
Layer 1
10
94.814390
20
76.228600
11
81.292180
21
76.228630
0
LINE
8
Layer 1
10
100.342180
20
76.228630
11
100.251780
21
76.204830
0
LINE
8
Layer 1
10
100.251780
20
76.204830
11
99.675070
21
76.204830
0
LINE
8
Layer 1
10
99.675070
20
76.204830
11
99.475090
21
76.004840
0
LINE
8
Layer 1
10
99.475090
20
76.004840
11
99.475090
21
72.548200
0
LINE
8
Layer 1
10
99.475090
20
72.548200
11
99.675070
21
72.348210
0
LINE
8
Layer 1
10
99.675070
20
72.348210
11
100.141710
21
72.348210
0
LINE
8
Layer 1
10
100.141710
20
72.348210
11
100.141710
21
64.531640
0
LINE
8
Layer 1
10
100.141710
20
64.531640
11
99.675070
21
64.531640
0
LINE
8
Layer 1
10
99.675070
20
64.531640
11
99.475090
21
64.331650
0
LINE
8
Layer 1
10
99.475090
20
64.331650
11
99.475090
21
61.867200
0
LINE
8
Layer 1
10
99.475090
20
61.867200
11
99.675070
21
61.667210
0
LINE
8
Layer 1
10
99.675070
20
61.667210
11
107.006410
21
61.667210
0
LINE
8
Layer 1
10
107.006410
20
61.667210
11
107.206390
21
61.867200
0
LINE
8
Layer 1
10
107.206390
20
61.867200
11
107.206390
21
62.258910
0
LINE
8
Layer 1
10
107.206390
20
62.258910
11
113.864390
21
62.258910
0
LINE
8
Layer 1
10
113.864390
20
62.258910
11
114.064370
21
62.458900
0
LINE
8
Layer 1
10
114.064370
20
62.458900
11
114.064370
21
70.104940
0
LINE
8
Layer 1
10
114.064370
20
70.104940
11
115.844110
21
70.104940
0
LINE
8
Layer 1
10
115.844110
20
70.104940
11
116.044100
21
70.304930
0
LINE
8
Layer 1
10
116.044100
20
70.304930
11
116.044100
21
73.262890
0
LINE
8
Layer 1
10
116.044100
20
73.262890
11
115.844110
21
73.462880
0
LINE
8
Layer 1
10
115.844110
20
73.462880
11
114.064370
21
73.462880
0
LINE
8
Layer 1
10
114.064370
20
73.462880
11
114.064370
21
76.028610
0
LINE
8
Layer 1
10
114.064370
20
76.028610
11
113.864390
21
76.228600
0
LINE
8
Layer 1
10
113.864390
20
76.228600
11
100.342180
21
76.228630
0
LINE
8
Layer 1
10
157.449840
20
76.228630
11
157.359440
21
76.204830
0
LINE
8
Layer 1
10
157.359440
20
76.204830
11
156.782730
21
76.204830
0
LINE
8
Layer 1
10
156.782730
20
76.204830
11
156.582750
21
76.004840
0
LINE
8
Layer 1
10
156.582750
20
76.004840
11
156.582750
21
72.548200
0
LINE
8
Layer 1
10
156.582750
20
72.548200
11
156.782730
21
72.348210
0
LINE
8
Layer 1
10
156.782730
20
72.348210
11
157.249370
21
72.348210
0
LINE
8
Layer 1
10
157.249370
20
72.348210
11
157.249370
21
64.531640
0
LINE
8
Layer 1
10
157.249370
20
64.531640
11
156.782730
21
64.531640
0
LINE
8
Layer 1
10
156.782730
20
64.531640
11
156.582750
21
64.331650
0
LINE
8
Layer 1
10
156.582750
20
64.331650
11
156.582750
21
61.867200
0
LINE
8
Layer 1
10
156.582750
20
61.867200
11
156.782730
21
61.667210
0
LINE
8
Layer 1
10
156.782730
20
61.667210
11
164.114070
21
61.667210
0
LINE
8
Layer 1
10
164.114070
20
61.667210
11
164.314050
21
61.867200
0
LINE
8
Layer 1
10
164.314050
20
61.867200
11
164.314050
21
62.258910
0
LINE
8
Layer 1
10
164.314050
20
62.258910
11
170.972050
21
62.258910
0
LINE
8
Layer 1
10
170.972050
20
62.258910
11
171.172030
21
62.458900
0
LINE
8
Layer 1
10
171.172030
20
62.458900
11
171.172030
21
70.104940
0
LINE
8
Layer 1
10
171.172030
20
70.104940
11
172.951770
21
70.104940
0
LINE
8
Layer 1
10
172.951770
20
70.104940
11
173.151760
21
70.304930
0
LINE
8
Layer 1
10
173.151760
20
70.304930
11
173.151760
21
73.262890
0
LINE
8
Layer 1
10
173.151760
20
73.262890
11
172.951770
21
73.462880
0
LINE
8
Layer 1
10
172.951770
20
73.462880
11
171.172030
21
73.462880
0
LINE
8
Layer 1
10
171.172030
20
73.462880
11
171.172030
21
76.028610
0
LINE
8
Layer 1
10
171.172030
20
76.028610
11
170.972050
21
76.228600
0
LINE
8
Layer 1
10
170.972050
20
76.228600
11
157.449840
21
76.228630
0
LINE
8
Layer 1
10
176.499840
20
76.228630
11
176.409440
21
76.204830
0
LINE
8
Layer 1
10
176.409440
20
76.204830
11
175.832730
21
76.204830
0
LINE
8
Layer 1
10
175.832730
20
76.204830
11
175.632750
21
76.004840
0
LINE
8
Layer 1
10
175.632750
20
76.004840
11
175.632750
21
72.548200
0
LINE
8
Layer 1
10
175.632750
20
72.548200
11
175.832730
21
72.348210
0
LINE
8
Layer 1
10
175.832730
20
72.348210
11
176.299370
21
72.348210
0
LINE
8
Layer 1
10
176.299370
20
72.348210
11
176.299370
21
64.531640
0
LINE
8
Layer 1
10
176.299370
20
64.531640
11
175.832730
21
64.531640
0
LINE
8
Layer 1
10
175.832730
20
64.531640
11
175.632750
21
64.331650
0
LINE
8
Layer 1
10
175.632750
20
64.331650
11
175.632750
21
61.867200
0
LINE
8
Layer 1
10
175.632750
20
61.867200
11
175.832730
21
61.667210
0
LINE
8
Layer 1
10
175.832730
20
61.667210
11
183.164070
21
61.667210
0
LINE
8
Layer 1
10
183.164070
20
61.667210
11
183.364050
21
61.867200
0
LINE
8
Layer 1
10
183.364050
20
61.867200
11
183.364050
21
62.258910
0
LINE
8
Layer 1
10
183.364050
20
62.258910
11
190.022050
21
62.258910
0
LINE
8
Layer 1
10
190.022050
20
62.258910
11
190.222040
21
62.458900
0
LINE
8
Layer 1
10
190.222040
20
62.458900
11
190.222040
21
70.104940
0
LINE
8
Layer 1
10
190.222040
20
70.104940
11
192.001770
21
70.104940
0
LINE
8
Layer 1
10
192.001770
20
70.104940
11
192.201770
21
70.304930
0
LINE
8
Layer 1
10
192.201770
20
70.304930
11
192.201770
21
73.262890
0
LINE
8
Layer 1
10
192.201770
20
73.262890
11
192.001770
21
73.462880
0
LINE
8
Layer 1
10
192.001770
20
73.462880
11
190.222000
21
73.462880
0
LINE
8
Layer 1
10
190.222000
20
73.462880
11
190.222000
21
76.028610
0
LINE
8
Layer 1
10
190.222000
20
76.028610
11
190.022010
21
76.228600
0
LINE
8
Layer 1
10
190.022010
20
76.228600
11
176.499840
21
76.228630
0
LINE
8
Layer 1
10
195.528680
20
76.228630
11
195.438280
21
76.204830
0
LINE
8
Layer 1
10
195.438280
20
76.204830
11
194.861570
21
76.204830
0
LINE
8
Layer 1
10
194.861570
20
76.204830
11
194.661570
21
76.004840
0
LINE
8
Layer 1
10
194.661570
20
76.004840
11
194.661570
21
72.548200
0
LINE
8
Layer 1
10
194.661570
20
72.548200
11
194.861570
21
72.348210
0
LINE
8
Layer 1
10
194.861570
20
72.348210
11
195.328190
21
72.348210
0
LINE
8
Layer 1
10
195.328190
20
72.348210
11
195.328190
21
64.531640
0
LINE
8
Layer 1
10
195.328190
20
64.531640
11
194.861570
21
64.531640
0
LINE
8
Layer 1
10
194.861570
20
64.531640
11
194.661570
21
64.331650
0
LINE
8
Layer 1
10
194.661570
20
64.331650
11
194.661570
21
61.867200
0
LINE
8
Layer 1
10
194.661570
20
61.867200
11
194.861570
21
61.667210
0
LINE
8
Layer 1
10
194.861570
20
61.667210
11
202.192910
21
61.667210
0
LINE
8
Layer 1
10
202.192910
20
61.667210
11
202.392880
21
61.867200
0
LINE
8
Layer 1
10
202.392880
20
61.867200
11
202.392880
21
62.258910
0
LINE
8
Layer 1
10
202.392880
20
62.258910
11
209.050880
21
62.258910
0
LINE
8
Layer 1
10
209.050880
20
62.258910
11
209.250880
21
62.458900
0
LINE
8
Layer 1
10
209.250880
20
62.458900
11
209.250880
21
70.104940
0
LINE
8
Layer 1
10
209.250880
20
70.104940
11
211.030600
21
70.104940
0
LINE
8
Layer 1
10
211.030600
20
70.104940
11
211.230600
21
70.304930
0
LINE
8
Layer 1
10
211.230600
20
70.304930
11
211.230600
21
73.262890
0
LINE
8
Layer 1
10
211.230600
20
73.262890
11
211.030600
21
73.462880
0
LINE
8
Layer 1
10
211.030600
20
73.462880
11
209.250880
21
73.462880
0
LINE
8
Layer 1
10
209.250880
20
73.462880
11
209.250880
21
76.028610
0
LINE
8
Layer 1
10
209.250880
20
76.028610
11
209.050880
21
76.228600
0
LINE
8
Layer 1
10
209.050880
20
76.228600
11
195.528680
21
76.228630
0
LINE
8
Layer 1
10
214.599840
20
76.228630
11
214.509440
21
76.204830
0
LINE
8
Layer 1
10
214.509440
20
76.204830
11
213.932730
21
76.204830
0
LINE
8
Layer 1
10
213.932730
20
76.204830
11
213.732730
21
76.004840
0
LINE
8
Layer 1
10
213.732730
20
76.004840
11
213.732730
21
72.548200
0
LINE
8
Layer 1
10
213.732730
20
72.548200
11
213.932730
21
72.348210
0
LINE
8
Layer 1
10
213.932730
20
72.348210
11
214.399370
21
72.348210
0
LINE
8
Layer 1
10
214.399370
20
72.348210
11
214.399370
21
64.531640
0
LINE
8
Layer 1
10
214.399370
20
64.531640
11
213.932730
21
64.531640
0
LINE
8
Layer 1
10
213.932730
20
64.531640
11
213.732730
21
64.331650
0
LINE
8
Layer 1
10
213.732730
20
64.331650
11
213.732730
21
61.867200
0
LINE
8
Layer 1
10
213.732730
20
61.867200
11
213.932730
21
61.667210
0
LINE
8
Layer 1
10
213.932730
20
61.667210
11
221.264070
21
61.667210
0
LINE
8
Layer 1
10
221.264070
20
61.667210
11
221.464040
21
61.867200
0
LINE
8
Layer 1
10
221.464040
20
61.867200
11
221.464040
21
62.258910
0
LINE
8
Layer 1
10
221.464040
20
62.258910
11
228.122040
21
62.258910
0
LINE
8
Layer 1
10
228.122040
20
62.258910
11
228.322040
21
62.458900
0
LINE
8
Layer 1
10
228.322040
20
62.458900
11
228.322040
21
70.104940
0
LINE
8
Layer 1
10
228.322040
20
70.104940
11
230.101760
21
70.104940
0
LINE
8
Layer 1
10
230.101760
20
70.104940
11
230.301760
21
70.304930
0
LINE
8
Layer 1
10
230.301760
20
70.304930
11
230.301760
21
73.262890
0
LINE
8
Layer 1
10
230.301760
20
73.262890
11
230.101760
21
73.462880
0
LINE
8
Layer 1
10
230.101760
20
73.462880
11
228.322040
21
73.462880
0
LINE
8
Layer 1
10
228.322040
20
73.462880
11
228.322040
21
76.028610
0
LINE
8
Layer 1
10
228.322040
20
76.028610
11
228.122040
21
76.228600
0
LINE
8
Layer 1
10
228.122040
20
76.228600
11
214.599840
21
76.228630
0
LINE
8
Layer 1
10
233.649840
20
76.228630
11
233.559440
21
76.204830
0
LINE
8
Layer 1
10
233.559440
20
76.204830
11
232.982730
21
76.204830
0
LINE
8
Layer 1
10
232.982730
20
76.204830
11
232.782730
21
76.004840
0
LINE
8
Layer 1
10
232.782730
20
76.004840
11
232.782730
21
72.548200
0
LINE
8
Layer 1
10
232.782730
20
72.548200
11
232.982730
21
72.348210
0
LINE
8
Layer 1
10
232.982730
20
72.348210
11
233.449370
21
72.348210
0
LINE
8
Layer 1
10
233.449370
20
72.348210
11
233.449370
21
64.531640
0
LINE
8
Layer 1
10
233.449370
20
64.531640
11
232.982730
21
64.531640
0
LINE
8
Layer 1
10
232.982730
20
64.531640
11
232.782730
21
64.331650
0
LINE
8
Layer 1
10
232.782730
20
64.331650
11
232.782730
21
61.867200
0
LINE
8
Layer 1
10
232.782730
20
61.867200
11
232.982730
21
61.667210
0
LINE
8
Layer 1
10
232.982730
20
61.667210
11
240.314070
21
61.667210
0
LINE
8
Layer 1
10
240.314070
20
61.667210
11
240.514040
21
61.867200
0
LINE
8
Layer 1
10
240.514040
20
61.867200
11
240.514040
21
62.258910
0
LINE
8
Layer 1
10
240.514040
20
62.258910
11
247.172040
21
62.258910
0
LINE
8
Layer 1
10
247.172040
20
62.258910
11
247.372040
21
62.458900
0
LINE
8
Layer 1
10
247.372040
20
62.458900
11
247.372040
21
70.104940
0
LINE
8
Layer 1
10
247.372040
20
70.104940
11
249.151760
21
70.104940
0
LINE
8
Layer 1
10
249.151760
20
70.104940
11
249.351760
21
70.304930
0
LINE
8
Layer 1
10
249.351760
20
70.304930
11
249.351760
21
73.262890
0
LINE
8
Layer 1
10
249.351760
20
73.262890
11
249.151760
21
73.462880
0
LINE
8
Layer 1
10
249.151760
20
73.462880
11
247.372040
21
73.462880
0
LINE
8
Layer 1
10
247.372040
20
73.462880
11
247.372040
21
76.028610
0
LINE
8
Layer 1
10
247.372040
20
76.028610
11
247.172040
21
76.228600
0
LINE
8
Layer 1
10
247.172040
20
76.228600
11
233.649840
21
76.228630
0
LINE
8
Layer 1
10
252.699840
20
76.228630
11
252.609440
21
76.204830
0
LINE
8
Layer 1
10
252.609440
20
76.204830
11
252.032730
21
76.204830
0
LINE
8
Layer 1
10
252.032730
20
76.204830
11
251.832730
21
76.004840
0
LINE
8
Layer 1
10
251.832730
20
76.004840
11
251.832730
21
72.548200
0
LINE
8
Layer 1
10
251.832730
20
72.548200
11
252.032730
21
72.348210
0
LINE
8
Layer 1
10
252.032730
20
72.348210
11
252.499370
21
72.348210
0
LINE
8
Layer 1
10
252.499370
20
72.348210
11
252.499370
21
64.531640
0
LINE
8
Layer 1
10
252.499370
20
64.531640
11
252.032730
21
64.531640
0
LINE
8
Layer 1
10
252.032730
20
64.531640
11
251.832730
21
64.331650
0
LINE
8
Layer 1
10
251.832730
20
64.331650
11
251.832730
21
61.867200
0
LINE
8
Layer 1
10
251.832730
20
61.867200
11
252.032730
21
61.667210
0
LINE
8
Layer 1
10
252.032730
20
61.667210
11
259.364070
21
61.667210
0
LINE
8
Layer 1
10
259.364070
20
61.667210
11
259.564040
21
61.867200
0
LINE
8
Layer 1
10
259.564040
20
61.867200
11
259.564040
21
62.258910
0
LINE
8
Layer 1
10
259.564040
20
62.258910
11
266.222040
21
62.258910
0
LINE
8
Layer 1
10
266.222040
20
62.258910
11
266.422040
21
62.458900
0
LINE
8
Layer 1
10
266.422040
20
62.458900
11
266.422040
21
70.104940
0
LINE
8
Layer 1
10
266.422040
20
70.104940
11
268.201760
21
70.104940
0
LINE
8
Layer 1
10
268.201760
20
70.104940
11
268.401760
21
70.304930
0
LINE
8
Layer 1
10
268.401760
20
70.304930
11
268.401760
21
73.262890
0
LINE
8
Layer 1
10
268.401760
20
73.262890
11
268.201760
21
73.462880
0
LINE
8
Layer 1
10
268.201760
20
73.462880
11
266.422040
21
73.462880
0
LINE
8
Layer 1
10
266.422040
20
73.462880
11
266.422040
21
76.028610
0
LINE
8
Layer 1
10
266.422040
20
76.028610
11
266.222040
21
76.228600
0
LINE
8
Layer 1
10
266.222040
20
76.228600
11
252.699840
21
76.228630
0
LINE
8
Layer 1
10
5.071010
20
57.178630
11
4.980610
21
57.154830
0
LINE
8
Layer 1
10
4.980610
20
57.154830
11
4.403910
21
57.154830
0
LINE
8
Layer 1
10
4.403910
20
57.154830
11
4.203920
21
56.954840
0
LINE
8
Layer 1
10
4.203920
20
56.954840
11
4.203920
21
53.498200
0
LINE
8
Layer 1
10
4.203920
20
53.498200
11
4.403910
21
53.298220
0
LINE
8
Layer 1
10
4.403910
20
53.298220
11
4.870540
21
53.298220
0
LINE
8
Layer 1
10
4.870540
20
53.298220
11
4.870540
21
45.481640
0
LINE
8
Layer 1
10
4.870540
20
45.481640
11
4.403910
21
45.481640
0
LINE
8
Layer 1
10
4.403910
20
45.481640
11
4.203920
21
45.281650
0
LINE
8
Layer 1
10
4.203920
20
45.281650
11
4.203920
21
42.817200
0
LINE
8
Layer 1
10
4.203920
20
42.817200
11
4.403910
21
42.617210
0
LINE
8
Layer 1
10
4.403910
20
42.617210
11
11.735240
21
42.617210
0
LINE
8
Layer 1
10
11.735240
20
42.617210
11
11.935230
21
42.817200
0
LINE
8
Layer 1
10
11.935230
20
42.817200
11
11.935230
21
43.208910
0
LINE
8
Layer 1
10
11.935230
20
43.208910
11
18.593220
21
43.208910
0
LINE
8
Layer 1
10
18.593220
20
43.208910
11
18.793210
21
43.408900
0
LINE
8
Layer 1
10
18.793210
20
43.408900
11
18.793210
21
51.054940
0
LINE
8
Layer 1
10
18.793210
20
51.054940
11
20.572940
21
51.054940
0
LINE
8
Layer 1
10
20.572940
20
51.054940
11
20.772930
21
51.254930
0
LINE
8
Layer 1
10
20.772930
20
51.254930
11
20.772930
21
54.212890
0
LINE
8
Layer 1
10
20.772930
20
54.212890
11
20.572940
21
54.412880
0
LINE
8
Layer 1
10
20.572940
20
54.412880
11
18.793210
21
54.412880
0
LINE
8
Layer 1
10
18.793210
20
54.412880
11
18.793210
21
56.978610
0
LINE
8
Layer 1
10
18.793210
20
56.978610
11
18.593220
21
57.178600
0
LINE
8
Layer 1
10
18.593220
20
57.178600
11
5.071010
21
57.178630
0
LINE
8
Layer 1
10
5.071010
20
38.128630
11
4.980610
21
38.104830
0
LINE
8
Layer 1
10
4.980610
20
38.104830
11
4.403910
21
38.104830
0
LINE
8
Layer 1
10
4.403910
20
38.104830
11
4.203920
21
37.904850
0
LINE
8
Layer 1
10
4.203920
20
37.904850
11
4.203920
21
34.448210
0
LINE
8
Layer 1
10
4.203920
20
34.448210
11
4.403910
21
34.248220
0
LINE
8
Layer 1
10
4.403910
20
34.248220
11
4.870540
21
34.248220
0
LINE
8
Layer 1
10
4.870540
20
34.248220
11
4.870540
21
26.431650
0
LINE
8
Layer 1
10
4.870540
20
26.431650
11
4.403910
21
26.431650
0
LINE
8
Layer 1
10
4.403910
20
26.431650
11
4.203920
21
26.231660
0
LINE
8
Layer 1
10
4.203920
20
26.231660
11
4.203920
21
23.767210
0
LINE
8
Layer 1
10
4.203920
20
23.767210
11
4.403910
21
23.567220
0
LINE
8
Layer 1
10
4.403910
20
23.567220
11
11.735240
21
23.567220
0
LINE
8
Layer 1
10
11.735240
20
23.567220
11
11.935230
21
23.767210
0
LINE
8
Layer 1
10
11.935230
20
23.767210
11
11.935230
21
24.158910
0
LINE
8
Layer 1
10
11.935230
20
24.158910
11
18.593220
21
24.158910
0
LINE
8
Layer 1
10
18.593220
20
24.158910
11
18.793210
21
24.358900
0
LINE
8
Layer 1
10
18.793210
20
24.358900
11
18.793210
21
32.004950
0
LINE
8
Layer 1
10
18.793210
20
32.004950
11
20.572940
21
32.004950
0
LINE
8
Layer 1
10
20.572940
20
32.004950
11
20.772930
21
32.204940
0
LINE
8
Layer 1
10
20.772930
20
32.204940
11
20.772930
21
35.162900
0
LINE
8
Layer 1
10
20.772930
20
35.162900
11
20.572940
21
35.362880
0
LINE
8
Layer 1
10
20.572940
20
35.362880
11
18.793210
21
35.362880
0
LINE
8
Layer 1
10
18.793210
20
35.362880
11
18.793210
21
37.928620
0
LINE
8
Layer 1
10
18.793210
20
37.928620
11
18.593220
21
38.128610
0
LINE
8
Layer 1
10
18.593220
20
38.128610
11
5.071010
21
38.128630
0
LINE
8
Layer 1
10
24.121010
20
57.178630
11
24.030610
21
57.154830
0
LINE
8
Layer 1
10
24.030610
20
57.154830
11
23.453900
21
57.154830
0
LINE
8
Layer 1
10
23.453900
20
57.154830
11
23.253910
21
56.954840
0
LINE
8
Layer 1
10
23.253910
20
56.954840
11
23.253910
21
53.498200
0
LINE
8
Layer 1
10
23.253910
20
53.498200
11
23.453900
21
53.298220
0
LINE
8
Layer 1
10
23.453900
20
53.298220
11
23.920530
21
53.298220
0
LINE
8
Layer 1
10
23.920530
20
53.298220
11
23.920530
21
45.481640
0
LINE
8
Layer 1
10
23.920530
20
45.481640
11
23.453900
21
45.481640
0
LINE
8
Layer 1
10
23.453900
20
45.481640
11
23.253910
21
45.281650
0
LINE
8
Layer 1
10
23.253910
20
45.281650
11
23.253910
21
42.817200
0
LINE
8
Layer 1
10
23.253910
20
42.817200
11
23.453900
21
42.617210
0
LINE
8
Layer 1
10
23.453900
20
42.617210
11
30.785230
21
42.617210
0
LINE
8
Layer 1
10
30.785230
20
42.617210
11
30.985220
21
42.817200
0
LINE
8
Layer 1
10
30.985220
20
42.817200
11
30.985220
21
43.208910
0
LINE
8
Layer 1
10
30.985220
20
43.208910
11
37.643210
21
43.208910
0
LINE
8
Layer 1
10
37.643210
20
43.208910
11
37.843200
21
43.408900
0
LINE
8
Layer 1
10
37.843200
20
43.408900
11
37.843200
21
51.054940
0
LINE
8
Layer 1
10
37.843200
20
51.054940
11
39.622930
21
51.054940
0
LINE
8
Layer 1
10
39.622930
20
51.054940
11
39.822920
21
51.254930
0
LINE
8
Layer 1
10
39.822920
20
51.254930
11
39.822920
21
54.212890
0
LINE
8
Layer 1
10
39.822920
20
54.212890
11
39.622930
21
54.412880
0
LINE
8
Layer 1
10
39.622930
20
54.412880
11
37.843200
21
54.412880
0
LINE
8
Layer 1
10
37.843200
20
54.412880
11
37.843200
21
56.978610
0
LINE
8
Layer 1
10
37.843200
20
56.978610
11
37.643210
21
57.178600
0
LINE
8
Layer 1
10
37.643210
20
57.178600
11
24.121010
21
57.178630
0
LINE
8
Layer 1
10
24.121010
20
38.128630
11
24.030610
21
38.104830
0
LINE
8
Layer 1
10
24.030610
20
38.104830
11
23.453900
21
38.104830
0
LINE
8
Layer 1
10
23.453900
20
38.104830
11
23.253910
21
37.904850
0
LINE
8
Layer 1
10
23.253910
20
37.904850
11
23.253910
21
34.448210
0
LINE
8
Layer 1
10
23.253910
20
34.448210
11
23.453900
21
34.248220
0
LINE
8
Layer 1
10
23.453900
20
34.248220
11
23.920530
21
34.248220
0
LINE
8
Layer 1
10
23.920530
20
34.248220
11
23.920530
21
26.431650
0
LINE
8
Layer 1
10
23.920530
20
26.431650
11
23.453900
21
26.431650
0
LINE
8
Layer 1
10
23.453900
20
26.431650
11
23.253910
21
26.231660
0
LINE
8
Layer 1
10
23.253910
20
26.231660
11
23.253910
21
23.767210
0
LINE
8
Layer 1
10
23.253910
20
23.767210
11
23.453900
21
23.567220
0
LINE
8
Layer 1
10
23.453900
20
23.567220
11
30.785230
21
23.567220
0
LINE
8
Layer 1
10
30.785230
20
23.567220
11
30.985220
21
23.767210
0
LINE
8
Layer 1
10
30.985220
20
23.767210
11
30.985220
21
24.158910
0
LINE
8
Layer 1
10
30.985220
20
24.158910
11
37.643210
21
24.158910
0
LINE
8
Layer 1
10
37.643210
20
24.158910
11
37.843200
21
24.358900
0
LINE
8
Layer 1
10
37.843200
20
24.358900
11
37.843200
21
32.004950
0
LINE
8
Layer 1
10
37.843200
20
32.004950
11
39.622930
21
32.004950
0
LINE
8
Layer 1
10
39.622930
20
32.004950
11
39.822920
21
32.204940
0
LINE
8
Layer 1
10
39.822920
20
32.204940
11
39.822920
21
35.162900
0
LINE
8
Layer 1
10
39.822920
20
35.162900
11
39.622930
21
35.362880
0
LINE
8
Layer 1
10
39.622930
20
35.362880
11
37.843200
21
35.362880
0
LINE
8
Layer 1
10
37.843200
20
35.362880
11
37.843200
21
37.928620
0
LINE
8
Layer 1
10
37.843200
20
37.928620
11
37.643210
21
38.128610
0
LINE
8
Layer 1
10
37.643210
20
38.128610
11
24.121010
21
38.128630
0
LINE
8
Layer 1
10
24.121010
20
19.078630
11
24.030610
21
19.054930
0
LINE
8
Layer 1
10
24.030610
20
19.054930
11
23.453900
21
19.054930
0
LINE
8
Layer 1
10
23.453900
20
19.054930
11
23.253910
21
18.854940
0
LINE
8
Layer 1
10
23.253910
20
18.854940
11
23.253910
21
15.398300
0
LINE
8
Layer 1
10
23.253910
20
15.398300
11
23.453900
21
15.198310
0
LINE
8
Layer 1
10
23.453900
20
15.198310
11
23.920530
21
15.198310
0
LINE
8
Layer 1
10
23.920530
20
15.198310
11
23.920530
21
7.381740
0
LINE
8
Layer 1
10
23.920530
20
7.381740
11
23.453900
21
7.381740
0
LINE
8
Layer 1
10
23.453900
20
7.381740
11
23.253910
21
7.181750
0
LINE
8
Layer 1
10
23.253910
20
7.181750
11
23.253910
21
4.717300
0
LINE
8
Layer 1
10
23.253910
20
4.717300
11
23.453900
21
4.517310
0
LINE
8
Layer 1
10
23.453900
20
4.517310
11
30.785230
21
4.517310
0
LINE
8
Layer 1
10
30.785230
20
4.517310
11
30.985220
21
4.717300
0
LINE
8
Layer 1
10
30.985220
20
4.717300
11
30.985220
21
5.109010
0
LINE
8
Layer 1
10
30.985220
20
5.109010
11
37.643210
21
5.109010
0
LINE
8
Layer 1
10
37.643210
20
5.109010
11
37.843200
21
5.308990
0
LINE
8
Layer 1
10
37.843200
20
5.308990
11
37.843200
21
12.955040
0
LINE
8
Layer 1
10
37.843200
20
12.955040
11
39.622930
21
12.955040
0
LINE
8
Layer 1
10
39.622930
20
12.955040
11
39.822920
21
13.155030
0
LINE
8
Layer 1
10
39.822920
20
13.155030
11
39.822920
21
16.112990
0
LINE
8
Layer 1
10
39.822920
20
16.112990
11
39.622930
21
16.312970
0
LINE
8
Layer 1
10
39.622930
20
16.312970
11
37.843200
21
16.312970
0
LINE
8
Layer 1
10
37.843200
20
16.312970
11
37.843200
21
18.878710
0
LINE
8
Layer 1
10
37.843200
20
18.878710
11
37.643210
21
19.078700
0
LINE
8
Layer 1
10
37.643210
20
19.078700
11
24.121010
21
19.078630
0
LINE
8
Layer 1
10
43.171010
20
19.078630
11
43.080610
21
19.054930
0
LINE
8
Layer 1
10
43.080610
20
19.054930
11
42.503910
21
19.054930
0
LINE
8
Layer 1
10
42.503910
20
19.054930
11
42.303920
21
18.854940
0
LINE
8
Layer 1
10
42.303920
20
18.854940
11
42.303920
21
15.398300
0
LINE
8
Layer 1
10
42.303920
20
15.398300
11
42.503910
21
15.198310
0
LINE
8
Layer 1
10
42.503910
20
15.198310
11
42.970540
21
15.198310
0
LINE
8
Layer 1
10
42.970540
20
15.198310
11
42.970540
21
7.381740
0
LINE
8
Layer 1
10
42.970540
20
7.381740
11
42.503910
21
7.381740
0
LINE
8
Layer 1
10
42.503910
20
7.381740
11
42.303920
21
7.181750
0
LINE
8
Layer 1
10
42.303920
20
7.181750
11
42.303920
21
4.717300
0
LINE
8
Layer 1
10
42.303920
20
4.717300
11
42.503910
21
4.517310
0
LINE
8
Layer 1
10
42.503910
20
4.517310
11
49.835240
21
4.517310
0
LINE
8
Layer 1
10
49.835240
20
4.517310
11
50.035230
21
4.717300
0
LINE
8
Layer 1
10
50.035230
20
4.717300
11
50.035230
21
5.109010
0
LINE
8
Layer 1
10
50.035230
20
5.109010
11
56.693220
21
5.109010
0
LINE
8
Layer 1
10
56.693220
20
5.109010
11
56.893210
21
5.308990
0
LINE
8
Layer 1
10
56.893210
20
5.308990
11
56.893210
21
12.955040
0
LINE
8
Layer 1
10
56.893210
20
12.955040
11
58.672940
21
12.955040
0
LINE
8
Layer 1
10
58.672940
20
12.955040
11
58.872930
21
13.155030
0
LINE
8
Layer 1
10
58.872930
20
13.155030
11
58.872930
21
16.112990
0
LINE
8
Layer 1
10
58.872930
20
16.112990
11
58.672940
21
16.312970
0
LINE
8
Layer 1
10
58.672940
20
16.312970
11
56.893210
21
16.312970
0
LINE
8
Layer 1
10
56.893210
20
16.312970
11
56.893210
21
18.878710
0
LINE
8
Layer 1
10
56.893210
20
18.878710
11
56.693220
21
19.078700
0
LINE
8
Layer 1
10
56.693220
20
19.078700
11
43.171010
21
19.078630
0
LINE
8
Layer 1
10
62.221010
20
19.078630
11
62.130610
21
19.054930
0
LINE
8
Layer 1
10
62.130610
20
19.054930
11
61.553900
21
19.054930
0
LINE
8
Layer 1
10
61.553900
20
19.054930
11
61.353920
21
18.854940
0
LINE
8
Layer 1
10
61.353920
20
18.854940
11
61.353920
21
15.398300
0
LINE
8
Layer 1
10
61.353920
20
15.398300
11
61.553900
21
15.198310
0
LINE
8
Layer 1
10
61.553900
20
15.198310
11
62.020540
21
15.198310
0
LINE
8
Layer 1
10
62.020540
20
15.198310
11
62.020540
21
7.381740
0
LINE
8
Layer 1
10
62.020540
20
7.381740
11
61.553900
21
7.381740
0
LINE
8
Layer 1
10
61.553900
20
7.381740
11
61.353920
21
7.181750
0
LINE
8
Layer 1
10
61.353920
20
7.181750
11
61.353920
21
4.717300
0
LINE
8
Layer 1
10
61.353920
20
4.717300
11
61.553900
21
4.517310
0
LINE
8
Layer 1
10
61.553900
20
4.517310
11
68.885240
21
4.517310
0
LINE
8
Layer 1
10
68.885240
20
4.517310
11
69.085220
21
4.717300
0
LINE
8
Layer 1
10
69.085220
20
4.717300
11
69.085220
21
5.109010
0
LINE
8
Layer 1
10
69.085220
20
5.109010
11
75.743220
21
5.109010
0
LINE
8
Layer 1
10
75.743220
20
5.109010
11
75.943200
21
5.308990
0
LINE
8
Layer 1
10
75.943200
20
5.308990
11
75.943200
21
12.955040
0
LINE
8
Layer 1
10
75.943200
20
12.955040
11
77.722940
21
12.955040
0
LINE
8
Layer 1
10
77.722940
20
12.955040
11
77.922930
21
13.155030
0
LINE
8
Layer 1
10
77.922930
20
13.155030
11
77.922930
21
16.112990
0
LINE
8
Layer 1
10
77.922930
20
16.112990
11
77.722940
21
16.312970
0
LINE
8
Layer 1
10
77.722940
20
16.312970
11
75.943200
21
16.312970
0
LINE
8
Layer 1
10
75.943200
20
16.312970
11
75.943200
21
18.878710
0
LINE
8
Layer 1
10
75.943200
20
18.878710
11
75.743220
21
19.078700
0
LINE
8
Layer 1
10
75.743220
20
19.078700
11
62.221010
21
19.078630
0
LINE
8
Layer 1
10
81.271010
20
19.078630
11
81.180610
21
19.054930
0
LINE
8
Layer 1
10
81.180610
20
19.054930
11
80.603900
21
19.054930
0
LINE
8
Layer 1
10
80.603900
20
19.054930
11
80.403920
21
18.854940
0
LINE
8
Layer 1
10
80.403920
20
18.854940
11
80.403920
21
15.398300
0
LINE
8
Layer 1
10
80.403920
20
15.398300
11
80.603900
21
15.198310
0
LINE
8
Layer 1
10
80.603900
20
15.198310
11
81.070540
21
15.198310
0
LINE
8
Layer 1
10
81.070540
20
15.198310
11
81.070540
21
7.381740
0
LINE
8
Layer 1
10
81.070540
20
7.381740
11
80.603900
21
7.381740
0
LINE
8
Layer 1
10
80.603900
20
7.381740
11
80.403920
21
7.181750
0
LINE
8
Layer 1
10
80.403920
20
7.181750
11
80.403920
21
4.717300
0
LINE
8
Layer 1
10
80.403920
20
4.717300
11
80.603900
21
4.517310
0
LINE
8
Layer 1
10
80.603900
20
4.517310
11
87.935240
21
4.517310
0
LINE
8
Layer 1
10
87.935240
20
4.517310
11
88.135220
21
4.717300
0
LINE
8
Layer 1
10
88.135220
20
4.717300
11
88.135220
21
5.109010
0
LINE
8
Layer 1
10
88.135220
20
5.109010
11
94.793220
21
5.109010
0
LINE
8
Layer 1
10
94.793220
20
5.109010
11
94.993200
21
5.308990
0
LINE
8
Layer 1
10
94.993200
20
5.308990
11
94.993200
21
12.955040
0
LINE
8
Layer 1
10
94.993200
20
12.955040
11
96.772940
21
12.955040
0
LINE
8
Layer 1
10
96.772940
20
12.955040
11
96.972930
21
13.155030
0
LINE
8
Layer 1
10
96.972930
20
13.155030
11
96.972930
21
16.112990
0
LINE
8
Layer 1
10
96.972930
20
16.112990
11
96.772940
21
16.312970
0
LINE
8
Layer 1
10
96.772940
20
16.312970
11
94.993200
21
16.312970
0
LINE
8
Layer 1
10
94.993200
20
16.312970
11
94.993200
21
18.878710
0
LINE
8
Layer 1
10
94.993200
20
18.878710
11
94.793220
21
19.078700
0
LINE
8
Layer 1
10
94.793220
20
19.078700
11
81.271010
21
19.078630
0
LINE
8
Layer 1
10
100.321010
20
19.078630
11
100.230610
21
19.054930
0
LINE
8
Layer 1
10
100.230610
20
19.054930
11
99.653900
21
19.054930
0
LINE
8
Layer 1
10
99.653900
20
19.054930
11
99.453920
21
18.854940
0
LINE
8
Layer 1
10
99.453920
20
18.854940
11
99.453920
21
15.398300
0
LINE
8
Layer 1
10
99.453920
20
15.398300
11
99.653900
21
15.198310
0
LINE
8
Layer 1
10
99.653900
20
15.198310
11
100.120540
21
15.198310
0
LINE
8
Layer 1
10
100.120540
20
15.198310
11
100.120540
21
7.381740
0
LINE
8
Layer 1
10
100.120540
20
7.381740
11
99.653900
21
7.381740
0
LINE
8
Layer 1
10
99.653900
20
7.381740
11
99.453920
21
7.181750
0
LINE
8
Layer 1
10
99.453920
20
7.181750
11
99.453920
21
4.717300
0
LINE
8
Layer 1
10
99.453920
20
4.717300
11
99.653900
21
4.517310
0
LINE
8
Layer 1
10
99.653900
20
4.517310
11
106.985240
21
4.517310
0
LINE
8
Layer 1
10
106.985240
20
4.517310
11
107.185220
21
4.717300
0
LINE
8
Layer 1
10
107.185220
20
4.717300
11
107.185220
21
5.109010
0
LINE
8
Layer 1
10
107.185220
20
5.109010
11
113.843220
21
5.109010
0
LINE
8
Layer 1
10
113.843220
20
5.109010
11
114.043200
21
5.308990
0
LINE
8
Layer 1
10
114.043200
20
5.308990
11
114.043200
21
12.955040
0
LINE
8
Layer 1
10
114.043200
20
12.955040
11
115.822940
21
12.955040
0
LINE
8
Layer 1
10
115.822940
20
12.955040
11
116.022930
21
13.155030
0
LINE
8
Layer 1
10
116.022930
20
13.155030
11
116.022930
21
16.112990
0
LINE
8
Layer 1
10
116.022930
20
16.112990
11
115.822940
21
16.312970
0
LINE
8
Layer 1
10
115.822940
20
16.312970
11
114.043200
21
16.312970
0
LINE
8
Layer 1
10
114.043200
20
16.312970
11
114.043200
21
18.878710
0
LINE
8
Layer 1
10
114.043200
20
18.878710
11
113.843220
21
19.078700
0
LINE
8
Layer 1
10
113.843220
20
19.078700
11
100.321010
21
19.078630
0
LINE
8
Layer 1
10
119.371010
20
19.078630
11
119.280610
21
19.054930
0
LINE
8
Layer 1
10
119.280610
20
19.054930
11
118.703900
21
19.054930
0
LINE
8
Layer 1
10
118.703900
20
19.054930
11
118.503920
21
18.854940
0
LINE
8
Layer 1
10
118.503920
20
18.854940
11
118.503920
21
15.398300
0
LINE
8
Layer 1
10
118.503920
20
15.398300
11
118.703900
21
15.198310
0
LINE
8
Layer 1
10
118.703900
20
15.198310
11
119.170540
21
15.198310
0
LINE
8
Layer 1
10
119.170540
20
15.198310
11
119.170540
21
7.381740
0
LINE
8
Layer 1
10
119.170540
20
7.381740
11
118.703900
21
7.381740
0
LINE
8
Layer 1
10
118.703900
20
7.381740
11
118.503920
21
7.181750
0
LINE
8
Layer 1
10
118.503920
20
7.181750
11
118.503920
21
4.717300
0
LINE
8
Layer 1
10
118.503920
20
4.717300
11
118.703900
21
4.517310
0
LINE
8
Layer 1
10
118.703900
20
4.517310
11
126.035240
21
4.517310
0
LINE
8
Layer 1
10
126.035240
20
4.517310
11
126.235220
21
4.717300
0
LINE
8
Layer 1
10
126.235220
20
4.717300
11
126.235220
21
5.109010
0
LINE
8
Layer 1
10
126.235220
20
5.109010
11
132.893220
21
5.109010
0
LINE
8
Layer 1
10
132.893220
20
5.109010
11
133.093200
21
5.308990
0
LINE
8
Layer 1
10
133.093200
20
5.308990
11
133.093200
21
12.955040
0
LINE
8
Layer 1
10
133.093200
20
12.955040
11
134.872940
21
12.955040
0
LINE
8
Layer 1
10
134.872940
20
12.955040
11
135.072930
21
13.155030
0
LINE
8
Layer 1
10
135.072930
20
13.155030
11
135.072930
21
16.112990
0
LINE
8
Layer 1
10
135.072930
20
16.112990
11
134.872940
21
16.312970
0
LINE
8
Layer 1
10
134.872940
20
16.312970
11
133.093200
21
16.312970
0
LINE
8
Layer 1
10
133.093200
20
16.312970
11
133.093200
21
18.878710
0
LINE
8
Layer 1
10
133.093200
20
18.878710
11
132.893220
21
19.078700
0
LINE
8
Layer 1
10
132.893220
20
19.078700
11
119.371010
21
19.078630
0
LINE
8
Layer 1
10
138.421010
20
19.078630
11
138.330610
21
19.054930
0
LINE
8
Layer 1
10
138.330610
20
19.054930
11
137.753900
21
19.054930
0
LINE
8
Layer 1
10
137.753900
20
19.054930
11
137.553920
21
18.854940
0
LINE
8
Layer 1
10
137.553920
20
18.854940
11
137.553920
21
15.398300
0
LINE
8
Layer 1
10
137.553920
20
15.398300
11
137.753900
21
15.198310
0
LINE
8
Layer 1
10
137.753900
20
15.198310
11
138.220540
21
15.198310
0
LINE
8
Layer 1
10
138.220540
20
15.198310
11
138.220540
21
7.381740
0
LINE
8
Layer 1
10
138.220540
20
7.381740
11
137.753900
21
7.381740
0
LINE
8
Layer 1
10
137.753900
20
7.381740
11
137.553920
21
7.181750
0
LINE
8
Layer 1
10
137.553920
20
7.181750
11
137.553920
21
4.717300
0
LINE
8
Layer 1
10
137.553920
20
4.717300
11
137.753900
21
4.517310
0
LINE
8
Layer 1
10
137.753900
20
4.517310
11
145.085240
21
4.517310
0
LINE
8
Layer 1
10
145.085240
20
4.517310
11
145.285220
21
4.717300
0
LINE
8
Layer 1
10
145.285220
20
4.717300
11
145.285220
21
5.109010
0
LINE
8
Layer 1
10
145.285220
20
5.109010
11
151.943220
21
5.109010
0
LINE
8
Layer 1
10
151.943220
20
5.109010
11
152.143200
21
5.308990
0
LINE
8
Layer 1
10
152.143200
20
5.308990
11
152.143200
21
12.955040
0
LINE
8
Layer 1
10
152.143200
20
12.955040
11
153.922940
21
12.955040
0
LINE
8
Layer 1
10
153.922940
20
12.955040
11
154.122930
21
13.155030
0
LINE
8
Layer 1
10
154.122930
20
13.155030
11
154.122930
21
16.112990
0
LINE
8
Layer 1
10
154.122930
20
16.112990
11
153.922940
21
16.312970
0
LINE
8
Layer 1
10
153.922940
20
16.312970
11
152.143200
21
16.312970
0
LINE
8
Layer 1
10
152.143200
20
16.312970
11
152.143200
21
18.878710
0
LINE
8
Layer 1
10
152.143200
20
18.878710
11
151.943220
21
19.078700
0
LINE
8
Layer 1
10
151.943220
20
19.078700
11
138.421010
21
19.078630
0
LINE
8
Layer 1
10
157.471010
20
19.078630
11
157.380610
21
19.054930
0
LINE
8
Layer 1
10
157.380610
20
19.054930
11
156.803900
21
19.054930
0
LINE
8
Layer 1
10
156.803900
20
19.054930
11
156.603920
21
18.854940
0
LINE
8
Layer 1
10
156.603920
20
18.854940
11
156.603920
21
15.398300
0
LINE
8
Layer 1
10
156.603920
20
15.398300
11
156.803900
21
15.198310
0
LINE
8
Layer 1
10
156.803900
20
15.198310
11
157.270540
21
15.198310
0
LINE
8
Layer 1
10
157.270540
20
15.198310
11
157.270540
21
7.381740
0
LINE
8
Layer 1
10
157.270540
20
7.381740
11
156.803900
21
7.381740
0
LINE
8
Layer 1
10
156.803900
20
7.381740
11
156.603920
21
7.181750
0
LINE
8
Layer 1
10
156.603920
20
7.181750
11
156.603920
21
4.717300
0
LINE
8
Layer 1
10
156.603920
20
4.717300
11
156.803900
21
4.517310
0
LINE
8
Layer 1
10
156.803900
20
4.517310
11
164.135240
21
4.517310
0
LINE
8
Layer 1
10
164.135240
20
4.517310
11
164.335220
21
4.717300
0
LINE
8
Layer 1
10
164.335220
20
4.717300
11
164.335220
21
5.109010
0
LINE
8
Layer 1
10
164.335220
20
5.109010
11
170.993220
21
5.109010
0
LINE
8
Layer 1
10
170.993220
20
5.109010
11
171.193200
21
5.308990
0
LINE
8
Layer 1
10
171.193200
20
5.308990
11
171.193200
21
12.955040
0
LINE
8
Layer 1
10
171.193200
20
12.955040
11
172.972940
21
12.955040
0
LINE
8
Layer 1
10
172.972940
20
12.955040
11
173.172930
21
13.155030
0
LINE
8
Layer 1
10
173.172930
20
13.155030
11
173.172930
21
16.112990
0
LINE
8
Layer 1
10
173.172930
20
16.112990
11
172.972940
21
16.312970
0
LINE
8
Layer 1
10
172.972940
20
16.312970
11
171.193200
21
16.312970
0
LINE
8
Layer 1
10
171.193200
20
16.312970
11
171.193200
21
18.878710
0
LINE
8
Layer 1
10
171.193200
20
18.878710
11
170.993220
21
19.078700
0
LINE
8
Layer 1
10
170.993220
20
19.078700
11
157.471010
21
19.078630
0
LINE
8
Layer 1
10
176.521010
20
19.078630
11
176.430610
21
19.054930
0
LINE
8
Layer 1
10
176.430610
20
19.054930
11
175.853910
21
19.054930
0
LINE
8
Layer 1
10
175.853910
20
19.054930
11
175.653920
21
18.854940
0
LINE
8
Layer 1
10
175.653920
20
18.854940
11
175.653920
21
15.398300
0
LINE
8
Layer 1
10
175.653920
20
15.398300
11
175.853910
21
15.198310
0
LINE
8
Layer 1
10
175.853910
20
15.198310
11
176.320540
21
15.198310
0
LINE
8
Layer 1
10
176.320540
20
15.198310
11
176.320540
21
7.381740
0
LINE
8
Layer 1
10
176.320540
20
7.381740
11
175.853910
21
7.381740
0
LINE
8
Layer 1
10
175.853910
20
7.381740
11
175.653920
21
7.181750
0
LINE
8
Layer 1
10
175.653920
20
7.181750
11
175.653920
21
4.717300
0
LINE
8
Layer 1
10
175.653920
20
4.717300
11
175.853910
21
4.517310
0
LINE
8
Layer 1
10
175.853910
20
4.517310
11
183.185240
21
4.517310
0
LINE
8
Layer 1
10
183.185240
20
4.517310
11
183.385230
21
4.717300
0
LINE
8
Layer 1
10
183.385230
20
4.717300
11
183.385230
21
5.109010
0
LINE
8
Layer 1
10
183.385230
20
5.109010
11
190.043220
21
5.109010
0
LINE
8
Layer 1
10
190.043220
20
5.109010
11
190.243220
21
5.308990
0
LINE
8
Layer 1
10
190.243220
20
5.308990
11
190.243220
21
12.955040
0
LINE
8
Layer 1
10
190.243220
20
12.955040
11
192.022940
21
12.955040
0
LINE
8
Layer 1
10
192.022940
20
12.955040
11
192.222940
21
13.155030
0
LINE
8
Layer 1
10
192.222940
20
13.155030
11
192.222940
21
16.112990
0
LINE
8
Layer 1
10
192.222940
20
16.112990
11
192.022940
21
16.312970
0
LINE
8
Layer 1
10
192.022940
20
16.312970
11
190.243220
21
16.312970
0
LINE
8
Layer 1
10
190.243220
20
16.312970
11
190.243220
21
18.878710
0
LINE
8
Layer 1
10
190.243220
20
18.878710
11
190.043220
21
19.078700
0
LINE
8
Layer 1
10
190.043220
20
19.078700
11
176.521010
21
19.078630
0
LINE
8
Layer 1
10
195.571010
20
19.078630
11
195.480610
21
19.054930
0
LINE
8
Layer 1
10
195.480610
20
19.054930
11
194.903900
21
19.054930
0
LINE
8
Layer 1
10
194.903900
20
19.054930
11
194.703900
21
18.854940
0
LINE
8
Layer 1
10
194.703900
20
18.854940
11
194.703900
21
15.398300
0
LINE
8
Layer 1
10
194.703900
20
15.398300
11
194.903900
21
15.198310
0
LINE
8
Layer 1
10
194.903900
20
15.198310
11
195.370520
21
15.198310
0
LINE
8
Layer 1
10
195.370520
20
15.198310
11
195.370520
21
7.381740
0
LINE
8
Layer 1
10
195.370520
20
7.381740
11
194.903900
21
7.381740
0
LINE
8
Layer 1
10
194.903900
20
7.381740
11
194.703900
21
7.181750
0
LINE
8
Layer 1
10
194.703900
20
7.181750
11
194.703900
21
4.717300
0
LINE
8
Layer 1
10
194.703900
20
4.717300
11
194.903900
21
4.517310
0
LINE
8
Layer 1
10
194.903900
20
4.517310
11
202.235240
21
4.517310
0
LINE
8
Layer 1
10
202.235240
20
4.517310
11
202.435210
21
4.717300
0
LINE
8
Layer 1
10
202.435210
20
4.717300
11
202.435210
21
5.109010
0
LINE
8
Layer 1
10
202.435210
20
5.109010
11
209.093210
21
5.109010
0
LINE
8
Layer 1
10
209.093210
20
5.109010
11
209.293200
21
5.308990
0
LINE
8
Layer 1
10
209.293200
20
5.308990
11
209.293200
21
12.955040
0
LINE
8
Layer 1
10
209.293200
20
12.955040
11
211.072920
21
12.955040
0
LINE
8
Layer 1
10
211.072920
20
12.955040
11
211.272920
21
13.155030
0
LINE
8
Layer 1
10
211.272920
20
13.155030
11
211.272920
21
16.112990
0
LINE
8
Layer 1
10
211.272920
20
16.112990
11
211.072920
21
16.312970
0
LINE
8
Layer 1
10
211.072920
20
16.312970
11
209.293200
21
16.312970
0
LINE
8
Layer 1
10
209.293200
20
16.312970
11
209.293200
21
18.878710
0
LINE
8
Layer 1
10
209.293200
20
18.878710
11
209.093210
21
19.078700
0
LINE
8
Layer 1
10
209.093210
20
19.078700
11
195.571010
21
19.078630
0
LINE
8
Layer 1
10
214.621010
20
19.078630
11
214.530610
21
19.054930
0
LINE
8
Layer 1
10
214.530610
20
19.054930
11
213.953890
21
19.054930
0
LINE
8
Layer 1
10
213.953890
20
19.054930
11
213.753890
21
18.854940
0
LINE
8
Layer 1
10
213.753890
20
18.854940
11
213.753890
21
15.398300
0
LINE
8
Layer 1
10
213.753890
20
15.398300
11
213.953890
21
15.198310
0
LINE
8
Layer 1
10
213.953890
20
15.198310
11
214.420540
21
15.198310
0
LINE
8
Layer 1
10
214.420540
20
15.198310
11
214.420540
21
7.381740
0
LINE
8
Layer 1
10
214.420540
20
7.381740
11
213.953890
21
7.381740
0
LINE
8
Layer 1
10
213.953890
20
7.381740
11
213.753890
21
7.181750
0
LINE
8
Layer 1
10
213.753890
20
7.181750
11
213.753890
21
4.717300
0
LINE
8
Layer 1
10
213.753890
20
4.717300
11
213.953890
21
4.517310
0
LINE
8
Layer 1
10
213.953890
20
4.517310
11
221.285230
21
4.517310
0
LINE
8
Layer 1
10
221.285230
20
4.517310
11
221.485200
21
4.717300
0
LINE
8
Layer 1
10
221.485200
20
4.717300
11
221.485200
21
5.109010
0
LINE
8
Layer 1
10
221.485200
20
5.109010
11
228.143210
21
5.109010
0
LINE
8
Layer 1
10
228.143210
20
5.109010
11
228.343200
21
5.308990
0
LINE
8
Layer 1
10
228.343200
20
5.308990
11
228.343200
21
12.955040
0
LINE
8
Layer 1
10
228.343200
20
12.955040
11
230.122920
21
12.955040
0
LINE
8
Layer 1
10
230.122920
20
12.955040
11
230.322920
21
13.155030
0
LINE
8
Layer 1
10
230.322920
20
13.155030
11
230.322920
21
16.112990
0
LINE
8
Layer 1
10
230.322920
20
16.112990
11
230.122920
21
16.312970
0
LINE
8
Layer 1
10
230.122920
20
16.312970
11
228.343200
21
16.312970
0
LINE
8
Layer 1
10
228.343200
20
16.312970
11
228.343200
21
18.878710
0
LINE
8
Layer 1
10
228.343200
20
18.878710
11
228.143210
21
19.078700
0
LINE
8
Layer 1
10
228.143210
20
19.078700
11
214.621010
21
19.078630
0
LINE
8
Layer 1
10
233.671010
20
19.078630
11
233.580610
21
19.054930
0
LINE
8
Layer 1
10
233.580610
20
19.054930
11
233.003890
21
19.054930
0
LINE
8
Layer 1
10
233.003890
20
19.054930
11
232.803890
21
18.854940
0
LINE
8
Layer 1
10
232.803890
20
18.854940
11
232.803890
21
15.398300
0
LINE
8
Layer 1
10
232.803890
20
15.398300
11
233.003890
21
15.198310
0
LINE
8
Layer 1
10
233.003890
20
15.198310
11
233.470540
21
15.198310
0
LINE
8
Layer 1
10
233.470540
20
15.198310
11
233.470540
21
7.381740
0
LINE
8
Layer 1
10
233.470540
20
7.381740
11
233.003890
21
7.381740
0
LINE
8
Layer 1
10
233.003890
20
7.381740
11
232.803890
21
7.181750
0
LINE
8
Layer 1
10
232.803890
20
7.181750
11
232.803890
21
4.717300
0
LINE
8
Layer 1
10
232.803890
20
4.717300
11
233.003890
21
4.517310
0
LINE
8
Layer 1
10
233.003890
20
4.517310
11
240.335230
21
4.517310
0
LINE
8
Layer 1
10
240.335230
20
4.517310
11
240.535200
21
4.717300
0
LINE
8
Layer 1
10
240.535200
20
4.717300
11
240.535200
21
5.109010
0
LINE
8
Layer 1
10
240.535200
20
5.109010
11
247.193210
21
5.109010
0
LINE
8
Layer 1
10
247.193210
20
5.109010
11
247.393200
21
5.308990
0
LINE
8
Layer 1
10
247.393200
20
5.308990
11
247.393200
21
12.955040
0
LINE
8
Layer 1
10
247.393200
20
12.955040
11
249.172920
21
12.955040
0
LINE
8
Layer 1
10
249.172920
20
12.955040
11
249.372920
21
13.155030
0
LINE
8
Layer 1
10
249.372920
20
13.155030
11
249.372920
21
16.112990
0
LINE
8
Layer 1
10
249.372920
20
16.112990
11
249.172920
21
16.312970
0
LINE
8
Layer 1
10
249.172920
20
16.312970
11
247.393200
21
16.312970
0
LINE
8
Layer 1
10
247.393200
20
16.312970
11
247.393200
21
18.878710
0
LINE
8
Layer 1
10
247.393200
20
18.878710
11
247.193210
21
19.078700
0
LINE
8
Layer 1
10
247.193210
20
19.078700
11
233.671010
21
19.078630
0
LINE
8
Layer 1
10
252.721010
20
19.078630
11
252.630610
21
19.054930
0
LINE
8
Layer 1
10
252.630610
20
19.054930
11
252.053900
21
19.054930
0
LINE
8
Layer 1
10
252.053900
20
19.054930
11
251.853900
21
18.854940
0
LINE
8
Layer 1
10
251.853900
20
18.854940
11
251.853900
21
15.398300
0
LINE
8
Layer 1
10
251.853900
20
15.398300
11
252.053900
21
15.198310
0
LINE
8
Layer 1
10
252.053900
20
15.198310
11
252.520550
21
15.198310
0
LINE
8
Layer 1
10
252.520550
20
15.198310
11
252.520550
21
7.381740
0
LINE
8
Layer 1
10
252.520550
20
7.381740
11
252.053900
21
7.381740
0
LINE
8
Layer 1
10
252.053900
20
7.381740
11
251.853900
21
7.181750
0
LINE
8
Layer 1
10
251.853900
20
7.181750
11
251.853900
21
4.717300
0
LINE
8
Layer 1
10
251.853900
20
4.717300
11
252.053900
21
4.517310
0
LINE
8
Layer 1
10
252.053900
20
4.517310
11
259.385240
21
4.517310
0
LINE
8
Layer 1
10
259.385240
20
4.517310
11
259.585210
21
4.717300
0
LINE
8
Layer 1
10
259.585210
20
4.717300
11
259.585210
21
5.109010
0
LINE
8
Layer 1
10
259.585210
20
5.109010
11
266.243220
21
5.109010
0
LINE
8
Layer 1
10
266.243220
20
5.109010
11
266.443210
21
5.308990
0
LINE
8
Layer 1
10
266.443210
20
5.308990
11
266.443210
21
12.955040
0
LINE
8
Layer 1
10
266.443210
20
12.955040
11
268.222930
21
12.955040
0
LINE
8
Layer 1
10
268.222930
20
12.955040
11
268.422930
21
13.155030
0
LINE
8
Layer 1
10
268.422930
20
13.155030
11
268.422930
21
16.112990
0
LINE
8
Layer 1
10
268.422930
20
16.112990
11
268.222930
21
16.312970
0
LINE
8
Layer 1
10
268.222930
20
16.312970
11
266.443210
21
16.312970
0
LINE
8
Layer 1
10
266.443210
20
16.312970
11
266.443210
21
18.878710
0
LINE
8
Layer 1
10
266.443210
20
18.878710
11
266.243220
21
19.078700
0
LINE
8
Layer 1
10
266.243220
20
19.078700
11
252.721010
21
19.078630
0
LINE
8
Layer 1
10
233.671010
20
57.220960
11
233.580610
21
57.197160
0
LINE
8
Layer 1
10
233.580610
20
57.197160
11
233.003890
21
57.197160
0
LINE
8
Layer 1
10
233.003890
20
57.197160
11
232.803890
21
56.997170
0
LINE
8
Layer 1
10
232.803890
20
56.997170
11
232.803890
21
53.540530
0
LINE
8
Layer 1
10
232.803890
20
53.540530
11
233.003890
21
53.340550
0
LINE
8
Layer 1
10
233.003890
20
53.340550
11
233.470540
21
53.340550
0
LINE
8
Layer 1
10
233.470540
20
53.340550
11
233.470540
21
45.523970
0
LINE
8
Layer 1
10
233.470540
20
45.523970
11
233.003890
21
45.523970
0
LINE
8
Layer 1
10
233.003890
20
45.523970
11
232.803890
21
45.323980
0
LINE
8
Layer 1
10
232.803890
20
45.323980
11
232.803890
21
42.859530
0
LINE
8
Layer 1
10
232.803890
20
42.859530
11
233.003890
21
42.659540
0
LINE
8
Layer 1
10
233.003890
20
42.659540
11
240.335230
21
42.659540
0
LINE
8
Layer 1
10
240.335230
20
42.659540
11
240.535200
21
42.859530
0
LINE
8
Layer 1
10
240.535200
20
42.859530
11
240.535200
21
43.251240
0
LINE
8
Layer 1
10
240.535200
20
43.251240
11
247.193210
21
43.251240
0
LINE
8
Layer 1
10
247.193210
20
43.251240
11
247.393200
21
43.451230
0
LINE
8
Layer 1
10
247.393200
20
43.451230
11
247.393200
21
51.097270
0
LINE
8
Layer 1
10
247.393200
20
51.097270
11
249.172920
21
51.097270
0
LINE
8
Layer 1
10
249.172920
20
51.097270
11
249.372920
21
51.297260
0
LINE
8
Layer 1
10
249.372920
20
51.297260
11
249.372920
21
54.255220
0
LINE
8
Layer 1
10
249.372920
20
54.255220
11
249.172920
21
54.455210
0
LINE
8
Layer 1
10
249.172920
20
54.455210
11
247.393200
21
54.455210
0
LINE
8
Layer 1
10
247.393200
20
54.455210
11
247.393200
21
57.020940
0
LINE
8
Layer 1
10
247.393200
20
57.020940
11
247.193210
21
57.220930
0
LINE
8
Layer 1
10
247.193210
20
57.220930
11
233.671010
21
57.220960
0
LINE
8
Layer 1
10
233.671010
20
38.149800
11
233.580610
21
38.126000
0
LINE
8
Layer 1
10
233.580610
20
38.126000
11
233.003890
21
38.126000
0
LINE
8
Layer 1
10
233.003890
20
38.126000
11
232.803890
21
37.926010
0
LINE
8
Layer 1
10
232.803890
20
37.926010
11
232.803890
21
34.469370
0
LINE
8
Layer 1
10
232.803890
20
34.469370
11
233.003890
21
34.269380
0
LINE
8
Layer 1
10
233.003890
20
34.269380
11
233.470540
21
34.269380
0
LINE
8
Layer 1
10
233.470540
20
34.269380
11
233.470540
21
26.452810
0
LINE
8
Layer 1
10
233.470540
20
26.452810
11
233.003890
21
26.452810
0
LINE
8
Layer 1
10
233.003890
20
26.452810
11
232.803890
21
26.252820
0
LINE
8
Layer 1
10
232.803890
20
26.252820
11
232.803890
21
23.788370
0
LINE
8
Layer 1
10
232.803890
20
23.788370
11
233.003890
21
23.588380
0
LINE
8
Layer 1
10
233.003890
20
23.588380
11
240.335230
21
23.588380
0
LINE
8
Layer 1
10
240.335230
20
23.588380
11
240.535200
21
23.788370
0
LINE
8
Layer 1
10
240.535200
20
23.788370
11
240.535200
21
24.180080
0
LINE
8
Layer 1
10
240.535200
20
24.180080
11
247.193210
21
24.180080
0
LINE
8
Layer 1
10
247.193210
20
24.180080
11
247.393200
21
24.380060
0
LINE
8
Layer 1
10
247.393200
20
24.380060
11
247.393200
21
32.026110
0
LINE
8
Layer 1
10
247.393200
20
32.026110
11
249.172920
21
32.026110
0
LINE
8
Layer 1
10
249.172920
20
32.026110
11
249.372920
21
32.226100
0
LINE
8
Layer 1
10
249.372920
20
32.226100
11
249.372920
21
35.184060
0
LINE
8
Layer 1
10
249.372920
20
35.184060
11
249.172920
21
35.384050
0
LINE
8
Layer 1
10
249.172920
20
35.384050
11
247.393200
21
35.384050
0
LINE
8
Layer 1
10
247.393200
20
35.384050
11
247.393200
21
37.949780
0
LINE
8
Layer 1
10
247.393200
20
37.949780
11
247.193210
21
38.149770
0
LINE
8
Layer 1
10
247.193210
20
38.149770
11
233.671010
21
38.149800
0
LINE
8
Layer 1
10
252.721010
20
57.220960
11
252.630610
21
57.197160
0
LINE
8
Layer 1
10
252.630610
20
57.197160
11
252.053900
21
57.197160
0
LINE
8
Layer 1
10
252.053900
20
57.197160
11
251.853900
21
56.997170
0
LINE
8
Layer 1
10
251.853900
20
56.997170
11
251.853900
21
53.540530
0
LINE
8
Layer 1
10
251.853900
20
53.540530
11
252.053900
21
53.340550
0
LINE
8
Layer 1
10
252.053900
20
53.340550
11
252.520550
21
53.340550
0
LINE
8
Layer 1
10
252.520550
20
53.340550
11
252.520550
21
45.523970
0
LINE
8
Layer 1
10
252.520550
20
45.523970
11
252.053900
21
45.523970
0
LINE
8
Layer 1
10
252.053900
20
45.523970
11
251.853900
21
45.323980
0
LINE
8
Layer 1
10
251.853900
20
45.323980
11
251.853900
21
42.859530
0
LINE
8
Layer 1
10
251.853900
20
42.859530
11
252.053900
21
42.659540
0
LINE
8
Layer 1
10
252.053900
20
42.659540
11
259.385240
21
42.659540
0
LINE
8
Layer 1
10
259.385240
20
42.659540
11
259.585210
21
42.859530
0
LINE
8
Layer 1
10
259.585210
20
42.859530
11
259.585210
21
43.251240
0
LINE
8
Layer 1
10
259.585210
20
43.251240
11
266.243220
21
43.251240
0
LINE
8
Layer 1
10
266.243220
20
43.251240
11
266.443210
21
43.451230
0
LINE
8
Layer 1
10
266.443210
20
43.451230
11
266.443210
21
51.097270
0
LINE
8
Layer 1
10
266.443210
20
51.097270
11
268.222930
21
51.097270
0
LINE
8
Layer 1
10
268.222930
20
51.097270
11
268.422930
21
51.297260
0
LINE
8
Layer 1
10
268.422930
20
51.297260
11
268.422930
21
54.255220
0
LINE
8
Layer 1
10
268.422930
20
54.255220
11
268.222930
21
54.455210
0
LINE
8
Layer 1
10
268.222930
20
54.455210
11
266.443210
21
54.455210
0
LINE
8
Layer 1
10
266.443210
20
54.455210
11
266.443210
21
57.020940
0
LINE
8
Layer 1
10
266.443210
20
57.020940
11
266.243220
21
57.220930
0
LINE
8
Layer 1
10
266.243220
20
57.220930
11
252.721010
21
57.220960
0
LINE
8
Layer 1
10
252.721010
20
38.149800
11
252.630610
21
38.126000
0
LINE
8
Layer 1
10
252.630610
20
38.126000
11
252.053900
21
38.126000
0
LINE
8
Layer 1
10
252.053900
20
38.126000
11
251.853900
21
37.926010
0
LINE
8
Layer 1
10
251.853900
20
37.926010
11
251.853900
21
34.469370
0
LINE
8
Layer 1
10
251.853900
20
34.469370
11
252.053900
21
34.269380
0
LINE
8
Layer 1
10
252.053900
20
34.269380
11
252.520550
21
34.269380
0
LINE
8
Layer 1
10
252.520550
20
34.269380
11
252.520550
21
26.452810
0
LINE
8
Layer 1
10
252.520550
20
26.452810
11
252.053900
21
26.452810
0
LINE
8
Layer 1
10
252.053900
20
26.452810
11
251.853900
21
26.252820
0
LINE
8
Layer 1
10
251.853900
20
26.252820
11
251.853900
21
23.788370
0
LINE
8
Layer 1
10
251.853900
20
23.788370
11
252.053900
21
23.588380
0
LINE
8
Layer 1
10
252.053900
20
23.588380
11
259.385240
21
23.588380
0
LINE
8
Layer 1
10
259.385240
20
23.588380
11
259.585210
21
23.788370
0
LINE
8
Layer 1
10
259.585210
20
23.788370
11
259.585210
21
24.180080
0
LINE
8
Layer 1
10
259.585210
20
24.180080
11
266.243220
21
24.180080
0
LINE
8
Layer 1
10
266.243220
20
24.180080
11
266.443210
21
24.380060
0
LINE
8
Layer 1
10
266.443210
20
24.380060
11
266.443210
21
32.026110
0
LINE
8
Layer 1
10
266.443210
20
32.026110
11
268.222930
21
32.026110
0
LINE
8
Layer 1
10
268.222930
20
32.026110
11
268.422930
21
32.226100
0
LINE
8
Layer 1
10
268.422930
20
32.226100
11
268.422930
21
35.184060
0
LINE
8
Layer 1
10
268.422930
20
35.184060
11
268.222930
21
35.384050
0
LINE
8
Layer 1
10
268.222930
20
35.384050
11
266.443210
21
35.384050
0
LINE
8
Layer 1
10
266.443210
20
35.384050
11
266.443210
21
37.949780
0
LINE
8
Layer 1
10
266.443210
20
37.949780
11
266.243220
21
38.149770
0
LINE
8
Layer 1
10
266.243220
20
38.149770
11
252.721010
21
38.149800
0
LINE
8
Layer 1
10
153.098430
20
75.212630
11
152.942326
21
74.437399
0
LINE
8
Layer 1
10
152.942326
20
74.437399
11
152.516346
21
73.805044
0
LINE
8
Layer 1
10
152.516346
20
73.805044
11
151.883991
21
73.379064
0
LINE
8
Layer 1
10
151.883991
20
73.379064
11
151.108760
21
73.222960
0
LINE
8
Layer 1
10
151.108760
20
73.222960
11
150.309057
21
73.379064
0
LINE
8
Layer 1
10
150.309057
20
73.379064
11
149.664135
21
73.805044
0
LINE
8
Layer 1
10
149.664135
20
73.805044
11
149.233526
21
74.437399
0
LINE
8
Layer 1
10
149.233526
20
74.437399
11
149.076760
21
75.212630
0
LINE
8
Layer 1
10
149.076760
20
75.212630
11
149.233526
21
76.012333
0
LINE
8
Layer 1
10
149.233526
20
76.012333
11
149.664135
21
76.657255
0
LINE
8
Layer 1
10
149.664135
20
76.657255
11
150.309057
21
77.087864
0
LINE
8
Layer 1
10
150.309057
20
77.087864
11
151.108760
21
77.244630
0
LINE
8
Layer 1
10
151.108760
20
77.244630
11
151.883991
21
77.087864
0
LINE
8
Layer 1
10
151.883991
20
77.087864
11
152.516346
21
76.657255
0
LINE
8
Layer 1
10
152.516346
20
76.657255
11
152.942326
21
76.012333
0
LINE
8
Layer 1
10
152.942326
20
76.012333
11
153.098430
21
75.212630
0
LINE
8
Layer 1
10
153.098430
20
75.212630
11
153.098430
21
75.212630
0
LINE
8
Layer 1
10
144.411540
20
79.388310
11
143.779100
21
79.261289
0
LINE
8
Layer 1
10
143.779100
20
79.261289
11
143.263790
21
78.914454
0
LINE
8
Layer 1
10
143.263790
20
78.914454
11
142.916952
21
78.399144
0
LINE
8
Layer 1
10
142.916952
20
78.399144
11
142.789930
21
77.766700
0
LINE
8
Layer 1
10
142.789930
20
77.766700
11
142.789930
21
57.185530
0
LINE
8
Layer 1
10
142.789930
20
57.185530
11
128.398560
21
57.185530
0
LINE
8
Layer 1
10
128.398560
20
57.185530
11
128.398560
21
77.755330
0
LINE
8
Layer 1
10
128.398560
20
77.755330
11
128.271460
21
78.387774
0
LINE
8
Layer 1
10
128.271460
20
78.387774
11
127.924449
21
78.903084
0
LINE
8
Layer 1
10
127.924449
20
78.903084
11
127.408964
21
79.249919
0
LINE
8
Layer 1
10
127.408964
20
79.249919
11
126.776440
21
79.376940
0
LINE
8
Layer 1
10
126.776440
20
79.376940
11
126.143988
21
79.249919
0
LINE
8
Layer 1
10
126.143988
20
79.249919
11
125.628679
21
78.903084
0
LINE
8
Layer 1
10
125.628679
20
78.903084
11
125.281848
21
78.387774
0
LINE
8
Layer 1
10
125.281848
20
78.387774
11
125.154830
21
77.755330
0
LINE
8
Layer 1
10
125.154830
20
77.755330
11
125.154830
21
72.348950
0
LINE
8
Layer 1
10
125.154830
20
72.348950
11
122.173100
21
72.348950
0
LINE
8
Layer 1
10
122.173100
20
72.348950
11
121.611323
21
72.116977
0
LINE
8
Layer 1
10
121.611323
20
72.116977
11
121.379350
21
71.555200
0
LINE
8
Layer 1
10
121.379350
20
71.555200
11
121.379350
21
57.185530
0
LINE
8
Layer 1
10
121.379350
20
57.185530
11
42.388310
21
57.185530
0
LINE
8
Layer 1
10
42.388310
20
57.185530
11
42.388310
21
23.559680
0
LINE
8
Layer 1
10
42.388310
20
23.559680
11
129.698740
21
23.559680
0
LINE
8
Layer 1
10
129.698740
20
23.559680
11
129.698740
21
22.734400
0
LINE
8
Layer 1
10
129.698740
20
22.734400
11
129.930713
21
22.172626
0
LINE
8
Layer 1
10
129.930713
20
22.172626
11
130.492490
21
21.940650
0
LINE
8
Layer 1
10
130.492490
20
21.940650
11
140.863430
21
21.940650
0
LINE
8
Layer 1
10
140.863430
20
21.940650
11
141.425207
21
22.172626
0
LINE
8
Layer 1
10
141.425207
20
22.172626
11
141.657180
21
22.734400
0
LINE
8
Layer 1
10
141.657180
20
22.734400
11
141.657180
21
23.559680
0
LINE
8
Layer 1
10
141.657180
20
23.559680
11
230.286400
21
23.559680
0
LINE
8
Layer 1
10
230.286400
20
23.559680
11
230.286400
21
57.185530
0
LINE
8
Layer 1
10
230.286400
20
57.185530
11
149.996210
21
57.185530
0
LINE
8
Layer 1
10
149.996210
20
57.185530
11
149.996210
21
71.527810
0
LINE
8
Layer 1
10
149.996210
20
71.527810
11
149.764234
21
72.089587
0
LINE
8
Layer 1
10
149.764234
20
72.089587
11
149.202460
21
72.321560
0
LINE
8
Layer 1
10
149.202460
20
72.321560
11
146.033660
21
72.321560
0
LINE
8
Layer 1
10
146.033660
20
72.321560
11
146.033660
21
77.766700
0
LINE
8
Layer 1
10
146.033660
20
77.766700
11
145.906558
21
78.399144
0
LINE
8
Layer 1
10
145.906558
20
78.399144
11
145.559545
21
78.914454
0
LINE
8
Layer 1
10
145.559545
20
78.914454
11
145.044059
21
79.261289
0
LINE
8
Layer 1
10
145.044059
20
79.261289
11
144.411540
21
79.388310
0
LINE
8
Layer 1
10
144.411540
20
79.388310
11
144.411540
21
79.388310
 0 
ENDSEC
 0 
EOF