<?xml version="1.0" encoding="UTF-8" standalone="no"?>
<!-- Created with Inkscape (http://www.inkscape.org/) -->

<svg
   width="76.976082mm"
   height="59.144081mm"
   viewBox="0 0 76.976083 59.144081"
   version="1.1"
   id="svg1"
   style="background-color:white"
   inkscape:version="1.3 (0e150ed6c4, 2023-07-21)"
   sodipodi:docname="cover.svg"
   xmlns:inkscape="http://www.inkscape.org/namespaces/inkscape"
   xmlns:sodipodi="http://sodipodi.sourceforge.net/DTD/sodipodi-0.dtd"
   xmlns="http://www.w3.org/2000/svg"
   xmlns:svg="http://www.w3.org/2000/svg">
  <sodipodi:namedview
     id="namedview1"
     pagecolor="#505050"
     bordercolor="#eeeeee"
     borderopacity="1"
     inkscape:showpageshadow="0"
     inkscape:pageopacity="0"
     inkscape:pagecheckerboard="0"
     inkscape:deskcolor="#d1d1d1"
     inkscape:document-units="mm"
     inkscape:zoom="0.67704826"
     inkscape:cx="352.2644"
     inkscape:cy="354.4799"
     inkscape:window-width="1920"
     inkscape:window-height="991"
     inkscape:window-x="-9"
     inkscape:window-y="-9"
     inkscape:window-maximized="1"
     inkscape:current-layer="layer1" />
  <defs
     id="defs1" />
  <g
     inkscape:label="Katman 1"
     inkscape:groupmode="layer"
     id="layer1"
     transform="translate(-148.69575,-443.15428)">
    <g
       id="g43116-3-1"
       transform="translate(669.37089,515.23923)"
       style="stroke-width:0.25;stroke-dasharray:none">
      <g
         id="g42859-9-1"
         transform="translate(0,0.02698223)"
         style="stroke-width:0.25;stroke-dasharray:none">
        <g
           id="g41782-8-7-0"
           transform="matrix(0.26458333,0,0,0.26458333,-516.51336,-65.948717)"
           style="fill:none;fill-opacity:1;stroke:#000000;stroke-width:0.944882;stroke-dasharray:none;stroke-opacity:1">
          <path
             d="m 0,0 c 0,2.24 -1.92,4.16 -4.16,4.16 -2.4,0 -4.32,-1.92 -4.32,-4.16 0,-2.4 1.92,-4.32 4.32,-4.32 C -1.92,-4.32 0,-2.4 0,0 Z"
             style="fill:none;fill-opacity:1;fill-rule:nonzero;stroke:#000000;stroke-width:0.944882;stroke-dasharray:none;stroke-opacity:1"
             id="path41784-7-0-83" />
        </g>
        <g
           id="g41826-9-9-8"
           transform="matrix(0.26458333,0,0,0.26458333,-485.56769,-65.99105)"
           style="fill:none;fill-opacity:1;stroke:#000000;stroke-width:0.944882;stroke-dasharray:none;stroke-opacity:1">
          <path
             d="m 0,0 c 0,2.24 -1.92,4.16 -4.16,4.16 -2.4,0 -4.32,-1.92 -4.32,-4.16 0,-2.4 1.92,-4.32 4.32,-4.32 C -1.92,-4.32 0,-2.4 0,0 Z"
             style="fill:none;fill-opacity:1;fill-rule:nonzero;stroke:#000000;stroke-width:0.944882;stroke-dasharray:none;stroke-opacity:1"
             id="path41828-2-1-4" />
        </g>
      </g>
      <g
         id="g42865-8-7"
         style="stroke-width:0.25;stroke-dasharray:none">
        <g
           id="g42386-9-2-01"
           transform="matrix(0.26458333,0,0,0.26458333,-485.56769,-15.953043)"
           style="fill:none;fill-opacity:1;stroke:#000000;stroke-width:0.944882;stroke-dasharray:none;stroke-opacity:1">
          <path
             d="m 0,0 c 0,2.24 -1.92,4.16 -4.16,4.16 -2.4,0 -4.32,-1.92 -4.32,-4.16 0,-2.4 1.92,-4.32 4.32,-4.32 C -1.92,-4.32 0,-2.4 0,0 Z"
             style="fill:none;fill-opacity:1;fill-rule:nonzero;stroke:#000000;stroke-width:0.944882;stroke-dasharray:none;stroke-opacity:1"
             id="path42388-8-7-8" />
        </g>
        <g
           id="g42562-7-0-2"
           transform="matrix(0.26458333,0,0,0.26458333,-516.51336,-15.953043)"
           style="fill:none;fill-opacity:1;stroke:#000000;stroke-width:0.944882;stroke-dasharray:none;stroke-opacity:1">
          <path
             d="m 0,0 c 0,2.24 -1.92,4.16 -4.16,4.16 -2.4,0 -4.32,-1.92 -4.32,-4.16 0,-2.4 1.92,-4.32 4.32,-4.32 C -1.92,-4.32 0,-2.4 0,0 Z"
             style="fill:none;fill-opacity:1;fill-rule:nonzero;stroke:#000000;stroke-width:0.944882;stroke-dasharray:none;stroke-opacity:1"
             id="path42564-5-1-7" />
        </g>
      </g>
      <path
         id="rect46006-98-8-3"
         style="fill:none;stroke:#000000;stroke-width:0.25;stroke-linecap:square;stroke-linejoin:bevel;stroke-dasharray:none;stop-color:#000000"
         d="m -519.14557,-71.959949 c -0.43974,0 -0.79375,0.354014 -0.79375,0.79375 v 3.038058 c -0.3594,0.1513 -0.61082,0.505719 -0.61082,0.921391 v 2.485119 c 0,0.415671 0.25142,0.770607 0.61082,0.921908 v 45.790486 c -0.34274,0.158268 -0.57981,0.504351 -0.57981,0.907955 v 3.035474 c 0,0.553999 0.44594,0.999939 0.99994,0.999939 h 2.48512 c 0.39214,0 0.72995,-0.223306 0.894,-0.550354 h 27.9864 c 0.16405,0.327048 0.50187,0.550354 0.89401,0.550354 h 2.48512 c 0.554,0 0.99993,-0.44594 0.99993,-0.999939 v -3.035474 c 0,-0.391377 -0.22279,-0.728565 -0.5488,-0.892968 v -45.834929 c 0.3259,-0.164442 0.5488,-0.501158 0.5488,-0.892452 v -2.485119 c 0,-0.391239 -0.22298,-0.727468 -0.5488,-0.891936 v -3.067513 c 0,-0.439736 -0.35401,-0.79375 -0.79375,-0.79375 z" />
    </g>
    <g
       id="g9328"
       transform="translate(685.30183,404.55042)"
       style="stroke-width:0.25;stroke-dasharray:none">
      <g
         id="g43116-7-6"
         transform="translate(24.01961,110.68881)"
         style="stroke-width:0.25;stroke-dasharray:none">
        <g
           id="g42859-2-0"
           transform="translate(0,0.02698223)"
           style="stroke-width:0.25;stroke-dasharray:none">
          <g
             id="g41782-8-1-7"
             transform="matrix(0.26458333,0,0,0.26458333,-516.51336,-65.948717)"
             style="fill:none;fill-opacity:1;stroke:#000000;stroke-width:0.944882;stroke-dasharray:none;stroke-opacity:1">
            <path
               d="m 0,0 c 0,2.24 -1.92,4.16 -4.16,4.16 -2.4,0 -4.32,-1.92 -4.32,-4.16 0,-2.4 1.92,-4.32 4.32,-4.32 C -1.92,-4.32 0,-2.4 0,0 Z"
               style="fill:none;fill-opacity:1;fill-rule:nonzero;stroke:#000000;stroke-width:0.944882;stroke-dasharray:none;stroke-opacity:1"
               id="path41784-7-7-0" />
          </g>
          <g
             id="g41826-9-2-5"
             transform="matrix(0.26458333,0,0,0.26458333,-485.56769,-65.99105)"
             style="fill:none;fill-opacity:1;stroke:#000000;stroke-width:0.944882;stroke-dasharray:none;stroke-opacity:1">
            <path
               d="m 0,0 c 0,2.24 -1.92,4.16 -4.16,4.16 -2.4,0 -4.32,-1.92 -4.32,-4.16 0,-2.4 1.92,-4.32 4.32,-4.32 C -1.92,-4.32 0,-2.4 0,0 Z"
               style="fill:none;fill-opacity:1;fill-rule:nonzero;stroke:#000000;stroke-width:0.944882;stroke-dasharray:none;stroke-opacity:1"
               id="path41828-2-5-5" />
          </g>
        </g>
        <g
           id="g42865-2-4"
           style="stroke-width:0.25;stroke-dasharray:none">
          <g
             id="g42386-9-8-6"
             transform="matrix(0.26458333,0,0,0.26458333,-485.56769,-15.953043)"
             style="fill:none;fill-opacity:1;stroke:#000000;stroke-width:0.944882;stroke-dasharray:none;stroke-opacity:1">
            <path
               d="m 0,0 c 0,2.24 -1.92,4.16 -4.16,4.16 -2.4,0 -4.32,-1.92 -4.32,-4.16 0,-2.4 1.92,-4.32 4.32,-4.32 C -1.92,-4.32 0,-2.4 0,0 Z"
               style="fill:none;fill-opacity:1;fill-rule:nonzero;stroke:#000000;stroke-width:0.944882;stroke-dasharray:none;stroke-opacity:1"
               id="path42388-8-6-8" />
          </g>
          <g
             id="g42562-7-6-0"
             transform="matrix(0.26458333,0,0,0.26458333,-516.51336,-15.953043)"
             style="fill:none;fill-opacity:1;stroke:#000000;stroke-width:0.944882;stroke-dasharray:none;stroke-opacity:1">
            <path
               d="m 0,0 c 0,2.24 -1.92,4.16 -4.16,4.16 -2.4,0 -4.32,-1.92 -4.32,-4.16 0,-2.4 1.92,-4.32 4.32,-4.32 C -1.92,-4.32 0,-2.4 0,0 Z"
               style="fill:none;fill-opacity:1;fill-rule:nonzero;stroke:#000000;stroke-width:0.944882;stroke-dasharray:none;stroke-opacity:1"
               id="path42564-5-2-4" />
          </g>
        </g>
        <path
           id="rect46006-98-3-5"
           style="fill:none;stroke:#000000;stroke-width:0.25;stroke-linecap:square;stroke-linejoin:bevel;stroke-dasharray:none;stop-color:#000000"
           d="m -519.14557,-71.959949 c -0.43974,0 -0.79375,0.354014 -0.79375,0.79375 v 3.038058 c -0.3594,0.1513 -0.61082,0.505719 -0.61082,0.921391 v 2.485119 c 0,0.415671 0.25142,0.770607 0.61082,0.921908 v 45.790486 c -0.34274,0.158268 -0.57981,0.504351 -0.57981,0.907955 v 3.035474 c 0,0.553999 0.44594,0.999939 0.99994,0.999939 h 2.48512 c 0.39214,0 0.72995,-0.223306 0.894,-0.550354 h 27.9864 c 0.16405,0.327048 0.50187,0.550354 0.89401,0.550354 h 2.48512 c 0.554,0 0.99993,-0.44594 0.99993,-0.999939 v -3.035474 c 0,-0.391377 -0.22279,-0.728565 -0.5488,-0.892968 v -45.834929 c 0.3259,-0.164442 0.5488,-0.501158 0.5488,-0.892452 v -2.485119 c 0,-0.391239 -0.22298,-0.727468 -0.5488,-0.891936 v -3.067513 c 0,-0.439736 -0.35401,-0.79375 -0.79375,-0.79375 z" />
      </g>
      <rect
         style="fill:none;stroke:#000000;stroke-width:0.25;stroke-linecap:square;stroke-linejoin:bevel;stroke-dasharray:none;stroke-opacity:1;stop-color:#000000"
         id="rect7791-1-9"
         width="14.124682"
         height="14.125941"
         x="-485.20511"
         y="47.313793"
         ry="1.5141022"
         rx="1.5141022" />
    </g>
  </g>
</svg>
