999
"DXF R12 Output" (www.mydxf.blogspot.com)
 0 
SECTION
 2 
HEADER
 9 
$ACADVER
 1 
AC1009
 9 
$EXTMIN
 10 
 0 
 20 
 0 
 9 
$EXTMAX
 10 
 8.5 
 20 
 11 
 0 
ENDSEC
 0 
SECTION
 2 
ENTITIES
0
LINE
8
Layer 1
10
4.161780
20
52.980900
11
4.073145
21
52.558890
0
LINE
8
Layer 1
10
4.073145
20
52.558890
11
3.833697
21
52.208318
0
LINE
8
Layer 1
10
3.833697
20
52.208318
11
3.483125
21
51.968870
0
LINE
8
Layer 1
10
3.483125
20
51.968870
11
3.061115
21
51.880235
0
LINE
8
Layer 1
10
3.061115
20
51.880235
11
2.614631
21
51.968870
0
LINE
8
Layer 1
10
2.614631
20
51.968870
11
2.251491
21
52.208318
0
LINE
8
Layer 1
10
2.251491
20
52.208318
11
2.007413
21
52.558890
0
LINE
8
Layer 1
10
2.007413
20
52.558890
11
1.918116
21
52.980900
0
LINE
8
Layer 1
10
1.918116
20
52.980900
11
2.007413
21
53.427384
0
LINE
8
Layer 1
10
2.007413
20
53.427384
11
2.251491
21
53.790524
0
LINE
8
Layer 1
10
2.251491
20
53.790524
11
2.614631
21
54.034602
0
LINE
8
Layer 1
10
2.614631
20
54.034602
11
3.061115
21
54.123899
0
LINE
8
Layer 1
10
3.061115
20
54.123899
11
3.483125
21
54.034602
0
LINE
8
Layer 1
10
3.483125
20
54.034602
11
3.833697
21
53.790524
0
LINE
8
Layer 1
10
3.833697
20
53.790524
11
4.073145
21
53.427384
0
LINE
8
Layer 1
10
4.073145
20
53.427384
11
4.161780
21
52.980900
0
LINE
8
Layer 1
10
4.161780
20
52.980900
11
4.161780
21
52.980900
0
LINE
8
Layer 1
10
35.107300
20
53.023200
11
35.018665
21
52.601190
0
LINE
8
Layer 1
10
35.018665
20
52.601190
11
34.779217
21
52.250618
0
LINE
8
Layer 1
10
34.779217
20
52.250618
11
34.428645
21
52.011170
0
LINE
8
Layer 1
10
34.428645
20
52.011170
11
34.006635
21
51.922535
0
LINE
8
Layer 1
10
34.006635
20
51.922535
11
33.560151
21
52.011170
0
LINE
8
Layer 1
10
33.560151
20
52.011170
11
33.197011
21
52.250618
0
LINE
8
Layer 1
10
33.197011
20
52.250618
11
32.952933
21
52.601190
0
LINE
8
Layer 1
10
32.952933
20
52.601190
11
32.863636
21
53.023200
0
LINE
8
Layer 1
10
32.863636
20
53.023200
11
32.952933
21
53.469684
0
LINE
8
Layer 1
10
32.952933
20
53.469684
11
33.197011
21
53.832824
0
LINE
8
Layer 1
10
33.197011
20
53.832824
11
33.560151
21
54.076902
0
LINE
8
Layer 1
10
33.560151
20
54.076902
11
34.006635
21
54.166199
0
LINE
8
Layer 1
10
34.006635
20
54.166199
11
34.428645
21
54.076902
0
LINE
8
Layer 1
10
34.428645
20
54.076902
11
34.779217
21
53.832824
0
LINE
8
Layer 1
10
34.779217
20
53.832824
11
35.018665
21
53.469684
0
LINE
8
Layer 1
10
35.018665
20
53.469684
11
35.107300
21
53.023200
0
LINE
8
Layer 1
10
35.107300
20
53.023200
11
35.107300
21
53.023200
0
LINE
8
Layer 1
10
35.107300
20
3.012080
11
35.018665
21
2.590070
0
LINE
8
Layer 1
10
35.018665
20
2.590070
11
34.779217
21
2.239498
0
LINE
8
Layer 1
10
34.779217
20
2.239498
11
34.428645
21
2.000050
0
LINE
8
Layer 1
10
34.428645
20
2.000050
11
34.006635
21
1.911415
0
LINE
8
Layer 1
10
34.006635
20
1.911415
11
33.560151
21
2.000050
0
LINE
8
Layer 1
10
33.560151
20
2.000050
11
33.197011
21
2.239498
0
LINE
8
Layer 1
10
33.197011
20
2.239498
11
32.952933
21
2.590070
0
LINE
8
Layer 1
10
32.952933
20
2.590070
11
32.863636
21
3.012080
0
LINE
8
Layer 1
10
32.863636
20
3.012080
11
32.952933
21
3.458564
0
LINE
8
Layer 1
10
32.952933
20
3.458564
11
33.197011
21
3.821704
0
LINE
8
Layer 1
10
33.197011
20
3.821704
11
33.560151
21
4.065782
0
LINE
8
Layer 1
10
33.560151
20
4.065782
11
34.006635
21
4.155079
0
LINE
8
Layer 1
10
34.006635
20
4.155079
11
34.428645
21
4.065782
0
LINE
8
Layer 1
10
34.428645
20
4.065782
11
34.779217
21
3.821704
0
LINE
8
Layer 1
10
34.779217
20
3.821704
11
35.018665
21
3.458564
0
LINE
8
Layer 1
10
35.018665
20
3.458564
11
35.107300
21
3.012080
0
LINE
8
Layer 1
10
35.107300
20
3.012080
11
35.107300
21
3.012080
0
LINE
8
Layer 1
10
4.161640
20
3.012080
11
4.073005
21
2.590070
0
LINE
8
Layer 1
10
4.073005
20
2.590070
11
3.833557
21
2.239498
0
LINE
8
Layer 1
10
3.833557
20
2.239498
11
3.482985
21
2.000050
0
LINE
8
Layer 1
10
3.482985
20
2.000050
11
3.060975
21
1.911415
0
LINE
8
Layer 1
10
3.060975
20
1.911415
11
2.614491
21
2.000050
0
LINE
8
Layer 1
10
2.614491
20
2.000050
11
2.251351
21
2.239498
0
LINE
8
Layer 1
10
2.251351
20
2.239498
11
2.007273
21
2.590070
0
LINE
8
Layer 1
10
2.007273
20
2.590070
11
1.917976
21
3.012080
0
LINE
8
Layer 1
10
1.917976
20
3.012080
11
2.007273
21
3.458564
0
LINE
8
Layer 1
10
2.007273
20
3.458564
11
2.251351
21
3.821704
0
LINE
8
Layer 1
10
2.251351
20
3.821704
11
2.614491
21
4.065782
0
LINE
8
Layer 1
10
2.614491
20
4.065782
11
3.060975
21
4.155079
0
LINE
8
Layer 1
10
3.060975
20
4.155079
11
3.482985
21
4.065782
0
LINE
8
Layer 1
10
3.482985
20
4.065782
11
3.833557
21
3.821704
0
LINE
8
Layer 1
10
3.833557
20
3.821704
11
4.073005
21
3.458564
0
LINE
8
Layer 1
10
4.073005
20
3.458564
11
4.161640
21
3.012080
0
LINE
8
Layer 1
10
4.161640
20
3.012080
11
4.161640
21
3.012080
0
LINE
8
Layer 1
10
1.529430
20
59.019049
11
0.967652
21
58.787075
0
LINE
8
Layer 1
10
0.967652
20
58.787075
11
0.735680
21
58.225299
0
LINE
8
Layer 1
10
0.735680
20
58.225299
11
0.735680
21
55.187241
0
LINE
8
Layer 1
10
0.735680
20
55.187241
11
0.295495
21
54.825685
0
LINE
8
Layer 1
10
0.295495
20
54.825685
11
0.124860
21
54.265850
0
LINE
8
Layer 1
10
0.124860
20
54.265850
11
0.124860
21
51.780731
0
LINE
8
Layer 1
10
0.124860
20
51.780731
11
0.295495
21
51.220638
0
LINE
8
Layer 1
10
0.295495
20
51.220638
11
0.735680
21
50.858823
0
LINE
8
Layer 1
10
0.735680
20
50.858823
11
0.735680
21
5.068337
0
LINE
8
Layer 1
10
0.735680
20
5.068337
11
0.317247
21
4.706360
0
LINE
8
Layer 1
10
0.317247
20
4.706360
11
0.155870
21
4.160382
0
LINE
8
Layer 1
10
0.155870
20
4.160382
11
0.155870
21
1.124908
0
LINE
8
Layer 1
10
0.155870
20
1.124908
11
0.234204
21
0.734949
0
LINE
8
Layer 1
10
0.234204
20
0.734949
11
0.448090
21
0.417189
0
LINE
8
Layer 1
10
0.448090
20
0.417189
11
0.765851
21
0.203303
0
LINE
8
Layer 1
10
0.765851
20
0.203303
11
1.155810
21
0.124969
0
LINE
8
Layer 1
10
1.155810
20
0.124969
11
3.640930
21
0.124969
0
LINE
8
Layer 1
10
3.640930
20
0.124969
11
4.173464
21
0.277503
0
LINE
8
Layer 1
10
4.173464
20
0.277503
11
4.534930
21
0.675323
0
LINE
8
Layer 1
10
4.534930
20
0.675323
11
32.521330
21
0.675323
0
LINE
8
Layer 1
10
32.521330
20
0.675323
11
32.882801
21
0.277503
0
LINE
8
Layer 1
10
32.882801
20
0.277503
11
33.415340
21
0.124969
0
LINE
8
Layer 1
10
33.415340
20
0.124969
11
35.900460
21
0.124969
0
LINE
8
Layer 1
10
35.900460
20
0.124969
11
36.290418
21
0.203303
0
LINE
8
Layer 1
10
36.290418
20
0.203303
11
36.608175
21
0.417189
0
LINE
8
Layer 1
10
36.608175
20
0.417189
11
36.822057
21
0.734949
0
LINE
8
Layer 1
10
36.822057
20
0.734949
11
36.900390
21
1.124908
0
LINE
8
Layer 1
10
36.900390
20
1.124908
11
36.900390
21
4.160382
0
LINE
8
Layer 1
10
36.900390
20
4.160382
11
36.748244
21
4.691981
0
LINE
8
Layer 1
10
36.748244
20
4.691981
11
36.351590
21
5.053350
0
LINE
8
Layer 1
10
36.351590
20
5.053350
11
36.351590
21
50.888279
0
LINE
8
Layer 1
10
36.351590
20
50.888279
11
36.748202
21
51.249435
0
LINE
8
Layer 1
10
36.748202
20
51.249435
11
36.900390
21
51.780731
0
LINE
8
Layer 1
10
36.900390
20
51.780731
11
36.900390
21
54.265850
0
LINE
8
Layer 1
10
36.900390
20
54.265850
11
36.748173
21
54.796857
0
LINE
8
Layer 1
10
36.748173
20
54.796857
11
36.351590
21
55.157786
0
LINE
8
Layer 1
10
36.351590
20
55.157786
11
36.351590
21
58.225299
0
LINE
8
Layer 1
10
36.351590
20
58.225299
11
36.119617
21
58.787075
0
LINE
8
Layer 1
10
36.119617
20
58.787075
11
35.557840
21
59.019049
0
LINE
8
Layer 1
10
35.557840
20
59.019049
11
1.529430
21
59.019049
0
LINE
8
Layer 1
10
44.112100
20
52.980600
11
44.023465
21
52.558590
0
LINE
8
Layer 1
10
44.023465
20
52.558590
11
43.784017
21
52.208018
0
LINE
8
Layer 1
10
43.784017
20
52.208018
11
43.433445
21
51.968570
0
LINE
8
Layer 1
10
43.433445
20
51.968570
11
43.011435
21
51.879935
0
LINE
8
Layer 1
10
43.011435
20
51.879935
11
42.564951
21
51.968570
0
LINE
8
Layer 1
10
42.564951
20
51.968570
11
42.201811
21
52.208018
0
LINE
8
Layer 1
10
42.201811
20
52.208018
11
41.957733
21
52.558590
0
LINE
8
Layer 1
10
41.957733
20
52.558590
11
41.868436
21
52.980600
0
LINE
8
Layer 1
10
41.868436
20
52.980600
11
41.957733
21
53.427084
0
LINE
8
Layer 1
10
41.957733
20
53.427084
11
42.201811
21
53.790224
0
LINE
8
Layer 1
10
42.201811
20
53.790224
11
42.564951
21
54.034302
0
LINE
8
Layer 1
10
42.564951
20
54.034302
11
43.011435
21
54.123599
0
LINE
8
Layer 1
10
43.011435
20
54.123599
11
43.433445
21
54.034302
0
LINE
8
Layer 1
10
43.433445
20
54.034302
11
43.784017
21
53.790224
0
LINE
8
Layer 1
10
43.784017
20
53.790224
11
44.023465
21
53.427084
0
LINE
8
Layer 1
10
44.023465
20
53.427084
11
44.112100
21
52.980600
0
LINE
8
Layer 1
10
44.112100
20
52.980600
11
44.112100
21
52.980600
0
LINE
8
Layer 1
10
75.057900
20
53.023200
11
74.969265
21
52.601190
0
LINE
8
Layer 1
10
74.969265
20
52.601190
11
74.729817
21
52.250618
0
LINE
8
Layer 1
10
74.729817
20
52.250618
11
74.379245
21
52.011170
0
LINE
8
Layer 1
10
74.379245
20
52.011170
11
73.957235
21
51.922535
0
LINE
8
Layer 1
10
73.957235
20
51.922535
11
73.510751
21
52.011170
0
LINE
8
Layer 1
10
73.510751
20
52.011170
11
73.147611
21
52.250618
0
LINE
8
Layer 1
10
73.147611
20
52.250618
11
72.903533
21
52.601190
0
LINE
8
Layer 1
10
72.903533
20
52.601190
11
72.814236
21
53.023200
0
LINE
8
Layer 1
10
72.814236
20
53.023200
11
72.903533
21
53.469684
0
LINE
8
Layer 1
10
72.903533
20
53.469684
11
73.147611
21
53.832824
0
LINE
8
Layer 1
10
73.147611
20
53.832824
11
73.510751
21
54.076902
0
LINE
8
Layer 1
10
73.510751
20
54.076902
11
73.957235
21
54.166199
0
LINE
8
Layer 1
10
73.957235
20
54.166199
11
74.379245
21
54.076902
0
LINE
8
Layer 1
10
74.379245
20
54.076902
11
74.729817
21
53.832824
0
LINE
8
Layer 1
10
74.729817
20
53.832824
11
74.969265
21
53.469684
0
LINE
8
Layer 1
10
74.969265
20
53.469684
11
75.057900
21
53.023200
0
LINE
8
Layer 1
10
75.057900
20
53.023200
11
75.057900
21
53.023200
0
LINE
8
Layer 1
10
75.057900
20
3.012080
11
74.969265
21
2.590070
0
LINE
8
Layer 1
10
74.969265
20
2.590070
11
74.729817
21
2.239498
0
LINE
8
Layer 1
10
74.729817
20
2.239498
11
74.379245
21
2.000050
0
LINE
8
Layer 1
10
74.379245
20
2.000050
11
73.957235
21
1.911415
0
LINE
8
Layer 1
10
73.957235
20
1.911415
11
73.510751
21
2.000050
0
LINE
8
Layer 1
10
73.510751
20
2.000050
11
73.147611
21
2.239498
0
LINE
8
Layer 1
10
73.147611
20
2.239498
11
72.903533
21
2.590070
0
LINE
8
Layer 1
10
72.903533
20
2.590070
11
72.814236
21
3.012080
0
LINE
8
Layer 1
10
72.814236
20
3.012080
11
72.903533
21
3.458564
0
LINE
8
Layer 1
10
72.903533
20
3.458564
11
73.147611
21
3.821704
0
LINE
8
Layer 1
10
73.147611
20
3.821704
11
73.510751
21
4.065782
0
LINE
8
Layer 1
10
73.510751
20
4.065782
11
73.957235
21
4.155079
0
LINE
8
Layer 1
10
73.957235
20
4.155079
11
74.379245
21
4.065782
0
LINE
8
Layer 1
10
74.379245
20
4.065782
11
74.729817
21
3.821704
0
LINE
8
Layer 1
10
74.729817
20
3.821704
11
74.969265
21
3.458564
0
LINE
8
Layer 1
10
74.969265
20
3.458564
11
75.057900
21
3.012080
0
LINE
8
Layer 1
10
75.057900
20
3.012080
11
75.057900
21
3.012080
0
LINE
8
Layer 1
10
44.112200
20
3.012080
11
44.023565
21
2.590070
0
LINE
8
Layer 1
10
44.023565
20
2.590070
11
43.784117
21
2.239498
0
LINE
8
Layer 1
10
43.784117
20
2.239498
11
43.433545
21
2.000050
0
LINE
8
Layer 1
10
43.433545
20
2.000050
11
43.011535
21
1.911415
0
LINE
8
Layer 1
10
43.011535
20
1.911415
11
42.565051
21
2.000050
0
LINE
8
Layer 1
10
42.565051
20
2.000050
11
42.201911
21
2.239498
0
LINE
8
Layer 1
10
42.201911
20
2.239498
11
41.957833
21
2.590070
0
LINE
8
Layer 1
10
41.957833
20
2.590070
11
41.868536
21
3.012080
0
LINE
8
Layer 1
10
41.868536
20
3.012080
11
41.957833
21
3.458564
0
LINE
8
Layer 1
10
41.957833
20
3.458564
11
42.201911
21
3.821704
0
LINE
8
Layer 1
10
42.201911
20
3.821704
11
42.565051
21
4.065782
0
LINE
8
Layer 1
10
42.565051
20
4.065782
11
43.011535
21
4.155079
0
LINE
8
Layer 1
10
43.011535
20
4.155079
11
43.433545
21
4.065782
0
LINE
8
Layer 1
10
43.433545
20
4.065782
11
43.784117
21
3.821704
0
LINE
8
Layer 1
10
43.784117
20
3.821704
11
44.023565
21
3.458564
0
LINE
8
Layer 1
10
44.023565
20
3.458564
11
44.112200
21
3.012080
0
LINE
8
Layer 1
10
44.112200
20
3.012080
11
44.112200
21
3.012080
0
LINE
8
Layer 1
10
41.480430
20
59.019049
11
40.918652
21
58.787075
0
LINE
8
Layer 1
10
40.918652
20
58.787075
11
40.686680
21
58.225299
0
LINE
8
Layer 1
10
40.686680
20
58.225299
11
40.686680
21
55.187241
0
LINE
8
Layer 1
10
40.686680
20
55.187241
11
40.246495
21
54.825685
0
LINE
8
Layer 1
10
40.246495
20
54.825685
11
40.075860
21
54.265850
0
LINE
8
Layer 1
10
40.075860
20
54.265850
11
40.075860
21
51.780731
0
LINE
8
Layer 1
10
40.075860
20
51.780731
11
40.246495
21
51.220638
0
LINE
8
Layer 1
10
40.246495
20
51.220638
11
40.686680
21
50.858823
0
LINE
8
Layer 1
10
40.686680
20
50.858823
11
40.686680
21
5.068337
0
LINE
8
Layer 1
10
40.686680
20
5.068337
11
40.268247
21
4.706360
0
LINE
8
Layer 1
10
40.268247
20
4.706360
11
40.106870
21
4.160382
0
LINE
8
Layer 1
10
40.106870
20
4.160382
11
40.106870
21
1.124908
0
LINE
8
Layer 1
10
40.106870
20
1.124908
11
40.185204
21
0.734949
0
LINE
8
Layer 1
10
40.185204
20
0.734949
11
40.399090
21
0.417189
0
LINE
8
Layer 1
10
40.399090
20
0.417189
11
40.716851
21
0.203303
0
LINE
8
Layer 1
10
40.716851
20
0.203303
11
41.106810
21
0.124969
0
LINE
8
Layer 1
10
41.106810
20
0.124969
11
43.591930
21
0.124969
0
LINE
8
Layer 1
10
43.591930
20
0.124969
11
44.124464
21
0.277503
0
LINE
8
Layer 1
10
44.124464
20
0.277503
11
44.485930
21
0.675323
0
LINE
8
Layer 1
10
44.485930
20
0.675323
11
72.472330
21
0.675323
0
LINE
8
Layer 1
10
72.472330
20
0.675323
11
72.833801
21
0.277503
0
LINE
8
Layer 1
10
72.833801
20
0.277503
11
73.366340
21
0.124969
0
LINE
8
Layer 1
10
73.366340
20
0.124969
11
75.851460
21
0.124969
0
LINE
8
Layer 1
10
75.851460
20
0.124969
11
76.241418
21
0.203303
0
LINE
8
Layer 1
10
76.241418
20
0.203303
11
76.559175
21
0.417189
0
LINE
8
Layer 1
10
76.559175
20
0.417189
11
76.773057
21
0.734949
0
LINE
8
Layer 1
10
76.773057
20
0.734949
11
76.851390
21
1.124908
0
LINE
8
Layer 1
10
76.851390
20
1.124908
11
76.851390
21
4.160382
0
LINE
8
Layer 1
10
76.851390
20
4.160382
11
76.699244
21
4.691981
0
LINE
8
Layer 1
10
76.699244
20
4.691981
11
76.302590
21
5.053350
0
LINE
8
Layer 1
10
76.302590
20
5.053350
11
76.302590
21
50.888279
0
LINE
8
Layer 1
10
76.302590
20
50.888279
11
76.699203
21
51.249435
0
LINE
8
Layer 1
10
76.699203
20
51.249435
11
76.851390
21
51.780731
0
LINE
8
Layer 1
10
76.851390
20
51.780731
11
76.851390
21
54.265850
0
LINE
8
Layer 1
10
76.851390
20
54.265850
11
76.699173
21
54.796857
0
LINE
8
Layer 1
10
76.699173
20
54.796857
11
76.302590
21
55.157786
0
LINE
8
Layer 1
10
76.302590
20
55.157786
11
76.302590
21
58.225299
0
LINE
8
Layer 1
10
76.302590
20
58.225299
11
76.070617
21
58.787075
0
LINE
8
Layer 1
10
76.070617
20
58.787075
11
75.508840
21
59.019049
0
LINE
8
Layer 1
10
75.508840
20
59.019049
11
41.480430
21
59.019049
0
LINE
8
Layer 1
10
52.914990
20
50.434307
11
64.011470
21
50.434307
0
LINE
8
Layer 1
10
64.011470
20
50.434307
11
64.601921
21
50.315686
0
LINE
8
Layer 1
10
64.601921
20
50.315686
11
65.083074
21
49.991810
0
LINE
8
Layer 1
10
65.083074
20
49.991810
11
65.406950
21
49.510657
0
LINE
8
Layer 1
10
65.406950
20
49.510657
11
65.525570
21
48.920205
0
LINE
8
Layer 1
10
65.525570
20
48.920205
11
65.525570
21
37.822468
0
LINE
8
Layer 1
10
65.525570
20
37.822468
11
65.406950
21
37.232015
0
LINE
8
Layer 1
10
65.406950
20
37.232015
11
65.083074
21
36.750862
0
LINE
8
Layer 1
10
65.083074
20
36.750862
11
64.601921
21
36.426986
0
LINE
8
Layer 1
10
64.601921
20
36.426986
11
64.011470
21
36.308366
0
LINE
8
Layer 1
10
64.011470
20
36.308366
11
52.914990
21
36.308366
0
LINE
8
Layer 1
10
52.914990
20
36.308366
11
52.324539
21
36.426986
0
LINE
8
Layer 1
10
52.324539
20
36.426986
11
51.843386
21
36.750862
0
LINE
8
Layer 1
10
51.843386
20
36.750862
11
51.519510
21
37.232015
0
LINE
8
Layer 1
10
51.519510
20
37.232015
11
51.400890
21
37.822468
0
LINE
8
Layer 1
10
51.400890
20
37.822468
11
51.400890
21
48.920205
0
LINE
8
Layer 1
10
51.400890
20
48.920205
11
51.519510
21
49.510657
0
LINE
8
Layer 1
10
51.519510
20
49.510657
11
51.843386
21
49.991810
0
LINE
8
Layer 1
10
51.843386
20
49.991810
11
52.324539
21
50.315686
0
LINE
8
Layer 1
10
52.324539
20
50.315686
11
52.914990
21
50.434307
0
LINE
8
Layer 1
10
52.914990
20
50.434307
11
52.914990
21
50.434307
 0 
ENDSEC
 0 
EOF