999
"DXF R12 Output" (www.mydxf.blogspot.com)
 0 
SECTION
 2 
HEADER
 9 
$ACADVER
 1 
AC1009
 9 
$EXTMIN
 10 
 0 
 20 
 0 
 9 
$EXTMAX
 10 
 8.5 
 20 
 11 
 0 
ENDSEC
 0 
SECTION
 2 
ENTITIES
0
LINE
8
Layer 1
10
126.664080
20
79.271760
11
126.028493
21
79.144066
0
LINE
8
Layer 1
10
126.028493
20
79.144066
11
125.510550
21
78.795420
0
LINE
8
Layer 1
10
125.510550
20
78.795420
11
125.161904
21
78.277477
0
LINE
8
Layer 1
10
125.161904
20
78.277477
11
125.034210
21
77.641890
0
LINE
8
Layer 1
10
125.034210
20
77.641890
11
125.034210
21
72.226200
0
LINE
8
Layer 1
10
125.034210
20
72.226200
11
122.045760
21
72.226200
0
LINE
8
Layer 1
10
122.045760
20
72.226200
11
121.483982
21
71.994228
0
LINE
8
Layer 1
10
121.483982
20
71.994228
11
121.252010
21
71.432450
0
LINE
8
Layer 1
10
121.252010
20
71.432450
11
121.252010
21
44.936910
0
LINE
8
Layer 1
10
121.252010
20
44.936910
11
121.483982
21
44.375133
0
LINE
8
Layer 1
10
121.483982
20
44.375133
11
122.045760
21
44.143160
0
LINE
8
Layer 1
10
122.045760
20
44.143160
11
125.034210
21
44.143160
0
LINE
8
Layer 1
10
125.034210
20
44.143160
11
125.034210
21
27.559670
0
LINE
8
Layer 1
10
125.034210
20
27.559670
11
125.161904
21
26.924083
0
LINE
8
Layer 1
10
125.161904
20
26.924083
11
125.510550
21
26.406140
0
LINE
8
Layer 1
10
125.510550
20
26.406140
11
126.028493
21
26.057494
0
LINE
8
Layer 1
10
126.028493
20
26.057494
11
126.664080
21
25.929800
0
LINE
8
Layer 1
10
126.664080
20
25.929800
11
127.299672
21
26.057494
0
LINE
8
Layer 1
10
127.299672
20
26.057494
11
127.817619
21
26.406140
0
LINE
8
Layer 1
10
127.817619
20
26.406140
11
128.166266
21
26.924083
0
LINE
8
Layer 1
10
128.166266
20
26.924083
11
128.293960
21
27.559670
0
LINE
8
Layer 1
10
128.293960
20
27.559670
11
128.293960
21
32.961410
0
LINE
8
Layer 1
10
128.293960
20
32.961410
11
142.666210
21
32.961410
0
LINE
8
Layer 1
10
142.666210
20
32.961410
11
142.666210
21
27.559670
0
LINE
8
Layer 1
10
142.666210
20
27.559670
11
142.793823
21
26.924165
0
LINE
8
Layer 1
10
142.793823
20
26.924165
11
143.142290
21
26.406400
0
LINE
8
Layer 1
10
143.142290
20
26.406400
11
143.660055
21
26.057933
0
LINE
8
Layer 1
10
143.660055
20
26.057933
11
144.295560
21
25.930320
0
LINE
8
Layer 1
10
144.295560
20
25.930320
11
144.931152
21
26.057933
0
LINE
8
Layer 1
10
144.931152
20
26.057933
11
145.449099
21
26.406400
0
LINE
8
Layer 1
10
145.449099
20
26.406400
11
145.797746
21
26.924165
0
LINE
8
Layer 1
10
145.797746
20
26.924165
11
145.925440
21
27.559670
0
LINE
8
Layer 1
10
145.925440
20
27.559670
11
145.925440
21
44.133340
0
LINE
8
Layer 1
10
145.925440
20
44.133340
11
149.065300
21
44.133340
0
LINE
8
Layer 1
10
149.065300
20
44.133340
11
149.627077
21
44.365313
0
LINE
8
Layer 1
10
149.627077
20
44.365313
11
149.859050
21
44.927090
0
LINE
8
Layer 1
10
149.859050
20
44.927090
11
149.859050
21
71.422110
0
LINE
8
Layer 1
10
149.859050
20
71.422110
11
149.627077
21
71.983888
0
LINE
8
Layer 1
10
149.627077
20
71.983888
11
149.065300
21
72.215860
0
LINE
8
Layer 1
10
149.065300
20
72.215860
11
145.925440
21
72.215860
0
LINE
8
Layer 1
10
145.925440
20
72.215860
11
145.925440
21
77.641890
0
LINE
8
Layer 1
10
145.925440
20
77.641890
11
145.797746
21
78.277477
0
LINE
8
Layer 1
10
145.797746
20
78.277477
11
145.449099
21
78.795420
0
LINE
8
Layer 1
10
145.449099
20
78.795420
11
144.931152
21
79.144066
0
LINE
8
Layer 1
10
144.931152
20
79.144066
11
144.295560
21
79.271760
0
LINE
8
Layer 1
10
144.295560
20
79.271760
11
143.660055
21
79.144066
0
LINE
8
Layer 1
10
143.660055
20
79.144066
11
143.142290
21
78.795420
0
LINE
8
Layer 1
10
143.142290
20
78.795420
11
142.793823
21
78.277477
0
LINE
8
Layer 1
10
142.793823
20
78.277477
11
142.666210
21
77.641890
0
LINE
8
Layer 1
10
142.666210
20
77.641890
11
142.666210
21
47.197230
0
LINE
8
Layer 1
10
142.666210
20
47.197230
11
128.293960
21
47.197230
0
LINE
8
Layer 1
10
128.293960
20
47.197230
11
128.293960
21
77.641890
0
LINE
8
Layer 1
10
128.293960
20
77.641890
11
128.166266
21
78.277477
0
LINE
8
Layer 1
10
128.166266
20
78.277477
11
127.817619
21
78.795420
0
LINE
8
Layer 1
10
127.817619
20
78.795420
11
127.299672
21
79.144066
0
LINE
8
Layer 1
10
127.299672
20
79.144066
11
126.664080
21
79.271760
0
LINE
8
Layer 1
10
126.664080
20
79.271760
11
126.664080
21
79.271760
0
LINE
8
Layer 1
10
140.798340
20
22.942990
11
130.394080
21
22.942990
0
LINE
8
Layer 1
10
130.394080
20
22.942990
11
129.832303
21
23.174962
0
LINE
8
Layer 1
10
129.832303
20
23.174962
11
129.600330
21
23.736740
0
LINE
8
Layer 1
10
129.600330
20
23.736740
11
129.600330
21
25.791220
0
LINE
8
Layer 1
10
129.600330
20
25.791220
11
129.832303
21
26.352997
0
LINE
8
Layer 1
10
129.832303
20
26.352997
11
130.394080
21
26.584970
0
LINE
8
Layer 1
10
130.394080
20
26.584970
11
140.798340
21
26.584970
0
LINE
8
Layer 1
10
140.798340
20
26.584970
11
141.360118
21
26.352997
0
LINE
8
Layer 1
10
141.360118
20
26.352997
11
141.592090
21
25.791220
0
LINE
8
Layer 1
10
141.592090
20
25.791220
11
141.592090
21
23.736740
0
LINE
8
Layer 1
10
141.592090
20
23.736740
11
141.360118
21
23.174962
0
LINE
8
Layer 1
10
141.360118
20
23.174962
11
140.798340
21
22.942990
0
LINE
8
Layer 1
10
140.798340
20
22.942990
11
140.798340
21
22.942990
0
LINE
8
Layer 1
10
132.731090
20
65.160700
11
138.258910
21
65.160700
0
LINE
8
Layer 1
10
138.258910
20
65.160700
11
138.542010
21
65.043800
0
LINE
8
Layer 1
10
138.542010
20
65.043800
11
138.658910
21
64.760700
0
LINE
8
Layer 1
10
138.658910
20
64.760700
11
138.658910
21
61.574180
0
LINE
8
Layer 1
10
138.658910
20
61.574180
11
138.542010
21
61.291080
0
LINE
8
Layer 1
10
138.542010
20
61.291080
11
138.258910
21
61.174180
0
LINE
8
Layer 1
10
138.258910
20
61.174180
11
132.731090
21
61.174180
0
LINE
8
Layer 1
10
132.731090
20
61.174180
11
132.447990
21
61.291080
0
LINE
8
Layer 1
10
132.447990
20
61.291080
11
132.331090
21
61.574180
0
LINE
8
Layer 1
10
132.331090
20
61.574180
11
132.331090
21
64.760700
0
LINE
8
Layer 1
10
132.331090
20
64.760700
11
132.447990
21
65.043800
0
LINE
8
Layer 1
10
132.447990
20
65.043800
11
132.731090
21
65.160700
0
LINE
8
Layer 1
10
132.731090
20
65.160700
11
132.731090
21
65.160700
0
LINE
8
Layer 1
10
2.866051
20
81.091240
11
268.241730
21
81.091240
0
LINE
8
Layer 1
10
268.241730
20
81.091240
11
269.333642
21
80.871877
0
LINE
8
Layer 1
10
269.333642
20
80.871877
11
270.223430
21
80.272940
0
LINE
8
Layer 1
10
270.223430
20
80.272940
11
270.822367
21
79.383152
0
LINE
8
Layer 1
10
270.822367
20
79.383152
11
271.041730
21
78.291240
0
LINE
8
Layer 1
10
271.041730
20
78.291240
11
271.041730
21
2.865260
0
LINE
8
Layer 1
10
271.041730
20
2.865260
11
270.822367
21
1.773347
0
LINE
8
Layer 1
10
270.822367
20
1.773347
11
270.223430
21
0.883560
0
LINE
8
Layer 1
10
270.223430
20
0.883560
11
269.333642
21
0.284622
0
LINE
8
Layer 1
10
269.333642
20
0.284622
11
268.241730
21
0.065260
0
LINE
8
Layer 1
10
268.241730
20
0.065260
11
2.866051
21
0.065260
0
LINE
8
Layer 1
10
2.866051
20
0.065260
11
1.774138
21
0.284622
0
LINE
8
Layer 1
10
1.774138
20
0.284622
11
0.884351
21
0.883560
0
LINE
8
Layer 1
10
0.884351
20
0.883560
11
0.285413
21
1.773347
0
LINE
8
Layer 1
10
0.285413
20
1.773347
11
0.066051
21
2.865260
0
LINE
8
Layer 1
10
0.066051
20
2.865260
11
0.066051
21
78.291240
0
LINE
8
Layer 1
10
0.066051
20
78.291240
11
0.285413
21
79.383152
0
LINE
8
Layer 1
10
0.285413
20
79.383152
11
0.884351
21
80.272940
0
LINE
8
Layer 1
10
0.884351
20
80.272940
11
1.774138
21
80.871877
0
LINE
8
Layer 1
10
1.774138
20
80.871877
11
2.866051
21
81.091240
0
LINE
8
Layer 1
10
2.866051
20
81.091240
11
2.866051
21
81.091240
0
LINE
8
Layer 1
10
156.507680
20
77.174220
11
156.224595
21
77.057330
0
LINE
8
Layer 1
10
156.224595
20
77.057330
11
156.107710
21
76.774240
0
LINE
8
Layer 1
10
156.107710
20
76.774240
11
156.107710
21
61.574140
0
LINE
8
Layer 1
10
156.107710
20
61.574140
11
156.224595
21
61.291050
0
LINE
8
Layer 1
10
156.224595
20
61.291050
11
156.507680
21
61.174160
0
LINE
8
Layer 1
10
156.507680
20
61.174160
11
169.696540
21
61.174160
0
LINE
8
Layer 1
10
169.696540
20
61.174160
11
169.696540
21
58.166590
0
LINE
8
Layer 1
10
169.696540
20
58.166590
11
156.528870
21
58.166590
0
LINE
8
Layer 1
10
156.528870
20
58.166590
11
156.245785
21
58.049705
0
LINE
8
Layer 1
10
156.245785
20
58.049705
11
156.128900
21
57.766620
0
LINE
8
Layer 1
10
156.128900
20
57.766620
11
156.128900
21
42.566510
0
LINE
8
Layer 1
10
156.128900
20
42.566510
11
156.245785
21
42.283420
0
LINE
8
Layer 1
10
156.245785
20
42.283420
11
156.528870
21
42.166530
0
LINE
8
Layer 1
10
156.528870
20
42.166530
11
169.696540
21
42.166530
0
LINE
8
Layer 1
10
169.696540
20
42.166530
11
169.696540
21
39.095400
0
LINE
8
Layer 1
10
169.696540
20
39.095400
11
156.528870
21
39.095400
0
LINE
8
Layer 1
10
156.528870
20
39.095400
11
156.245785
21
38.978515
0
LINE
8
Layer 1
10
156.245785
20
38.978515
11
156.128900
21
38.695430
0
LINE
8
Layer 1
10
156.128900
20
38.695430
11
156.128900
21
23.495320
0
LINE
8
Layer 1
10
156.128900
20
23.495320
11
156.245785
21
23.212235
0
LINE
8
Layer 1
10
156.245785
20
23.212235
11
156.528870
21
23.095350
0
LINE
8
Layer 1
10
156.528870
20
23.095350
11
169.696540
21
23.095350
0
LINE
8
Layer 1
10
169.696540
20
23.095350
11
169.696540
21
20.024220
0
LINE
8
Layer 1
10
169.696540
20
20.024220
11
156.528870
21
20.024220
0
LINE
8
Layer 1
10
156.528870
20
20.024220
11
156.245785
21
19.907326
0
LINE
8
Layer 1
10
156.245785
20
19.907326
11
156.128900
21
19.624240
0
LINE
8
Layer 1
10
156.128900
20
19.624240
11
156.128900
21
4.424140
0
LINE
8
Layer 1
10
156.128900
20
4.424140
11
156.245785
21
4.141050
0
LINE
8
Layer 1
10
156.245785
20
4.141050
11
156.528870
21
4.024160
0
LINE
8
Layer 1
10
156.528870
20
4.024160
11
171.728980
21
4.024160
0
LINE
8
Layer 1
10
171.728980
20
4.024160
11
172.012065
21
4.141050
0
LINE
8
Layer 1
10
172.012065
20
4.141050
11
172.128950
21
4.424140
0
LINE
8
Layer 1
10
172.128950
20
4.424140
11
172.128950
21
17.462620
0
LINE
8
Layer 1
10
172.128950
20
17.462620
11
175.178900
21
17.462620
0
LINE
8
Layer 1
10
175.178900
20
17.462620
11
175.178900
21
4.424140
0
LINE
8
Layer 1
10
175.178900
20
4.424140
11
175.295785
21
4.141050
0
LINE
8
Layer 1
10
175.295785
20
4.141050
11
175.578870
21
4.024160
0
LINE
8
Layer 1
10
175.578870
20
4.024160
11
190.778980
21
4.024160
0
LINE
8
Layer 1
10
190.778980
20
4.024160
11
191.062072
21
4.141050
0
LINE
8
Layer 1
10
191.062072
20
4.141050
11
191.178950
21
4.424140
0
LINE
8
Layer 1
10
191.178950
20
4.424140
11
191.178950
21
16.088540
0
LINE
8
Layer 1
10
191.178950
20
16.088540
11
194.228900
21
16.088540
0
LINE
8
Layer 1
10
194.228900
20
16.088540
11
194.228900
21
4.424140
0
LINE
8
Layer 1
10
194.228900
20
4.424140
11
194.345789
21
4.141050
0
LINE
8
Layer 1
10
194.345789
20
4.141050
11
194.628870
21
4.024160
0
LINE
8
Layer 1
10
194.628870
20
4.024160
11
209.828980
21
4.024160
0
LINE
8
Layer 1
10
209.828980
20
4.024160
11
210.112073
21
4.141050
0
LINE
8
Layer 1
10
210.112073
20
4.141050
11
210.228950
21
4.424140
0
LINE
8
Layer 1
10
210.228950
20
4.424140
11
210.228950
21
17.462620
0
LINE
8
Layer 1
10
210.228950
20
17.462620
11
213.278900
21
17.462620
0
LINE
8
Layer 1
10
213.278900
20
17.462620
11
213.278900
21
4.424140
0
LINE
8
Layer 1
10
213.278900
20
4.424140
11
213.395789
21
4.141050
0
LINE
8
Layer 1
10
213.395789
20
4.141050
11
213.678870
21
4.024160
0
LINE
8
Layer 1
10
213.678870
20
4.024160
11
228.878980
21
4.024160
0
LINE
8
Layer 1
10
228.878980
20
4.024160
11
229.162072
21
4.141050
0
LINE
8
Layer 1
10
229.162072
20
4.141050
11
229.278950
21
4.424140
0
LINE
8
Layer 1
10
229.278950
20
4.424140
11
229.278950
21
16.088540
0
LINE
8
Layer 1
10
229.278950
20
16.088540
11
232.328900
21
16.088540
0
LINE
8
Layer 1
10
232.328900
20
16.088540
11
232.328900
21
4.424140
0
LINE
8
Layer 1
10
232.328900
20
4.424140
11
232.445789
21
4.141050
0
LINE
8
Layer 1
10
232.445789
20
4.141050
11
232.728870
21
4.024160
0
LINE
8
Layer 1
10
232.728870
20
4.024160
11
247.928980
21
4.024160
0
LINE
8
Layer 1
10
247.928980
20
4.024160
11
248.212072
21
4.141050
0
LINE
8
Layer 1
10
248.212072
20
4.141050
11
248.328950
21
4.424140
0
LINE
8
Layer 1
10
248.328950
20
4.424140
11
248.328950
21
17.462620
0
LINE
8
Layer 1
10
248.328950
20
17.462620
11
251.378900
21
17.462620
0
LINE
8
Layer 1
10
251.378900
20
17.462620
11
251.378900
21
4.424140
0
LINE
8
Layer 1
10
251.378900
20
4.424140
11
251.495789
21
4.141050
0
LINE
8
Layer 1
10
251.495789
20
4.141050
11
251.778870
21
4.024160
0
LINE
8
Layer 1
10
251.778870
20
4.024160
11
266.978980
21
4.024160
0
LINE
8
Layer 1
10
266.978980
20
4.024160
11
267.262072
21
4.141050
0
LINE
8
Layer 1
10
267.262072
20
4.141050
11
267.378950
21
4.424140
0
LINE
8
Layer 1
10
267.378950
20
4.424140
11
267.378950
21
19.624240
0
LINE
8
Layer 1
10
267.378950
20
19.624240
11
267.262072
21
19.907326
0
LINE
8
Layer 1
10
267.262072
20
19.907326
11
266.978980
21
20.024220
0
LINE
8
Layer 1
10
266.978980
20
20.024220
11
253.790120
21
20.024220
0
LINE
8
Layer 1
10
253.790120
20
20.024220
11
253.790120
21
23.095350
0
LINE
8
Layer 1
10
253.790120
20
23.095350
11
266.978980
21
23.095350
0
LINE
8
Layer 1
10
266.978980
20
23.095350
11
267.262072
21
23.212235
0
LINE
8
Layer 1
10
267.262072
20
23.212235
11
267.378950
21
23.495320
0
LINE
8
Layer 1
10
267.378950
20
23.495320
11
267.378950
21
38.695430
0
LINE
8
Layer 1
10
267.378950
20
38.695430
11
267.262072
21
38.978515
0
LINE
8
Layer 1
10
267.262072
20
38.978515
11
266.978980
21
39.095400
0
LINE
8
Layer 1
10
266.978980
20
39.095400
11
255.314570
21
39.095400
0
LINE
8
Layer 1
10
255.314570
20
39.095400
11
255.314570
21
42.166530
0
LINE
8
Layer 1
10
255.314570
20
42.166530
11
266.978980
21
42.166530
0
LINE
8
Layer 1
10
266.978980
20
42.166530
11
267.262072
21
42.283424
0
LINE
8
Layer 1
10
267.262072
20
42.283424
11
267.378950
21
42.566510
0
LINE
8
Layer 1
10
267.378950
20
42.566510
11
267.378950
21
57.766620
0
LINE
8
Layer 1
10
267.378950
20
57.766620
11
267.262072
21
58.049705
0
LINE
8
Layer 1
10
267.262072
20
58.049705
11
266.978980
21
58.166590
0
LINE
8
Layer 1
10
266.978980
20
58.166590
11
253.790120
21
58.166590
0
LINE
8
Layer 1
10
253.790120
20
58.166590
11
253.790120
21
61.174160
0
LINE
8
Layer 1
10
253.790120
20
61.174160
11
266.957790
21
61.174160
0
LINE
8
Layer 1
10
266.957790
20
61.174160
11
267.240871
21
61.291050
0
LINE
8
Layer 1
10
267.240871
20
61.291050
11
267.357760
21
61.574140
0
LINE
8
Layer 1
10
267.357760
20
61.574140
11
267.357760
21
76.774240
0
LINE
8
Layer 1
10
267.357760
20
76.774240
11
267.240871
21
77.057330
0
LINE
8
Layer 1
10
267.240871
20
77.057330
11
266.957790
21
77.174220
0
LINE
8
Layer 1
10
266.957790
20
77.174220
11
251.757680
21
77.174220
0
LINE
8
Layer 1
10
251.757680
20
77.174220
11
251.474599
21
77.057330
0
LINE
8
Layer 1
10
251.474599
20
77.057330
11
251.357710
21
76.774240
0
LINE
8
Layer 1
10
251.357710
20
76.774240
11
251.357710
21
63.735760
0
LINE
8
Layer 1
10
251.357710
20
63.735760
11
248.307760
21
63.735760
0
LINE
8
Layer 1
10
248.307760
20
63.735760
11
248.307760
21
76.774240
0
LINE
8
Layer 1
10
248.307760
20
76.774240
11
248.190871
21
77.057330
0
LINE
8
Layer 1
10
248.190871
20
77.057330
11
247.907790
21
77.174220
0
LINE
8
Layer 1
10
247.907790
20
77.174220
11
232.707680
21
77.174220
0
LINE
8
Layer 1
10
232.707680
20
77.174220
11
232.424599
21
77.057330
0
LINE
8
Layer 1
10
232.424599
20
77.057330
11
232.307710
21
76.774240
0
LINE
8
Layer 1
10
232.307710
20
76.774240
11
232.307710
21
65.109840
0
LINE
8
Layer 1
10
232.307710
20
65.109840
11
229.257760
21
65.109840
0
LINE
8
Layer 1
10
229.257760
20
65.109840
11
229.257760
21
76.774240
0
LINE
8
Layer 1
10
229.257760
20
76.774240
11
229.140868
21
77.057330
0
LINE
8
Layer 1
10
229.140868
20
77.057330
11
228.857790
21
77.174220
0
LINE
8
Layer 1
10
228.857790
20
77.174220
11
213.657680
21
77.174220
0
LINE
8
Layer 1
10
213.657680
20
77.174220
11
213.374599
21
77.057330
0
LINE
8
Layer 1
10
213.374599
20
77.057330
11
213.257710
21
76.774240
0
LINE
8
Layer 1
10
213.257710
20
76.774240
11
213.257710
21
63.735760
0
LINE
8
Layer 1
10
213.257710
20
63.735760
11
210.186580
21
63.735760
0
LINE
8
Layer 1
10
210.186580
20
63.735760
11
210.186580
21
76.774240
0
LINE
8
Layer 1
10
210.186580
20
76.774240
11
210.069686
21
77.057330
0
LINE
8
Layer 1
10
210.069686
20
77.057330
11
209.786600
21
77.174220
0
LINE
8
Layer 1
10
209.786600
20
77.174220
11
194.586500
21
77.174220
0
LINE
8
Layer 1
10
194.586500
20
77.174220
11
194.303406
21
77.057330
0
LINE
8
Layer 1
10
194.303406
20
77.057330
11
194.186520
21
76.774240
0
LINE
8
Layer 1
10
194.186520
20
76.774240
11
194.186520
21
65.109840
0
LINE
8
Layer 1
10
194.186520
20
65.109840
11
191.157760
21
65.109840
0
LINE
8
Layer 1
10
191.157760
20
65.109840
11
191.157760
21
76.774240
0
LINE
8
Layer 1
10
191.157760
20
76.774240
11
191.040871
21
77.057330
0
LINE
8
Layer 1
10
191.040871
20
77.057330
11
190.757790
21
77.174220
0
LINE
8
Layer 1
10
190.757790
20
77.174220
11
175.557680
21
77.174220
0
LINE
8
Layer 1
10
175.557680
20
77.174220
11
175.274595
21
77.057330
0
LINE
8
Layer 1
10
175.274595
20
77.057330
11
175.157710
21
76.774240
0
LINE
8
Layer 1
10
175.157710
20
76.774240
11
175.157710
21
63.735760
0
LINE
8
Layer 1
10
175.157710
20
63.735760
11
172.107760
21
63.735760
0
LINE
8
Layer 1
10
172.107760
20
63.735760
11
172.107760
21
76.774240
0
LINE
8
Layer 1
10
172.107760
20
76.774240
11
171.990875
21
77.057330
0
LINE
8
Layer 1
10
171.990875
20
77.057330
11
171.707790
21
77.174220
0
LINE
8
Layer 1
10
171.707790
20
77.174220
11
156.507680
21
77.174220
0
LINE
8
Layer 1
10
4.128870
20
77.174220
11
3.845782
21
77.057330
0
LINE
8
Layer 1
10
3.845782
20
77.057330
11
3.728894
21
76.774240
0
LINE
8
Layer 1
10
3.728894
20
76.774240
11
3.728894
21
61.574140
0
LINE
8
Layer 1
10
3.728894
20
61.574140
11
3.845782
21
61.291050
0
LINE
8
Layer 1
10
3.845782
20
61.291050
11
4.128870
21
61.174160
0
LINE
8
Layer 1
10
4.128870
20
61.174160
11
17.317729
21
61.174160
0
LINE
8
Layer 1
10
17.317729
20
61.174160
11
17.317729
21
58.124220
0
LINE
8
Layer 1
10
17.317729
20
58.124220
11
4.128870
21
58.124220
0
LINE
8
Layer 1
10
4.128870
20
58.124220
11
3.845782
21
58.007330
0
LINE
8
Layer 1
10
3.845782
20
58.007330
11
3.728894
21
57.724240
0
LINE
8
Layer 1
10
3.728894
20
57.724240
11
3.728894
21
42.524140
0
LINE
8
Layer 1
10
3.728894
20
42.524140
11
3.845782
21
42.241050
0
LINE
8
Layer 1
10
3.845782
20
42.241050
11
4.128870
21
42.124160
0
LINE
8
Layer 1
10
4.128870
20
42.124160
11
15.793274
21
42.124160
0
LINE
8
Layer 1
10
15.793274
20
42.124160
11
15.793274
21
39.074220
0
LINE
8
Layer 1
10
15.793274
20
39.074220
11
4.128870
21
39.074220
0
LINE
8
Layer 1
10
4.128870
20
39.074220
11
3.845782
21
38.957326
0
LINE
8
Layer 1
10
3.845782
20
38.957326
11
3.728894
21
38.674240
0
LINE
8
Layer 1
10
3.728894
20
38.674240
11
3.728894
21
23.474140
0
LINE
8
Layer 1
10
3.728894
20
23.474140
11
3.845782
21
23.191050
0
LINE
8
Layer 1
10
3.845782
20
23.191050
11
4.128870
21
23.074160
0
LINE
8
Layer 1
10
4.128870
20
23.074160
11
17.317729
21
23.074160
0
LINE
8
Layer 1
10
17.317729
20
23.074160
11
17.317729
21
20.024220
0
LINE
8
Layer 1
10
17.317729
20
20.024220
11
4.128870
21
20.024220
0
LINE
8
Layer 1
10
4.128870
20
20.024220
11
3.845782
21
19.907326
0
LINE
8
Layer 1
10
3.845782
20
19.907326
11
3.728894
21
19.624240
0
LINE
8
Layer 1
10
3.728894
20
19.624240
11
3.728894
21
4.424140
0
LINE
8
Layer 1
10
3.728894
20
4.424140
11
3.845782
21
4.141050
0
LINE
8
Layer 1
10
3.845782
20
4.141050
11
4.128870
21
4.024160
0
LINE
8
Layer 1
10
4.128870
20
4.024160
11
19.328976
21
4.024160
0
LINE
8
Layer 1
10
19.328976
20
4.024160
11
19.612063
21
4.141050
0
LINE
8
Layer 1
10
19.612063
20
4.141050
11
19.728951
21
4.424140
0
LINE
8
Layer 1
10
19.728951
20
4.424140
11
19.728951
21
17.462620
0
LINE
8
Layer 1
10
19.728951
20
17.462620
11
22.778894
21
17.462620
0
LINE
8
Layer 1
10
22.778894
20
17.462620
11
22.778894
21
4.424140
0
LINE
8
Layer 1
10
22.778894
20
4.424140
11
22.895782
21
4.141050
0
LINE
8
Layer 1
10
22.895782
20
4.141050
11
23.178870
21
4.024160
0
LINE
8
Layer 1
10
23.178870
20
4.024160
11
38.378976
21
4.024160
0
LINE
8
Layer 1
10
38.378976
20
4.024160
11
38.662063
21
4.141050
0
LINE
8
Layer 1
10
38.662063
20
4.141050
11
38.778951
21
4.424140
0
LINE
8
Layer 1
10
38.778951
20
4.424140
11
38.778951
21
16.088540
0
LINE
8
Layer 1
10
38.778951
20
16.088540
11
41.828894
21
16.088540
0
LINE
8
Layer 1
10
41.828894
20
16.088540
11
41.828894
21
4.424140
0
LINE
8
Layer 1
10
41.828894
20
4.424140
11
41.945782
21
4.141050
0
LINE
8
Layer 1
10
41.945782
20
4.141050
11
42.228870
21
4.024160
0
LINE
8
Layer 1
10
42.228870
20
4.024160
11
57.428976
21
4.024160
0
LINE
8
Layer 1
10
57.428976
20
4.024160
11
57.712063
21
4.141050
0
LINE
8
Layer 1
10
57.712063
20
4.141050
11
57.828951
21
4.424140
0
LINE
8
Layer 1
10
57.828951
20
4.424140
11
57.828951
21
17.462620
0
LINE
8
Layer 1
10
57.828951
20
17.462620
11
60.878894
21
17.462620
0
LINE
8
Layer 1
10
60.878894
20
17.462620
11
60.878894
21
4.424140
0
LINE
8
Layer 1
10
60.878894
20
4.424140
11
60.995782
21
4.141050
0
LINE
8
Layer 1
10
60.995782
20
4.141050
11
61.278870
21
4.024160
0
LINE
8
Layer 1
10
61.278870
20
4.024160
11
76.478976
21
4.024160
0
LINE
8
Layer 1
10
76.478976
20
4.024160
11
76.762063
21
4.141050
0
LINE
8
Layer 1
10
76.762063
20
4.141050
11
76.878951
21
4.424140
0
LINE
8
Layer 1
10
76.878951
20
4.424140
11
76.878951
21
16.088540
0
LINE
8
Layer 1
10
76.878951
20
16.088540
11
79.928894
21
16.088540
0
LINE
8
Layer 1
10
79.928894
20
16.088540
11
79.928894
21
4.424140
0
LINE
8
Layer 1
10
79.928894
20
4.424140
11
80.045782
21
4.141050
0
LINE
8
Layer 1
10
80.045782
20
4.141050
11
80.328870
21
4.024160
0
LINE
8
Layer 1
10
80.328870
20
4.024160
11
95.528976
21
4.024160
0
LINE
8
Layer 1
10
95.528976
20
4.024160
11
95.812063
21
4.141050
0
LINE
8
Layer 1
10
95.812063
20
4.141050
11
95.928951
21
4.424140
0
LINE
8
Layer 1
10
95.928951
20
4.424140
11
95.928951
21
17.462620
0
LINE
8
Layer 1
10
95.928951
20
17.462620
11
98.978894
21
17.462620
0
LINE
8
Layer 1
10
98.978894
20
17.462620
11
98.978894
21
4.424140
0
LINE
8
Layer 1
10
98.978894
20
4.424140
11
99.095782
21
4.141050
0
LINE
8
Layer 1
10
99.095782
20
4.141050
11
99.378870
21
4.024160
0
LINE
8
Layer 1
10
99.378870
20
4.024160
11
114.578980
21
4.024160
0
LINE
8
Layer 1
10
114.578980
20
4.024160
11
114.862061
21
4.141050
0
LINE
8
Layer 1
10
114.862061
20
4.141050
11
114.978950
21
4.424140
0
LINE
8
Layer 1
10
114.978950
20
4.424140
11
114.978950
21
19.624240
0
LINE
8
Layer 1
10
114.978950
20
19.624240
11
114.862061
21
19.907326
0
LINE
8
Layer 1
10
114.862061
20
19.907326
11
114.578980
21
20.024220
0
LINE
8
Layer 1
10
114.578980
20
20.024220
11
101.411300
21
20.024220
0
LINE
8
Layer 1
10
101.411300
20
20.024220
11
101.411300
21
23.095350
0
LINE
8
Layer 1
10
101.411300
20
23.095350
11
114.578980
21
23.095350
0
LINE
8
Layer 1
10
114.578980
20
23.095350
11
114.862061
21
23.212235
0
LINE
8
Layer 1
10
114.862061
20
23.212235
11
114.978950
21
23.495320
0
LINE
8
Layer 1
10
114.978950
20
23.495320
11
114.978950
21
38.695430
0
LINE
8
Layer 1
10
114.978950
20
38.695430
11
114.862061
21
38.978515
0
LINE
8
Layer 1
10
114.862061
20
38.978515
11
114.578980
21
39.095400
0
LINE
8
Layer 1
10
114.578980
20
39.095400
11
101.411300
21
39.095400
0
LINE
8
Layer 1
10
101.411300
20
39.095400
11
101.411300
21
42.124160
0
LINE
8
Layer 1
10
101.411300
20
42.124160
11
114.600160
21
42.124160
0
LINE
8
Layer 1
10
114.600160
20
42.124160
11
114.883250
21
42.241050
0
LINE
8
Layer 1
10
114.883250
20
42.241050
11
115.000140
21
42.524140
0
LINE
8
Layer 1
10
115.000140
20
42.524140
11
115.000140
21
57.724240
0
LINE
8
Layer 1
10
115.000140
20
57.724240
11
114.883250
21
58.007330
0
LINE
8
Layer 1
10
114.883250
20
58.007330
11
114.600160
21
58.124220
0
LINE
8
Layer 1
10
114.600160
20
58.124220
11
101.411300
21
58.124220
0
LINE
8
Layer 1
10
101.411300
20
58.124220
11
101.411300
21
61.174160
0
LINE
8
Layer 1
10
101.411300
20
61.174160
11
114.600160
21
61.174160
0
LINE
8
Layer 1
10
114.600160
20
61.174160
11
114.883250
21
61.291050
0
LINE
8
Layer 1
10
114.883250
20
61.291050
11
115.000140
21
61.574140
0
LINE
8
Layer 1
10
115.000140
20
61.574140
11
115.000140
21
76.774240
0
LINE
8
Layer 1
10
115.000140
20
76.774240
11
114.883250
21
77.057330
0
LINE
8
Layer 1
10
114.883250
20
77.057330
11
114.600160
21
77.174220
0
LINE
8
Layer 1
10
114.600160
20
77.174220
11
99.400057
21
77.174220
0
LINE
8
Layer 1
10
99.400057
20
77.174220
11
99.116969
21
77.057330
0
LINE
8
Layer 1
10
99.116969
20
77.057330
11
99.000082
21
76.774240
0
LINE
8
Layer 1
10
99.000082
20
76.774240
11
99.000082
21
63.735760
0
LINE
8
Layer 1
10
99.000082
20
63.735760
11
95.950139
21
63.735760
0
LINE
8
Layer 1
10
95.950139
20
63.735760
11
95.950139
21
76.774240
0
LINE
8
Layer 1
10
95.950139
20
76.774240
11
95.833250
21
77.057330
0
LINE
8
Layer 1
10
95.833250
20
77.057330
11
95.550163
21
77.174220
0
LINE
8
Layer 1
10
95.550163
20
77.174220
11
80.350057
21
77.174220
0
LINE
8
Layer 1
10
80.350057
20
77.174220
11
80.066969
21
77.057330
0
LINE
8
Layer 1
10
80.066969
20
77.057330
11
79.950082
21
76.774240
0
LINE
8
Layer 1
10
79.950082
20
76.774240
11
79.950082
21
65.109840
0
LINE
8
Layer 1
10
79.950082
20
65.109840
11
76.900139
21
65.109840
0
LINE
8
Layer 1
10
76.900139
20
65.109840
11
76.900139
21
76.774240
0
LINE
8
Layer 1
10
76.900139
20
76.774240
11
76.783250
21
77.057330
0
LINE
8
Layer 1
10
76.783250
20
77.057330
11
76.500163
21
77.174220
0
LINE
8
Layer 1
10
76.500163
20
77.174220
11
61.300057
21
77.174220
0
LINE
8
Layer 1
10
61.300057
20
77.174220
11
61.016969
21
77.057330
0
LINE
8
Layer 1
10
61.016969
20
77.057330
11
60.900082
21
76.774240
0
LINE
8
Layer 1
10
60.900082
20
76.774240
11
60.900082
21
63.735760
0
LINE
8
Layer 1
10
60.900082
20
63.735760
11
57.850139
21
63.735760
0
LINE
8
Layer 1
10
57.850139
20
63.735760
11
57.850139
21
76.774240
0
LINE
8
Layer 1
10
57.850139
20
76.774240
11
57.733249
21
77.057330
0
LINE
8
Layer 1
10
57.733249
20
77.057330
11
57.450163
21
77.174220
0
LINE
8
Layer 1
10
57.450163
20
77.174220
11
42.250057
21
77.174220
0
LINE
8
Layer 1
10
42.250057
20
77.174220
11
41.966969
21
77.057330
0
LINE
8
Layer 1
10
41.966969
20
77.057330
11
41.850082
21
76.774240
0
LINE
8
Layer 1
10
41.850082
20
76.774240
11
41.850082
21
65.109840
0
LINE
8
Layer 1
10
41.850082
20
65.109840
11
38.800139
21
65.109840
0
LINE
8
Layer 1
10
38.800139
20
65.109840
11
38.800139
21
76.774240
0
LINE
8
Layer 1
10
38.800139
20
76.774240
11
38.683247
21
77.057330
0
LINE
8
Layer 1
10
38.683247
20
77.057330
11
38.400163
21
77.174220
0
LINE
8
Layer 1
10
38.400163
20
77.174220
11
23.200057
21
77.174220
0
LINE
8
Layer 1
10
23.200057
20
77.174220
11
22.916970
21
77.057330
0
LINE
8
Layer 1
10
22.916970
20
77.057330
11
22.800082
21
76.774240
0
LINE
8
Layer 1
10
22.800082
20
76.774240
11
22.800082
21
63.735760
0
LINE
8
Layer 1
10
22.800082
20
63.735760
11
19.728951
21
63.735760
0
LINE
8
Layer 1
10
19.728951
20
63.735760
11
19.728951
21
76.774240
0
LINE
8
Layer 1
10
19.728951
20
76.774240
11
19.612063
21
77.057330
0
LINE
8
Layer 1
10
19.612063
20
77.057330
11
19.328976
21
77.174220
0
LINE
8
Layer 1
10
19.328976
20
77.174220
11
4.128870
21
77.174220
0
LINE
8
Layer 1
10
119.339880
20
20.024250
11
119.056795
21
19.907361
0
LINE
8
Layer 1
10
119.056795
20
19.907361
11
118.939910
21
19.624280
0
LINE
8
Layer 1
10
118.939910
20
19.624280
11
118.939910
21
4.424170
0
LINE
8
Layer 1
10
118.939910
20
4.424170
11
119.056795
21
4.141085
0
LINE
8
Layer 1
10
119.056795
20
4.141085
11
119.339880
21
4.024200
0
LINE
8
Layer 1
10
119.339880
20
4.024200
11
134.539990
21
4.024200
0
LINE
8
Layer 1
10
134.539990
20
4.024200
11
134.823080
21
4.141085
0
LINE
8
Layer 1
10
134.823080
20
4.141085
11
134.939970
21
4.424170
0
LINE
8
Layer 1
10
134.939970
20
4.424170
11
134.939970
21
16.088570
0
LINE
8
Layer 1
10
134.939970
20
16.088570
11
137.078850
21
16.088570
0
LINE
8
Layer 1
10
137.078850
20
16.088570
11
137.078850
21
4.424170
0
LINE
8
Layer 1
10
137.078850
20
4.424170
11
137.195740
21
4.141085
0
LINE
8
Layer 1
10
137.195740
20
4.141085
11
137.478830
21
4.024200
0
LINE
8
Layer 1
10
137.478830
20
4.024200
11
152.678930
21
4.024200
0
LINE
8
Layer 1
10
152.678930
20
4.024200
11
152.962020
21
4.141085
0
LINE
8
Layer 1
10
152.962020
20
4.141085
11
153.078910
21
4.424170
0
LINE
8
Layer 1
10
153.078910
20
4.424170
11
153.078910
21
19.624280
0
LINE
8
Layer 1
10
153.078910
20
19.624280
11
152.962020
21
19.907361
0
LINE
8
Layer 1
10
152.962020
20
19.907361
11
152.678930
21
20.024250
0
LINE
8
Layer 1
10
152.678930
20
20.024250
11
138.098430
21
20.024250
0
LINE
8
Layer 1
10
138.098430
20
20.024250
11
137.478830
21
20.024250
0
LINE
8
Layer 1
10
137.478830
20
20.024250
11
134.539990
21
20.024250
0
LINE
8
Layer 1
10
134.539990
20
20.024250
11
131.781500
21
20.024250
0
LINE
8
Layer 1
10
131.781500
20
20.024250
11
119.339880
21
20.024250
0
LINE
8
Layer 1
10
122.071000
20
75.080200
11
121.914896
21
74.304972
0
LINE
8
Layer 1
10
121.914896
20
74.304972
11
121.488917
21
73.672618
0
LINE
8
Layer 1
10
121.488917
20
73.672618
11
120.856564
21
73.246640
0
LINE
8
Layer 1
10
120.856564
20
73.246640
11
120.081336
21
73.090536
0
LINE
8
Layer 1
10
120.081336
20
73.090536
11
119.281634
21
73.246640
0
LINE
8
Layer 1
10
119.281634
20
73.246640
11
118.636713
21
73.672618
0
LINE
8
Layer 1
10
118.636713
20
73.672618
11
118.206104
21
74.304972
0
LINE
8
Layer 1
10
118.206104
20
74.304972
11
118.049338
21
75.080200
0
LINE
8
Layer 1
10
118.049338
20
75.080200
11
118.206104
21
75.879902
0
LINE
8
Layer 1
10
118.206104
20
75.879902
11
118.636713
21
76.524823
0
LINE
8
Layer 1
10
118.636713
20
76.524823
11
119.281634
21
76.955432
0
LINE
8
Layer 1
10
119.281634
20
76.955432
11
120.081336
21
77.112197
0
LINE
8
Layer 1
10
120.081336
20
77.112197
11
120.856564
21
76.955432
0
LINE
8
Layer 1
10
120.856564
20
76.955432
11
121.488917
21
76.524823
0
LINE
8
Layer 1
10
121.488917
20
76.524823
11
121.914896
21
75.879902
0
LINE
8
Layer 1
10
121.914896
20
75.879902
11
122.071000
21
75.080200
0
LINE
8
Layer 1
10
122.071000
20
75.080200
11
122.071000
21
75.080200
0
LINE
8
Layer 1
10
153.016000
20
75.122500
11
152.859896
21
74.347272
0
LINE
8
Layer 1
10
152.859896
20
74.347272
11
152.433917
21
73.714918
0
LINE
8
Layer 1
10
152.433917
20
73.714918
11
151.801564
21
73.288940
0
LINE
8
Layer 1
10
151.801564
20
73.288940
11
151.026336
21
73.132836
0
LINE
8
Layer 1
10
151.026336
20
73.132836
11
150.226634
21
73.288940
0
LINE
8
Layer 1
10
150.226634
20
73.288940
11
149.581713
21
73.714918
0
LINE
8
Layer 1
10
149.581713
20
73.714918
11
149.151104
21
74.347272
0
LINE
8
Layer 1
10
149.151104
20
74.347272
11
148.994338
21
75.122500
0
LINE
8
Layer 1
10
148.994338
20
75.122500
11
149.151104
21
75.922202
0
LINE
8
Layer 1
10
149.151104
20
75.922202
11
149.581713
21
76.567123
0
LINE
8
Layer 1
10
149.581713
20
76.567123
11
150.226634
21
76.997732
0
LINE
8
Layer 1
10
150.226634
20
76.997732
11
151.026336
21
77.154497
0
LINE
8
Layer 1
10
151.026336
20
77.154497
11
151.801564
21
76.997732
0
LINE
8
Layer 1
10
151.801564
20
76.997732
11
152.433917
21
76.567123
0
LINE
8
Layer 1
10
152.433917
20
76.567123
11
152.859896
21
75.922202
0
LINE
8
Layer 1
10
152.859896
20
75.922202
11
153.016000
21
75.122500
0
LINE
8
Layer 1
10
153.016000
20
75.122500
11
153.016000
21
75.122500
0
LINE
8
Layer 1
10
122.071000
20
25.084500
11
121.914896
21
24.309272
0
LINE
8
Layer 1
10
121.914896
20
24.309272
11
121.488917
21
23.676918
0
LINE
8
Layer 1
10
121.488917
20
23.676918
11
120.856564
21
23.250940
0
LINE
8
Layer 1
10
120.856564
20
23.250940
11
120.081336
21
23.094836
0
LINE
8
Layer 1
10
120.081336
20
23.094836
11
119.281634
21
23.250940
0
LINE
8
Layer 1
10
119.281634
20
23.250940
11
118.636713
21
23.676918
0
LINE
8
Layer 1
10
118.636713
20
23.676918
11
118.206104
21
24.309272
0
LINE
8
Layer 1
10
118.206104
20
24.309272
11
118.049338
21
25.084500
0
LINE
8
Layer 1
10
118.049338
20
25.084500
11
118.206104
21
25.884202
0
LINE
8
Layer 1
10
118.206104
20
25.884202
11
118.636713
21
26.529123
0
LINE
8
Layer 1
10
118.636713
20
26.529123
11
119.281634
21
26.959732
0
LINE
8
Layer 1
10
119.281634
20
26.959732
11
120.081336
21
27.116497
0
LINE
8
Layer 1
10
120.081336
20
27.116497
11
120.856564
21
26.959732
0
LINE
8
Layer 1
10
120.856564
20
26.959732
11
121.488917
21
26.529123
0
LINE
8
Layer 1
10
121.488917
20
26.529123
11
121.914896
21
25.884202
0
LINE
8
Layer 1
10
121.914896
20
25.884202
11
122.071000
21
25.084500
0
LINE
8
Layer 1
10
122.071000
20
25.084500
11
122.071000
21
25.084500
0
LINE
8
Layer 1
10
153.016000
20
25.084500
11
152.859896
21
24.309272
0
LINE
8
Layer 1
10
152.859896
20
24.309272
11
152.433917
21
23.676918
0
LINE
8
Layer 1
10
152.433917
20
23.676918
11
151.801564
21
23.250940
0
LINE
8
Layer 1
10
151.801564
20
23.250940
11
151.026336
21
23.094836
0
LINE
8
Layer 1
10
151.026336
20
23.094836
11
150.226634
21
23.250940
0
LINE
8
Layer 1
10
150.226634
20
23.250940
11
149.581713
21
23.676918
0
LINE
8
Layer 1
10
149.581713
20
23.676918
11
149.151104
21
24.309272
0
LINE
8
Layer 1
10
149.151104
20
24.309272
11
148.994338
21
25.084500
0
LINE
8
Layer 1
10
148.994338
20
25.084500
11
149.151104
21
25.884202
0
LINE
8
Layer 1
10
149.151104
20
25.884202
11
149.581713
21
26.529123
0
LINE
8
Layer 1
10
149.581713
20
26.529123
11
150.226634
21
26.959732
0
LINE
8
Layer 1
10
150.226634
20
26.959732
11
151.026336
21
27.116497
0
LINE
8
Layer 1
10
151.026336
20
27.116497
11
151.801564
21
26.959732
0
LINE
8
Layer 1
10
151.801564
20
26.959732
11
152.433917
21
26.529123
0
LINE
8
Layer 1
10
152.433917
20
26.529123
11
152.859896
21
25.884202
0
LINE
8
Layer 1
10
152.859896
20
25.884202
11
153.016000
21
25.084500
0
LINE
8
Layer 1
10
153.016000
20
25.084500
11
153.016000
21
25.084500
 0 
ENDSEC
 0 
EOF