<?xml version="1.0" encoding="UTF-8" standalone="no"?>
<!-- Created with Inkscape (http://www.inkscape.org/) -->

<svg
   width="271.10797mm"
   height="81.158272mm"
   viewBox="0 0 271.10798 81.158272"
   version="1.1"
   id="svg1"
   style="background-color:white"
   inkscape:version="1.3 (0e150ed6c4, 2023-07-21)"
   sodipodi:docname="upper_middle_plate.svg"
   xmlns:inkscape="http://www.inkscape.org/namespaces/inkscape"
   xmlns:sodipodi="http://sodipodi.sourceforge.net/DTD/sodipodi-0.dtd"
   xmlns="http://www.w3.org/2000/svg"
   xmlns:svg="http://www.w3.org/2000/svg">
  <sodipodi:namedview
     id="namedview1"
     pagecolor="#505050"
     bordercolor="#eeeeee"
     borderopacity="1"
     inkscape:showpageshadow="0"
     inkscape:pageopacity="0"
     inkscape:pagecheckerboard="0"
     inkscape:deskcolor="#d1d1d1"
     inkscape:document-units="mm"
     inkscape:zoom="0.67704826"
     inkscape:cx="430.85228"
     inkscape:cy="409.32564"
     inkscape:window-width="1920"
     inkscape:window-height="991"
     inkscape:window-x="-9"
     inkscape:window-y="-9"
     inkscape:window-maximized="1"
     inkscape:current-layer="layer1"
     inkscape:rotation="1" />
  <defs
     id="defs1" />
  <g
     inkscape:label="Katman 1"
     inkscape:groupmode="layer"
     id="layer1"
     transform="translate(-127.79366,-497.65839)">
    <g
       id="g27479"
       transform="translate(129.15976,128.25478)"
       style="stroke-width:0.25;stroke-dasharray:none">
      <path
         id="rect22072-5-5-0"
         style="fill:none;stroke:#000000;stroke-width:0.25;stroke-linecap:square;stroke-linejoin:bevel;stroke-dasharray:none;stroke-opacity:1;stop-color:#000000"
         d="m 125.29798,371.29024 c -0.90292,0 -1.62987,0.72695 -1.62987,1.62987 v 5.41569 h -2.98845 c -0.43974,0 -0.79375,0.35401 -0.79375,0.79375 v 26.49554 c 0,0.43974 0.35401,0.79375 0.79375,0.79375 h 2.98845 v 16.58349 c 0,0.90292 0.72695,1.62987 1.62987,1.62987 0.90293,0 1.62988,-0.72695 1.62988,-1.62987 v -5.40174 h 14.37225 v 5.40174 c 0,0.90292 0.72643,1.62935 1.62935,1.62935 0.90293,0 1.62988,-0.72643 1.62988,-1.62935 v -16.57367 h 3.13986 c 0.43974,0 0.79375,-0.35401 0.79375,-0.79375 v -26.49502 c 0,-0.43974 -0.35401,-0.79375 -0.79375,-0.79375 h -3.13986 v -5.42603 c 0,-0.90292 -0.72695,-1.62987 -1.62988,-1.62987 -0.90292,0 -1.62935,0.72695 -1.62935,1.62987 v 30.44466 h -14.37225 v -30.44466 c 0,-0.90292 -0.72695,-1.62987 -1.62988,-1.62987 z" />
      <path
         id="rect22142-7-4-1-5"
         style="fill:none;stroke:#000000;stroke-width:0.25;stroke-linecap:square;stroke-linejoin:bevel;stop-color:#000000;stroke-dasharray:none"
         transform="scale(-1)"
         d="m -139.43234,-427.61801 h 10.40426 c 0.43974,0 0.79375,0.35401 0.79375,0.79375 v 2.05448 c 0,0.43974 -0.35401,0.79375 -0.79375,0.79375 h -10.40426 c -0.43974,0 -0.79375,-0.35401 -0.79375,-0.79375 v -2.05448 c 0,-0.43974 0.35401,-0.79375 0.79375,-0.79375 z" />
      <path
         id="rect38089-8-7-0"
         style="fill:none;stroke:#000000;stroke-width:0.25;stroke-linecap:square;stroke-linejoin:bevel;stop-color:#000000;stroke-dasharray:none"
         d="m 131.36509,385.4003 h 5.52782 c 0.2216,0 0.4,0.1784 0.4,0.4 v 3.18652 c 0,0.2216 -0.1784,0.4 -0.4,0.4 h -5.52782 c -0.2216,0 -0.4,-0.1784 -0.4,-0.4 v -3.18652 c 0,-0.2216 0.1784,-0.4 0.4,-0.4 z" />
      <path
         id="rect10032-3-6-8"
         style="fill:none;stroke:#000000;stroke-width:0.25;stroke-linecap:square;stroke-linejoin:bevel;stop-color:#000000;stroke-dasharray:none"
         d="M 1.5000509,369.46976 H 266.87573 c 1.5512,0 2.8,1.2488 2.8,2.8 v 75.42598 c 0,1.5512 -1.2488,2.8 -2.8,2.8 H 1.5000509 c -1.55119997,0 -2.7999999,-1.2488 -2.7999999,-2.8 v -75.42598 c 0,-1.5512 1.24879993,-2.8 2.7999999,-2.8 z" />
      <path
         id="rect22377-8-6-0-0"
         style="fill:none;stroke:#000000;stroke-width:0.25;stroke-linecap:square;stroke-linejoin:bevel;stroke-dasharray:none;stroke-opacity:1;stop-color:#000000"
         d="m 155.14168,373.38678 c -0.2216,0 -0.39997,0.17838 -0.39997,0.39998 v 15.2001 c 0,0.2216 0.17837,0.39998 0.39997,0.39998 h 13.18886 v 3.00757 h -13.16767 c -0.2216,0 -0.39997,0.17837 -0.39997,0.39997 v 15.20011 c 0,0.2216 0.17837,0.39998 0.39997,0.39998 h 13.16767 v 3.07113 h -13.16767 c -0.2216,0 -0.39997,0.17837 -0.39997,0.39997 v 15.20011 c 0,0.2216 0.17837,0.39997 0.39997,0.39997 h 13.16767 v 3.07113 h -13.16767 c -0.2216,0 -0.39997,0.17839 -0.39997,0.39998 v 15.2001 c 0,0.2216 0.17837,0.39998 0.39997,0.39998 h 15.20011 c 0.2216,0 0.39997,-0.17838 0.39997,-0.39998 v -13.03848 h 3.04995 v 13.03848 c 0,0.2216 0.17837,0.39998 0.39997,0.39998 h 15.20011 c 0.22162,0 0.39997,-0.17838 0.39997,-0.39998 v -11.6644 h 3.04995 v 11.6644 c 0,0.2216 0.17838,0.39998 0.39997,0.39998 h 15.20011 c 0.22162,0 0.39997,-0.17838 0.39997,-0.39998 v -13.03848 h 3.04995 v 13.03848 c 0,0.2216 0.17838,0.39998 0.39997,0.39998 h 15.20011 c 0.22162,0 0.39997,-0.17838 0.39997,-0.39998 v -11.6644 h 3.04995 v 11.6644 c 0,0.2216 0.17838,0.39998 0.39997,0.39998 h 15.20011 c 0.22162,0 0.39997,-0.17838 0.39997,-0.39998 v -13.03848 h 3.04995 v 13.03848 c 0,0.2216 0.17838,0.39998 0.39997,0.39998 h 15.20011 c 0.22162,0 0.39997,-0.17838 0.39997,-0.39998 v -15.2001 c 0,-0.22159 -0.17835,-0.39998 -0.39997,-0.39998 h -13.18886 v -3.07113 h 13.18886 c 0.22162,0 0.39997,-0.17837 0.39997,-0.39997 v -15.20011 c 0,-0.2216 -0.17835,-0.39997 -0.39997,-0.39997 h -11.66441 v -3.07113 h 11.66441 c 0.22162,0 0.39997,-0.17839 0.39997,-0.39998 v -15.20011 c 0,-0.2216 -0.17835,-0.39997 -0.39997,-0.39997 h -13.18886 v -3.00757 h 13.16767 c 0.22159,0 0.39997,-0.17838 0.39997,-0.39998 v -15.2001 c 0,-0.2216 -0.17838,-0.39998 -0.39997,-0.39998 h -15.20011 c -0.22159,0 -0.39997,0.17838 -0.39997,0.39998 v 13.03848 h -3.04995 v -13.03848 c 0,-0.2216 -0.17838,-0.39998 -0.39997,-0.39998 h -15.20011 c -0.22159,0 -0.39997,0.17838 -0.39997,0.39998 v 11.6644 h -3.04995 v -11.6644 c 0,-0.2216 -0.17839,-0.39998 -0.39997,-0.39998 h -15.20011 c -0.22159,0 -0.39997,0.17838 -0.39997,0.39998 v 13.03848 h -3.07113 v -13.03848 c 0,-0.2216 -0.17839,-0.39998 -0.39998,-0.39998 h -15.2001 c -0.22161,0 -0.39998,0.17838 -0.39998,0.39998 v 11.6644 h -3.02876 v -11.6644 c 0,-0.2216 -0.17838,-0.39998 -0.39997,-0.39998 h -15.20011 c -0.2216,0 -0.39997,0.17838 -0.39997,0.39998 v 13.03848 h -3.04995 v -13.03848 c 0,-0.2216 -0.17837,-0.39998 -0.39997,-0.39998 z" />
      <path
         id="rect22377-810-3-6"
         style="fill:none;stroke:#000000;stroke-width:0.25;stroke-linecap:square;stroke-linejoin:bevel;stroke-dasharray:none;stroke-opacity:1;stop-color:#000000"
         d="m 2.76287,373.38678 c -0.2216,0 -0.399976,0.17838 -0.399976,0.39998 v 15.2001 c 0,0.2216 0.178376,0.39998 0.399976,0.39998 h 13.188859 v 3.04994 H 2.76287 c -0.2216,0 -0.399976,0.17838 -0.399976,0.39998 v 15.2001 c 0,0.2216 0.178376,0.39998 0.399976,0.39998 h 11.664404 v 3.04994 H 2.76287 c -0.2216,0 -0.399976,0.17839 -0.399976,0.39998 v 15.2001 c 0,0.2216 0.178376,0.39998 0.399976,0.39998 h 13.188859 v 3.04994 H 2.76287 c -0.2216,0 -0.399976,0.17839 -0.399976,0.39998 v 15.2001 c 0,0.2216 0.178376,0.39998 0.399976,0.39998 h 15.200106 c 0.221599,0 0.399975,-0.17838 0.399975,-0.39998 v -13.03848 h 3.049943 v 13.03848 c 0,0.2216 0.178376,0.39998 0.399976,0.39998 h 15.200106 c 0.221599,0 0.399975,-0.17838 0.399975,-0.39998 v -11.6644 h 3.049943 v 11.6644 c 0,0.2216 0.178376,0.39998 0.399976,0.39998 h 15.200106 c 0.221598,0 0.399975,-0.17838 0.399975,-0.39998 v -13.03848 h 3.049943 v 13.03848 c 0,0.2216 0.178377,0.39998 0.399976,0.39998 h 15.200106 c 0.221598,0 0.399975,-0.17838 0.399975,-0.39998 v -11.6644 h 3.049943 v 11.6644 c 0,0.2216 0.178376,0.39998 0.399976,0.39998 h 15.200106 c 0.221598,0 0.399975,-0.17838 0.399975,-0.39998 v -13.03848 h 3.049943 v 13.03848 c 0,0.2216 0.178377,0.39998 0.399976,0.39998 h 15.20011 c 0.22159,0 0.39997,-0.17838 0.39997,-0.39998 v -15.2001 c 0,-0.22159 -0.17838,-0.39998 -0.39997,-0.39998 H 100.0453 v -3.07113 h 13.16768 c 0.22159,0 0.39997,-0.17837 0.39997,-0.39997 v -15.20011 c 0,-0.2216 -0.17838,-0.39997 -0.39997,-0.39997 H 100.0453 v -3.02876 h 13.18886 c 0.2216,0 0.39998,-0.17838 0.39998,-0.39998 v -15.2001 c 0,-0.2216 -0.17838,-0.39998 -0.39998,-0.39998 H 100.0453 v -3.04994 h 13.18886 c 0.2216,0 0.39998,-0.17838 0.39998,-0.39998 v -15.2001 c 0,-0.2216 -0.17838,-0.39998 -0.39998,-0.39998 H 98.034057 c -0.221602,0 -0.399975,0.17838 -0.399975,0.39998 v 13.03848 h -3.049943 v -13.03848 c 0,-0.2216 -0.178379,-0.39998 -0.399976,-0.39998 H 78.984057 c -0.221601,0 -0.399975,0.17838 -0.399975,0.39998 v 11.6644 h -3.049943 v -11.6644 c 0,-0.2216 -0.17838,-0.39998 -0.399976,-0.39998 H 59.934057 c -0.221602,0 -0.399975,0.17838 -0.399975,0.39998 v 13.03848 h -3.049943 v -13.03848 c 0,-0.2216 -0.178382,-0.39998 -0.399976,-0.39998 H 40.884057 c -0.2216,0 -0.399975,0.17838 -0.399975,0.39998 v 11.6644 h -3.049943 v -11.6644 c 0,-0.2216 -0.178386,-0.39998 -0.399976,-0.39998 H 21.834057 c -0.2216,0 -0.399975,0.17838 -0.399975,0.39998 v 13.03848 h -3.071131 v -13.03848 c 0,-0.2216 -0.178376,-0.39998 -0.399975,-0.39998 z" />
      <path
         id="rect22377-834-3-5-6"
         style="fill:none;stroke:#000000;stroke-width:0.25;stroke-linecap:square;stroke-linejoin:bevel;stroke-dasharray:none;stroke-opacity:1;stop-color:#000000"
         d="m 117.97388,430.53675 c -0.2216,0 -0.39997,0.17838 -0.39997,0.39997 v 15.20011 c 0,0.2216 0.17837,0.39997 0.39997,0.39997 h 15.20011 c 0.2216,0 0.39998,-0.17837 0.39998,-0.39997 v -11.6644 h 2.13888 v 11.6644 c 0,0.2216 0.17838,0.39997 0.39998,0.39997 h 15.2001 c 0.2216,0 0.39998,-0.17837 0.39998,-0.39997 v -15.20011 c 0,-0.22159 -0.17838,-0.39997 -0.39998,-0.39997 h -14.5805 -0.6196 -2.93884 -2.75849 z" />
      <g
         id="g1868-9-1-1-2"
         transform="matrix(0.26458333,0,0,0.26458333,120.70471,375.48112)"
         style="fill:none;stroke:#000000;stroke-width:0.9448819;stroke-dasharray:none;stroke-opacity:1">
        <path
           d="m 0,0 c 0,4.16 -3.36,7.52 -7.52,7.52 -4.32,0 -7.68,-3.36 -7.68,-7.52 0,-4.32 3.36,-7.68 7.68,-7.68 C -3.36,-7.68 0,-4.32 0,0 Z"
           style="fill:none;fill-opacity:1;fill-rule:nonzero;stroke:#000000;stroke-width:0.9448819;stroke-dasharray:none;stroke-opacity:1"
           id="path1870-06-7-7-6" />
      </g>
      <g
         id="g1868-0-6-5-4"
         transform="matrix(0.26458333,0,0,0.26458333,151.65039,375.43879)"
         style="fill:none;stroke:#000000;stroke-width:0.9448819;stroke-dasharray:none;stroke-opacity:1">
        <path
           d="m 0,0 c 0,4.16 -3.36,7.52 -7.52,7.52 -4.32,0 -7.68,-3.36 -7.68,-7.52 0,-4.32 3.36,-7.68 7.68,-7.68 C -3.36,-7.68 0,-4.32 0,0 Z"
           style="fill:none;fill-opacity:1;fill-rule:nonzero;stroke:#000000;stroke-width:0.9448819;stroke-dasharray:none;stroke-opacity:1"
           id="path1870-5-1-1-2" />
      </g>
      <g
         id="g1868-18-0-4-2"
         transform="matrix(0.26458333,0,0,0.26458333,120.70471,425.47679)"
         style="fill:none;stroke:#000000;stroke-width:0.9448819;stroke-dasharray:none;stroke-opacity:1">
        <path
           d="m 0,0 c 0,4.16 -3.36,7.52 -7.52,7.52 -4.32,0 -7.68,-3.36 -7.68,-7.52 0,-4.32 3.36,-7.68 7.68,-7.68 C -3.36,-7.68 0,-4.32 0,0 Z"
           style="fill:none;fill-opacity:1;fill-rule:nonzero;stroke:#000000;stroke-width:0.9448819;stroke-dasharray:none;stroke-opacity:1"
           id="path1870-40-3-7-1" />
      </g>
      <g
         id="g1868-3-7-0-6"
         transform="matrix(0.26458333,0,0,0.26458333,151.65039,425.47679)"
         style="fill:none;stroke:#000000;stroke-width:0.9448819;stroke-dasharray:none;stroke-opacity:1">
        <path
           d="m 0,0 c 0,4.16 -3.36,7.52 -7.52,7.52 -4.32,0 -7.68,-3.36 -7.68,-7.52 0,-4.32 3.36,-7.68 7.68,-7.68 C -3.36,-7.68 0,-4.32 0,0 Z"
           style="fill:none;fill-opacity:1;fill-rule:nonzero;stroke:#000000;stroke-width:0.9448819;stroke-dasharray:none;stroke-opacity:1"
           id="path1870-1-6-0-5" />
      </g>
    </g>
  </g>
</svg>
